<?xml version="1.0" encoding="utf-8"?>
<!-- Generator: Adobe Illustrator 23.0.1, SVG Export Plug-In . SVG Version: 6.00 Build 0)  -->
<svg version="1.1" xmlns="http://www.w3.org/2000/svg" xmlns:xlink="http://www.w3.org/1999/xlink" x="0px" y="0px"
	 viewBox="0 0 100 100" style="enable-background:new 0 0 100 100;" xml:space="preserve">
<style type="text/css">
	.st0{fill:#060505;}
	.st1{fill:#B3B3B3;}
	.st2{fill:#18110E;}
	.st3{fill:#5F4632;}
	.st4{fill:#FDFDFD;}
	.st5{fill:#FFFFFF;}
	.st6{fill:#3D2C1F;}
	.st7{fill:#F2F2F2;}
	.st8{fill:#19252A;}
	.st9{fill:#FF0000;}
	.st10{fill:#E7DED8;}
	.st11{fill:#C0B989;}
	.st12{fill:#E7DDB7;}
	.st13{fill:#D8AA6E;}
	.st14{fill:#999999;}
	.st15{fill:#A4585A;}
	.st16{fill:#BBB2AD;}
	.st17{display:none;}
	.st18{display:inline;fill:none;stroke:#000000;stroke-width:5;stroke-miterlimit:10;}
	.st19{display:inline;fill:#FFFFFF;stroke:#000000;stroke-width:2;stroke-miterlimit:10;}
	.st20{display:inline;}
	.st21{opacity:0.99;fill:#0000FF;stroke:#000000;stroke-width:5;stroke-miterlimit:10;}
	.st22{fill:#0000FF;stroke:#000000;stroke-width:5;stroke-miterlimit:10;}
</style>
<g id="Layer_1">
	<g>
		<path class="st0" d="M3.26,41.67c-0.93,0.02-1.87,0.03-2.8,0.05c0-3.5,0-7,0-10.49c0.94,0,1.87,0.01,2.81,0.01l0,0
			c0.03,0.68,0.05,1.37,0.08,2.05C3.34,34,3.32,34.71,3.31,35.43C3.3,37.51,3.28,39.59,3.26,41.67z"/>
		<path class="st0" d="M97.71,54.18c0.92,0.01,1.84,0.02,2.75,0.03c0,2.75,0,5.5,0,8.24c-0.94,0-1.87-0.01-2.81-0.01c0,0,0,0,0,0
			c0-2.74,0-5.48,0.01-8.23C97.66,54.21,97.71,54.18,97.71,54.18z"/>
		<path class="st0" d="M0.46,56.21c0.93-0.01,1.86-0.02,2.79-0.02c0.01,1.42,0.01,2.84,0.02,4.26l0-0.02
			c-0.94,0.01-1.87,0.02-2.81,0.04C0.46,59.04,0.46,57.62,0.46,56.21z"/>
		<path class="st1" d="M86.48,87.58c0,0,0.02,0.03,0.02,0.03c-2.59-0.55-2.83-0.41-2.81,1.73c0,0.04,0,0.08,0,0.12
			c0,0,0.03-0.03,0.03-0.03c-1.24,0.03-2.48,0.06-3.72,0.08c-0.13,0-0.26,0.01-0.38,0.01c-0.38,0-0.76,0.01-1.14,0.01
			c-0.4,0.01-0.38,0.2-0.29,0.42c0,0.15,0.01,0.3,0.01,0.45c-0.15,0.41-0.31,0.82-0.46,1.23c-0.39,0-0.77,0-1.16,0
			c-0.54-0.21-1.09-0.21-1.63,0c-2.32-0.01-2.32-0.01-2.12,1.79c-0.01,0.12-0.02,0.23-0.03,0.35c0.06,0.03,0.1,0.08,0.13,0.14
			l-0.08,0.03c0,0-0.08-0.03-0.08-0.03c-0.07,0.01-0.13,0.01-0.2-0.01c-1.77-0.35-3.53-0.41-5.29,0.03
			c-0.04,0.17-0.08,0.34-0.12,0.51c-0.6,0.92-1.63,1.09-2.78,1.07c-0.07,0-0.14,0.11-0.21,0.17c-0.92,0.2-1.93-0.19-2.81,0.28
			c-0.11-0.02-0.22-0.04-0.33-0.06c-0.13-0.06-0.27-0.19-0.39-0.17c-1.34,0.12-2.02-0.23-1.83-1.43c0.11-0.69-0.63-0.62-1.19-0.62
			c-2.89,0-5.78-0.03-8.66,0.01c-1,0.02-1.47-0.22-1.33-1.05c0.13-0.77-0.3-1.04-1.23-0.99c-1.08,0.05-2.17-0.01-3.25,0.02
			c-0.8,0.03-1.15-0.2-1.08-0.86c0.06-0.6-0.19-1.37,1.02-1.35c4.32,0.09,8.65-0.28,12.96,0.21c-0.01,0.25,0.02,0.5-0.03,0.75
			c-0.18,0.98,0.32,1.31,1.56,1.26c1.9-0.08,3.82-0.04,5.73-0.02c1.06,0.01,1.09-0.52,1.12-1.15c0.03-0.68-0.37-0.82-1.12-0.84
			c-1.38-0.04-2.77,0.2-4.13-0.14c2.69-0.03,5.37-0.06,8.06-0.09c2.79,0.02,2.52,0.32,2.48-2.01c0-0.66,0-1.33,0-1.99l0.14-0.03
			l0.13,0.04c0.01,0.21,0.05,0.41,0.04,0.62c-0.02,0.76-0.15,1.42,1.35,1.43c1.58,0.01,1.46-0.7,1.42-1.5
			c-0.01-0.21-0.02-0.41-0.03-0.62l-0.04,0.04c2.78,0.06,3.14-0.28,2.25-2.1c0.37-0.18,0.32-0.48,0.32-0.77
			c-0.01-1.84-0.02-3.68-0.03-5.52c-0.16-2.11-0.16-2.11-2.48-2.04c0.03-2-0.1-2.09-1.8-2.06c-1.54,0.02-0.6,1.1-1.15,1.52
			c0.19-1.29-0.54-1.66-2.08-1.53c-1.3,0.11-2.64-0.02-3.96-0.05c0.73-0.32,1.52-0.09,2.28-0.16c1.2-0.11,2.45,0.25,3.62-0.23
			c0.07-1.75,0.07-1.75-2.07-1.75c-1.64,0-3.28,0.03-4.91-0.01c-0.99-0.02-1.44,0.28-1.36,1.08c0.04,0.37,0.02,0.74,0.03,1.11
			l0.06,0.03c-0.14,0-0.27,0.01-0.41,0.01c-1.24,0-2.48,0.02-3.72-0.02c-0.89-0.03-1.41,0.17-1.28,0.97
			c0.13,0.79-0.26,1.19-1.3,1.06c-1.17-0.15-1.62,0.26-1.46,1.18c0.11,0.67-0.35,0.85-1.11,0.85c-2.07-0.02-4.13-0.03-6.2,0
			c-0.81,0.01-1.18-0.25-1.07-0.88c0.17-0.98-0.42-1.27-1.51-1.14c-1.01,0.11-1.45-0.23-1.31-1.05c0.14-0.8-0.38-1.05-1.27-0.96
			c-0.95,0.09-1.36-0.25-1.24-0.99c0.17-1.03-0.46-1.34-1.63-1.23c-0.46,0.04-0.93,0.01-1.39,0.02c-0.01-0.71-0.03-1.41-0.04-2.12
			c0.01-0.13,0.02-0.26,0.03-0.4c0.82,0.99,2.05,0.31,3.07,0.47c-0.02,0.25-0.02,0.5-0.07,0.74c-0.24,1.08,0.3,1.47,1.65,1.34
			c0.91-0.08,1.84,0.02,2.76,0.04c0.43,0.46,0.76,0.94,0.66,1.57c-0.02,0.11-0.4,0.63,0.35,0.47l0.15,0l0.14-0.04
			c0.09,0.04,0.19,0.08,0.28,0.12c0.17,0.08,0.33,0.23,0.51,0.24c2,0.07,4.01-0.1,6,0.26c0.41,0.07,0.85,0.02,0.9-0.45
			c0.17-0.05,0.33-0.1,0.33-0.28c0.01-0.58,0.02-1.15,0.03-1.73c0.21-0.08,0.43-0.16,0.64-0.24c1.18,0.01,2.38-0.06,3.55,0.04
			c1.44,0.12,1.08-0.7,1.23-1.3c0.2-0.81-0.63-0.71-1.1-0.73c-1.23-0.06-2.47-0.01-3.71,0c-0.2,0-0.4,0-0.6,0
			c0-0.46,0.02-0.91,0.01-1.37c-0.01-0.48,0.29-0.73,0.85-0.66c1.88,0.24,2.01-0.68,1.9-1.8c-0.05-0.45-0.06-0.92,0-1.37
			c0.09-0.78-0.21-1.2-1.27-1.08c-1.03,0.11-1.6-0.21-1.48-1.11c0.09-0.73-0.36-0.92-1.19-0.91c-2.01,0.03-4.03,0.03-6.04,0
			c-0.88-0.02-1.26,0.25-1.15,0.94c0.15,0.91-0.41,1.2-1.43,1.09c-1.08-0.12-1.53,0.23-1.4,1.11c0.06,0.37,0.01,0.75,0.01,1.12
			c-0.02,1.94-0.02,1.94,2.5,2.02c0.1,0.08,0.2,0.16,0.29,0.24c0.01,0.51,0.02,1.01,0.02,1.52c-1.03,0-2.05-0.02-3.08,0
			c-1.37,0.03-1.92-0.5-1.93-1.58c0-0.63,0.32-1.32-0.29-1.9c-0.74-1.13-1.91-0.59-2.96-0.48c-0.97-0.01-1.93-0.03-2.9-0.03
			c-3.01-0.01-2.5,0.17-2.53-2c1.44,0,2.88,0,4.33-0.02c0.42-0.01,1,0.14,0.98-0.48c-0.11-1.18,0.37-1.85,2.03-1.58
			c0.68,0.11,1.09-0.12,0.99-0.74c-0.17-1,0.44-1.43,1.63-1.45c0.21,0,0.41,0,0.62,0c0.74-0.59,0.09-1.34,0.36-1.99
			c0.84-0.06,1.67-0.03,2.45,0.25c0.65,0.46,0,1.23,0.6,1.7c1.06,0.03,2.13,0.08,3.19,0.09c2.15,0.01,2.15,0,2.06-1.79
			c0.06-0.07,0.09-0.14,0.07-0.23c0.25-0.01,0.51-0.02,0.76-0.04c1.34-0.11,2.47-0.05,2.12,1.46c-0.12,0.49,0.34,0.62,0.87,0.6
			c0.61-0.02,1.22-0.04,1.83-0.05c-0.28,2.15-0.28,2.15,2.33,2.2c0.15,0,0.3,0.03,0.46,0.05c0,0.25,0.05,0.5,0,0.74
			c-0.2,1.02,0.29,1.38,1.59,1.28c1.22-0.09,2.46,0,3.7,0.01c0.22,0.66,0.41,1.33,0.21,2.02c-0.39,0.01-0.78,0.02-1.17,0.02
			c-0.19,0-0.38,0-0.57-0.01c-0.12,0-0.24,0-0.37,0c-0.18,0.01-0.36,0.02-0.53,0.03c-0.62,0.2-0.36,0.58-0.28,0.92
			c0,0.15,0.01,0.31,0.01,0.46c-0.2,0.25-0.19,0.52-0.1,0.79c-0.1-0.02-0.21-0.07-0.3-0.05c-0.77,0.22-2.2-0.69-2.19,0.87
			c0,0.73,0,1.17,1.24,1.2c1.99,0.05,1.13-1.05,1.3-1.75c1.04-0.04,2.11,0.05,3.1-0.3c-0.2,0.58-0.14,1.17-0.04,1.76
			c0.28,0.47,0.82,0.24,1.23,0.25c1.85,0.03,3.71,0.05,5.57-0.01c1.07-0.03,1.73,0.12,1.51,1.12c-0.17,0.76,0.23,1.04,1.18,0.96
			c0.62-0.05,1.54-0.17,1.35,0.7c-0.3,1.34,0.63,1.51,1.89,1.47c0.62,0.66,0.64,1.42,0.64,2.21c0,0.51-0.29,1.08,0.3,1.52
			c0.37,0.53,1.01,0.25,1.53,0.33c1.25,0.2,1.61-0.23,1.52-1.21c-0.1-0.95,0.01-1.91,0.03-2.86c-0.49-1.87-0.49-1.9,1.74-2.21
			c0.96-0.14,0.75-0.67,0.76-1.13c0.01-3.32-0.03-6.65,0.02-9.97c0.01-0.93-0.3-1.45-1.53-1.39c-0.73,0.04-1.08-0.22-0.99-0.8
			c0.15-1.04-0.54-1.34-1.67-1.22c-1.07,0.11-1.55-0.22-1.4-1.1c0.14-0.84-0.49-0.94-1.33-0.92c-0.81,0.02-1.64-0.06-1.48,0.92
			c0.15,0.89-0.34,1.21-1.4,1.11c-0.92-0.09-1.2,0.31-1.1,0.97c0.12,0.82-0.3,1.14-1.32,1.06c-0.56-0.05-1.13,0-1.7,0
			c0-1.33,0-2.66,0-3.98c0-2.14,0-2.14-2.57-2.28c0.02-0.66,0.04-1.33,0.06-1.99L67.25,50c2.57-0.1,2.57-0.1,2.51-2.02L69.73,48
			c0.2-0.04,0.4-0.09,0.6-0.13c0.79,0.01,1.59,0.02,2.38,0.03c0.63-0.18,0.3-0.64,0.43-0.96c0.19-0.51,0.58-0.92,1.27-0.92
			c0.69,0,0.55,0.49,0.59,0.84c0.03,0.26,0.06,0.55,0.47,0.53c0.4-0.02,0.42-0.31,0.42-0.57c0.01-1.33,0.02-2.66,0.01-3.99
			c-0.01-0.54,0.15-0.87,0.94-0.87c0.78,0,0.96,0.32,0.95,0.86c-0.02,1.33-0.03,2.66,0,3.99c0.01,0.38-0.24,0.85,0.39,1.11
			c0.8-0.02,1.59-0.03,2.39-0.05l0.01,0.09c0,1.24,0,2.48,0,3.72c0.1,0,0.2,0,0.3,0c0-1.22,0-2.45,0-3.67l0.15-0.01l0.15,0.01
			l-0.04-0.02c-0.01,0.69-0.02,1.39-0.02,2.08c-0.01,2-0.01,2,2.52,1.93c0.03,0.65,0.06,1.3,0.09,1.94
			c0.65,0.89,1.94,0.29,2.77,0.77c0.03,0.41,0.06,0.81,0.09,1.22c-0.06,0.16,0.03,0.24,0.23,0.24c0.82,0.02,1.64,0.04,2.45,0.06
			l-0.02-0.01c-0.11,1.95-0.11,1.95,2.2,2.11c0.5,1.76,0.3,3.54,0.31,5.32c0.01,1.13,0.45,2.46-1.72,2.71
			c-0.05,0.01-0.08,0.14-0.12,0.22c-0.82,0.09-0.71,0.58-0.71,1.03c0.01,5.11,0.01,10.21,0.02,15.32c-0.72,0.65-1.93-0.15-2.63,0.58
			c-0.01,1.14-0.02,2.28-0.03,3.41C86.55,87.14,86.52,87.36,86.48,87.58z"/>
		<path class="st0" d="M14.14,68.67c-0.41,0.01-0.83-0.01-1.23,0.04c-0.95,0.11-1.36-0.18-1.19-0.95c0.21-0.95-0.31-1.24-1.44-1.12
			c-0.66,0.07-1.34-0.01-2.01,0.02c-1.38,0.06-2.78,0.22-2.33-1.54c0.16-0.62-0.52-0.66-1.02-0.58c-1.5,0.24-1.71-0.37-1.62-1.37
			c0.08-0.91-0.01-1.82-0.03-2.73c0,0,0,0.02,0,0.02c0.91,0.01,1.82,0.03,2.74,0.04c0.03,1.2-0.44,2.66,0.23,3.55
			c0.79,1.05,2.75,0.23,4.17,0.42c0.05,0.01,0.1,0,0.15,0c0.79,0.06,1.14-0.2,1.1-0.86c-0.04-0.83,0-1.66-0.01-2.5
			c0-0.55,0.3-0.95,1-0.86c1.86,0.23,1.76-0.69,1.78-1.72c0.03-2.53-0.68-2.35,2.83-2.3c0.01,1.24,0.01,2.48,0.02,3.72
			c-0.04,0.08-0.08,0.16-0.13,0.23c-0.18,0.05-0.37,0.1-0.55,0.15c-0.2,0-0.41,0.01-0.61,0.01c-0.11-0.16-0.22-0.16-0.33,0.01
			c-1.05-0.09-1.36,0.26-1.34,1.11c0.07,2.16,0,4.32-0.02,6.48c-0.28,0.22-0.22,0.48-0.17,0.74L14.14,68.67z"/>
		<path class="st0" d="M89.24,82.92c-0.01-5.11-0.01-10.21-0.02-15.32c0-0.46-0.11-0.95,0.71-1.03c0.72,0.05,1.44,0.1,2.17,0.15
			l-0.03-0.02c0.01,5.23-0.01,10.46,0.04,15.7c0.01,0.72-0.25,0.96-1.11,0.88c-0.56-0.05-1.13-0.04-1.7-0.05
			C89.27,83.12,89.25,83.02,89.24,82.92z"/>
		<path class="st0" d="M19.74,85.43c-2.51-0.14-2.51-0.14-2.51-2.17c0-3.86,0-7.71,0-11.57c0-0.51,0.1-1.07-0.88-0.92
			c-1.73,0.26-2.31-0.33-2.02-1.65c0.03-0.14-0.12-0.3-0.19-0.46c0,0,0,0.02,0,0.02c0,0,0.12,0.02,0.12,0.02c0.98,0,1.95,0,2.93,0
			c0.03,0.25,0.07,0.5,0.1,0.74c-0.17,0.76-0.06,1.35,1.18,1.24c0.3,0.01,0.59,0.02,0.89,0.04c0.14,0.05,0.28,0.1,0.42,0.14
			c0.02,0.35,0.04,0.71,0.07,1.06c0,0.09,0,0.19,0,0.28c0,2.57,0,5.14,0,7.71c-0.05,1.84-0.09,3.68-0.14,5.52L19.74,85.43z"/>
		<path class="st0" d="M61.32,97.92c0.03,0.08,0.07,0.16,0.07,0.24c0.1,1.77,0.1,1.77-2.13,1.77c-5.12,0-10.23-0.06-15.35,0.04
			c-1.6,0.03-2.12-0.34-1.85-1.55c0.04-0.16,0.01-0.33,0.01-0.5c0,0-0.01,0.03-0.01,0.03c0.21-0.04,0.43-0.08,0.64-0.12
			c5.78,0,11.57,0.01,17.35,0.01c0.42,0.04,0.85,0.07,1.27,0.11L61.32,97.92z"/>
		<path class="st0" d="M97.65,62.44c-0.02,0.29-0.08,0.58-0.04,0.86c0.14,0.91-0.18,1.39-1.47,1.23c-0.59-0.07-1.38-0.11-1.18,0.69
			c0.36,1.44-0.68,1.53-2,1.44c-0.3-0.02-0.61,0.02-0.91,0.03c0,0,0.03,0.02,0.03,0.02c-0.02-2.82-0.05-5.64-0.07-8.46l0.01-0.01
			c2.85-0.08,2.85-0.08,2.85,1.99C94.89,62.47,94.89,62.47,97.65,62.44L97.65,62.44z"/>
		<path class="st2" d="M61.37,95.97c0.88-0.47,1.89-0.08,2.81-0.28c1.02,0,2.05,0,3.07,0.01l-0.03-0.01
			c0.05,2.2,0.05,2.19-2.67,2.21c-1.08,0-2.15,0.02-3.23,0.03c0,0,0.01,0.03,0.01,0.03c0.01-0.09,0.01-0.17,0.02-0.26
			C61.36,97.11,61.36,96.54,61.37,95.97z"/>
		<path class="st2" d="M42.08,97.92c-0.31-0.01-0.62-0.06-0.92-0.02c-1.31,0.17-1.91-0.18-1.67-1.31c0.08-0.39,0.14-0.81-0.7-0.84
			c-0.73-0.02-1.73,0.33-2.13-0.24c-0.34-0.48-0.12-1.21-0.14-1.83l-0.04,0.01c0.94-0.02,1.88-0.03,2.82-0.05
			c0.05,0.06,0.12,0.09,0.21,0.07c0.01,0.37,0.08,0.74,0.01,1.1c-0.17,0.92,0.39,1.05,1.31,0.86c1.22-0.11,1.37,0.5,1.32,1.25
			c-0.01,0.24-0.01,0.49-0.02,0.73c-0.02,0.09-0.04,0.18-0.05,0.28L42.08,97.92z"/>
		<path class="st2" d="M31.21,91.67c-1.33-0.01-2.68-0.09-4-0.01c-1.23,0.08-1.84-0.17-1.62-1.25c0.07-0.32,0.02-0.66,0.03-0.99
			c0,0-0.02,0.02-0.02,0.02c1.44,0.01,2.88,0.08,4.32,0.02c0.95-0.04,1.32,0.23,1.28,0.96c0,0.42,0,0.85,0,1.27L31.21,91.67z"/>
		<path class="st0" d="M78.2,90.41c0-0.15-0.01-0.3-0.01-0.45c0.1-0.14,0.19-0.28,0.29-0.42c0.38,0,0.76-0.01,1.14-0.01
			c0.13,0.15,0.26,0.14,0.38-0.01c1.24-0.03,2.48-0.06,3.72-0.08c-0.09,2.2-0.09,2.2-2.85,2.2c-0.61,0-1.22-0.02-1.83-0.03
			C78.25,91.44,78.52,90.79,78.2,90.41z"/>
		<path class="st0" d="M86.58,86.91c0.01-1.14,0.02-2.28,0.03-3.41c0.88,0.05,1.9-0.46,2.56,0.43c0.01,0.74-0.07,1.49,0.06,2.21
			c0.2,1.12-0.35,1.49-1.67,1.3c-0.25-0.04-0.51-0.02-0.76-0.02C86.73,87.25,86.65,87.08,86.58,86.91z"/>
		<path class="st0" d="M36.5,93.69c-1.29,0-2.59-0.09-3.86,0.02c-1.35,0.11-1.74-0.31-1.53-1.3c0.05-0.24,0.07-0.49,0.1-0.74
			c0,0-0.02,0.03-0.02,0.03c0.5-0.04,1.01-0.09,1.51-0.13c1.18,0.05,2.37,0.2,3.54-0.08c0.56,0.7,0.27,1.46,0.21,2.2L36.5,93.69z"/>
		<path class="st0" d="M76.58,91.65c0.39,0,0.77,0,1.16,0c0.11,0.01,0.22,0.03,0.33,0.04c0.07,2,0.07,1.99-2.37,2
			c-0.86,0-1.73,0.03-2.59,0.05c0,0,0.03-0.09,0.03-0.09c-0.1-0.07-0.21-0.14-0.31-0.21c-0.2-1.8-0.2-1.8,2.12-1.79
			C75.5,91.75,76.04,91.76,76.58,91.65z"/>
		<path class="st0" d="M67.17,94.45c0.04-0.17,0.08-0.34,0.12-0.51c1.76-0.01,3.53-0.02,5.29-0.03c0.06,0.02,0.13,0.02,0.2,0.01
			c0.02,0.17,0.04,0.34,0.05,0.51c0,0.17,0,0.33,0,0.5c-0.23,1.48-1.58,0.61-2.45,0.76c-0.44,0-0.88,0-1.32,0
			c-0.61-0.01-1.22-0.01-1.84-0.02c0,0,0.03,0.01,0.03,0.01C67.22,95.28,67.19,94.86,67.17,94.45z"/>
		<path class="st2" d="M22.83,87.43c-0.15,0.01-0.3,0.02-0.46,0.02c-2.56,0.01-2.56,0.01-2.64-2.02c0,0-0.04,0.01-0.04,0.01
			c2.94-0.24,2.94-0.24,3.12,2L22.83,87.43z"/>
		<path class="st0" d="M22.81,89.19c-0.09-0.59-0.15-1.17,0.02-1.76c0,0-0.02,0.02-0.02,0.02c0.92,0,1.84-0.01,2.76-0.01
			c0.12,0.24,0.49,0.42,0.31,0.74c-0.53,0.25-0.12,0.69-0.31,1c-0.09,0.09-0.18,0.18-0.26,0.27c-0.72,0-1.45,0-2.17,0
			C23.02,89.36,22.92,89.28,22.81,89.19z"/>
		<path class="st0" d="M83.69,89.46c0-0.04,0-0.08,0-0.12c-0.02-2.13,0.22-2.28,2.81-1.73C86.66,89.57,86.66,89.57,83.69,89.46z"/>
		<path class="st3" d="M89.17,83.93c-0.66-0.89-1.68-0.38-2.56-0.43c0.69-0.73,1.91,0.07,2.63-0.58c0.02,0.1,0.03,0.2,0.05,0.3
			C89.25,83.46,89.21,83.69,89.17,83.93z"/>
		<path class="st3" d="M78.07,91.69c-0.11-0.01-0.22-0.03-0.33-0.04c0.15-0.41,0.31-0.82,0.46-1.23c0.32,0.38,0.04,1.02,0.83,1.19
			C78.71,91.63,78.39,91.66,78.07,91.69z"/>
		<path class="st2" d="M69.06,95.69c0.44,0,0.88,0,1.32,0C69.94,95.81,69.5,95.81,69.06,95.69z"/>
		<path class="st4" d="M72.83,94.93c0-0.17,0-0.33,0-0.5c0.23,0.04,0.53,0.04,0.46,0.3C73.26,94.83,72.98,94.87,72.83,94.93z"/>
		<path class="st3" d="M86.58,86.91c0.07,0.17,0.15,0.33,0.22,0.5c-0.11,0.05-0.21,0.11-0.32,0.16
			C86.52,87.36,86.55,87.14,86.58,86.91z"/>
		<path class="st4" d="M74.5,94.53c-0.03-0.07-0.04-0.1-0.05-0.14c0.04-0.01,0.08-0.02,0.12-0.03
			C74.55,94.41,74.53,94.46,74.5,94.53z"/>
		<path class="st2" d="M25.3,89.45c0.09-0.09,0.18-0.18,0.26-0.27c0.01,0.09,0.02,0.18,0.03,0.26c0,0,0.02-0.02,0.02-0.02
			C25.51,89.43,25.41,89.44,25.3,89.45z"/>
		<path class="st2" d="M22.81,89.19c0.11,0.09,0.21,0.18,0.32,0.26C22.86,89.49,22.76,89.39,22.81,89.19z"/>
		<path class="st4" d="M72.93,93.92c-0.02-0.06-0.06-0.11-0.12-0.14c0.11-0.05,0.23-0.09,0.34-0.14c0,0-0.03,0.09-0.03,0.09
			C73.08,93.82,73.02,93.88,72.93,93.92z"/>
		<path class="st5" d="M3.26,41.67c0.02-2.08,0.04-4.16,0.05-6.24c2.38,0.01,4.76,0,7.13,0.04c0.82,0.01,1.32-0.16,1.21-0.9
			c-0.17-1.05,0.42-1.45,1.69-1.34c0.66,0.06,1.17-0.1,1.06-0.74c-0.2-1.1,0.47-1.39,1.69-1.27c0.74,0.07,1.24-0.12,1.13-0.81
			c-0.15-0.92,0.28-1.32,1.46-1.2c1.14,0.12,1.03-0.54,1.06-1.13c0.03-0.66-0.06-1.13-1.13-1.1c-1.39,0.05-2.79,0-4.19-0.01
			c0.15-0.68-0.26-1.31-0.3-1.97l0.07-0.07c0,0,0.11,0.03,0.11,0.03c1.53,0.01,3.05,0,4.58,0.04c0.98,0.02,1.32-0.26,0.98-1.03
			c-0.1-0.22-0.09-0.48-0.12-0.72c0.1,0,0.2-0.01,0.3-0.02c0.49-0.08,0.99-0.26,1.47-0.22c1.3,0.11,1.42-0.47,1.3-1.26
			c0.3-0.75,0.68-1.17,1.87-0.84c0.83,0.23,1.82,0.08,2.74,0.08c0.52,0,0.99-0.2,0.94-0.63c-0.07-0.64,0.61-1.03,0.67-1.61
			c2.22-0.01,2.22-0.01,2.16-1.82c0-0.12-0.02-0.25-0.04-0.37c0,0,0.01-0.05,0.01-0.05c2.39,0.46,2.54,0.37,2.54-1.59
			c0-0.82-0.01-1.64-0.02-2.47c-0.03-0.08-0.01-0.15,0.05-0.21c0.91,0.29,1.86,0.28,2.81,0.25c0.41,0,0.83-0.03,1.24,0.01
			c1.2,0.11,2.06-0.05,1.81-1.28c-0.1-0.53,0.29-0.78,0.92-0.72c1.18,0.11,1.75-0.21,1.58-1.23c-0.13-0.76,0.42-1.06,1.3-0.99
			c0.96,0.08,1.57-0.09,1.57-1.03c0-0.61,0.39-1.12,1.38-0.99c1.01,0.13,1.33-0.23,1.34-1.05c0.02-0.92-0.56-1.01-1.45-0.98
			c-0.56,0.02-1.13-0.02-1.7-0.04c0.11-0.18,0.31-0.37,0.31-0.56c-0.02-1.31,0.79-1.7,2.34-1.65c2.32,0.08,4.65,0.08,6.96,0
			c1.26-0.04,1.83,0.33,1.88,1.29c0.03,0.5,0.17,0.97,0.91,0.95c1.48-0.04,2.99,0.27,4.43-0.23c0.09,0.08,0.19,0.15,0.28,0.23
			c-0.11,0.48-0.3,0.96-0.3,1.45c-0.06,3.17-0.15,2.53,3.03,2.6c0,0,0.03,0.03,0.03,0.03c0,0.65-0.02,1.31,0.01,1.96
			c0.08,2.46-0.63,2.27,2.85,2.22c0,0-0.02-0.02-0.02-0.02c-0.01,2.14-0.5,2.11,2.53,2.01c0,0-0.03-0.03-0.03-0.03
			c-0.01,0.21,0,0.41-0.04,0.62c-0.19,1.16,0.09,1.93,1.9,1.7c0.96-0.12,1.27,0.39,1.19,1.08c-0.08,0.71,0.32,0.98,1.17,0.91
			c0.46-0.03,0.92-0.02,1.38-0.02c0,0-0.03-0.02-0.03-0.02c-0.05,2.32-0.35,2.05,2.54,2.04c0.1,0,0.2-0.02,0.3-0.03
			c0,0-0.03-0.04-0.03-0.04c-0.1,1.94-0.1,1.95,2.09,2.32c0.79,0.13,0.98,0.52,0.77,1.09c-0.29,0.78,0.22,0.95,1.04,0.91
			c0.56-0.02,1.13-0.02,1.69-0.02c0,0-0.02-0.02-0.02-0.02c-0.01,0.2,0.01,0.41-0.03,0.61c-0.22,1.1,0.27,1.57,1.73,1.45
			c1.26-0.1,2.54-0.02,3.82-0.02l0.03,0.03c0,0.33,0.11,0.68-0.02,0.98c-0.47,1.1,0.21,1.28,1.35,1.24
			c1.47-0.06,2.95-0.06,4.42-0.09c0,0-0.04-0.03-0.04-0.03c-0.3,0.9,0.07,1.76,0.19,2.64c0,0.07,0,0.14,0,0.21
			c-0.32,1.58-0.34,3.17-0.27,4.77c-0.21,0.08-0.21,0.17,0,0.25c-0.01,0.08-0.02,0.17-0.02,0.25c-0.1,0.08-0.2,0.16-0.31,0.25
			c-2.58,0.01-2.58,0.01-2.42,2.09c0,0,0.04-0.03,0.04-0.03c-5.63-0.02-11.26-0.03-16.89-0.05c0,0,0.01,0.01,0.01,0.01
			c-0.03-2.31,0.35-2-2.57-2.01c-0.07,0.01-0.14,0.02-0.21,0.01c0.01-0.16,0-0.33,0.04-0.49c0.38-1.39,0.27-1.51-1.45-1.52
			c-1.38-0.01-2.76-0.02-4.14,0c-2.8,0.03-2.54-0.36-2.54,2.02l0.01-0.01c-11.09,0-22.17,0-33.26,0l0.01,0.01
			c0-0.21-0.03-0.42,0.01-0.62c0.25-1.18-0.43-1.51-1.81-1.42c-1.38,0.09-2.77,0.01-4.16,0.02c-2.73,0.03-2.41-0.29-2.42,2.01
			l0.01,0c-0.36,0-0.72,0-1.08,0c-2.28,0-2.44,0.18-1.76,2.02c-0.07,0.01-0.13,0-0.19-0.02c-0.88,0-1.76,0-2.64,0
			c-2.77,0-2.77,0-2.73,2.25l0.01,0c-3.71,0-7.43-0.01-11.14-0.01L3.26,41.67z M39.56,31.25c0.06,2.14,0.08,2.15,2.53,2.19
			c-0.02,2.03-0.02,2.03,2.51,2.03c1.96,0,3.91,0,5.87,0c2.75,0,2.75,0,2.83-2.21c0.4-0.01,0.81,0.01,1.21-0.03
			c0.51-0.05,1.23,0.24,1.45-0.34c0.22-0.58,0.28-1.21-0.53-1.62c0.17-0.02,0.35-0.04,0.52-0.07c2.89,0.08,2.89,0.08,2.89-1.97
			c0.15,0,0.31,0,0.46,0c2.03-0.01,2.03-0.01,2.03-1.58c0-1.61,0.01-3.22,0-4.83c-0.03-2.37,0.36-2.03-2.49-2.08
			c-0.08-2.13,0.58-2.01-2.58-1.99c-0.1,0-0.2,0.01-0.31,0.02c-0.18-0.02-0.35-0.04-0.53-0.07c0.81-0.4,0.74-1.04,0.53-1.62
			c-0.22-0.58-0.94-0.29-1.45-0.35c-0.4-0.04-0.8-0.02-1.21-0.03c0.01-0.16-0.02-0.33,0.02-0.49c0.45-1.58,0.33-1.71-1.71-1.71
			c-2.58,0-5.16,0.06-7.74-0.03c-1.48-0.05-2,0.4-1.8,1.52c-0.04,0.02-0.12,0.06-0.11,0.07c0.03,0.06,0.07,0.12,0.11,0.18
			c0.01,0.08,0.02,0.15,0.04,0.23c-0.01,0.09-0.02,0.18-0.04,0.27c-0.02,0.08-0.03,0.17-0.05,0.25c-0.08-0.01-0.17-0.02-0.25-0.02
			c-2.01-0.56-2.21-0.42-2.19,1.51c-1.76,0.14-3.58,0.22-3.41,2.26c-0.21,0-0.42,0.03-0.62,0c-1.46-0.2-2.01,0.24-1.91,1.47
			c0.13,1.61,0.03,3.23,0.03,4.85c0,2.25,0,2.25,2.87,2.11c-0.17,2.09-0.17,2.09,2.4,2.05c0.1,0,0.2-0.01,0.3-0.02
			C39.36,31.21,39.46,31.22,39.56,31.25z"/>
		<path class="st6" d="M89.03,43.71c0.09-0.03,0.18-0.02,0.25,0.04c0,0.66-0.01,1.32-0.01,1.98c0,2.29,0,2.29,2.9,2.19
			c0,0-0.04-0.04-0.04-0.04c-0.14,2.15-0.14,2.15,2.54,2.06c0.1,0,0.2-0.02,0.3-0.03c0,0-0.04-0.04-0.04-0.04
			c0,1.42,0.01,2.84,0.01,4.27l-0.07,0.06c-0.51,0-1.03,0.01-1.54-0.02c-0.83-0.05-1.38-0.35-1.25-1.1
			c0.17-0.98-0.42-1.24-1.51-1.13c-0.84,0.09-1.44-0.09-1.3-0.92c0.16-0.9-0.38-1.18-1.41-1.09c-0.46,0.04-0.92,0.01-1.38,0.01
			c-0.01-2.27,0.34-1.99-2.49-2c-0.1,0-0.2,0-0.3,0c-0.85,0.01-1.7,0.01-2.55,0.02c0,0,0.04,0.02,0.04,0.02
			c0-1.08,0.01-2.15,0.01-3.23c0-3.13,0-3.11,3.88-3.09c1.03,0,1.58,0.19,1.42,1.1c-0.12,0.69,0.27,0.99,1.14,0.93
			C88.1,43.69,88.56,43.71,89.03,43.71z"/>
		<path class="st7" d="M14.42,26.96c1.4,0.01,2.79,0.06,4.19,0.01c1.07-0.04,1.16,0.44,1.13,1.1c-0.03,0.6,0.09,1.26-1.06,1.13
			c-1.18-0.12-1.61,0.28-1.46,1.2c0.11,0.69-0.39,0.89-1.13,0.81c-1.22-0.12-1.88,0.17-1.69,1.27c0.11,0.64-0.4,0.8-1.06,0.74
			c-1.27-0.12-1.86,0.29-1.69,1.34c0.12,0.74-0.38,0.91-1.21,0.9c-2.38-0.04-4.76-0.03-7.13-0.04c0.01-0.71,0.02-1.43,0.03-2.14
			c0.2-0.02,0.41-0.05,0.61-0.05c2.17-0.01,2.09,0.25,2.07-1.78c0-0.08-0.01-0.16-0.01-0.25l0.01-0.01
			c3.28,0.04,2.77,0.25,2.81-1.98c0.3-0.01,0.6-0.02,0.9-0.02c2.14-0.02,2.46-0.45,1.57-2.13c0.12-0.03,0.24-0.06,0.35-0.09
			C12.58,26.97,13.5,26.97,14.42,26.96z"/>
		<path class="st0" d="M89.03,43.71c-0.46,0-0.93-0.02-1.39,0.01c-0.87,0.06-1.26-0.24-1.14-0.93c0.15-0.91-0.4-1.1-1.42-1.1
			c-3.88-0.01-3.88-0.04-3.88,3.09c0,1.08-0.01,2.15-0.01,3.23c0,0-0.15-0.01-0.15-0.01S80.89,48,80.89,48
			c-0.1-0.02-0.2-0.03-0.3-0.05c0,0-0.01-0.09-0.01-0.09c-2.16-0.37-2.12-0.38-2.18-2.33c-0.03-1.19,0.26-2.39-0.18-3.57
			c-0.14-0.12-0.29-0.23-0.43-0.35c-0.63-0.25-1.25-0.24-1.87,0.01c-0.2,0.03-0.41,0.07-0.61,0.1c0.01-0.09,0.02-0.17,0.02-0.26
			c-0.01-0.66-0.03-1.33-0.04-1.99c5.63,0.02,11.26,0.03,16.89,0.05c-0.03,0.32-0.15,0.66-0.09,0.97c0.2,1.01-0.35,1.35-1.51,1.17
			c-1.38-0.21-1.84,0.27-1.61,1.32C89.02,43.22,89.01,43.46,89.03,43.71z"/>
		<path class="st7" d="M44.54,4.18c0.57,0.02,1.14,0.06,1.7,0.04c0.88-0.04,1.46,0.05,1.45,0.98c-0.01,0.82-0.34,1.18-1.34,1.05
			c-0.99-0.13-1.38,0.37-1.38,0.99c0,0.95-0.6,1.11-1.57,1.03c-0.89-0.07-1.43,0.23-1.3,0.99c0.17,1.02-0.4,1.34-1.58,1.23
			c-0.63-0.06-1.03,0.19-0.92,0.72c0.24,1.23-0.61,1.39-1.81,1.28c-0.41-0.04-0.83-0.01-1.24-0.01c-0.02-1.4-0.04-2.81-0.05-4.21
			c0.04-0.1,0.07-0.2,0.11-0.3c2.25,0.77,2.94,0.44,2.96-1.42c0-0.12,0-0.25,0.01-0.37c0,0-0.07,0.02-0.07,0.02
			c2.77,0.09,3.15-0.26,2.22-2.01c0.13-0.07,0.25-0.14,0.38-0.21c0.09,0,0.18,0.01,0.27,0.03c0.17,0.19,0.41,0.22,0.67,0.17
			C43.53,4.19,44.03,4.18,44.54,4.18z"/>
		<path class="st0" d="M42.35,4.02C42.27,4,42.18,3.99,42.09,3.99c-0.01-0.25,0.03-0.5-0.02-0.75c-0.2-0.97,0.27-1.38,1.48-1.2
			c1.17,0.18,1.61-0.22,1.39-1.14c-0.19-0.82,0.33-0.94,1.22-0.93c2.89,0.04,5.78,0.05,8.66,0c0.99-0.02,1.33,0.24,1.15,0.99
			c-0.25,1.01,0.4,1.2,1.46,1.1c0.56-0.05,1.13-0.01,1.7-0.01c2.34,0,2.34,0,2.24,1.93c-1.44,0.5-2.95,0.19-4.43,0.23
			c-0.74,0.02-0.89-0.44-0.91-0.95c-0.05-0.96-0.62-1.33-1.88-1.29c-2.32,0.08-4.65,0.09-6.96,0c-1.55-0.06-2.36,0.34-2.34,1.65
			c0,0.18-0.2,0.37-0.31,0.56c-0.5,0-1.01,0.01-1.51,0.01C42.8,4.14,42.58,4.08,42.35,4.02z"/>
		<path class="st0" d="M94.89,36.72c-0.07-1.6-0.05-3.19,0.27-4.77c0.41,0.04,0.62,0.68,1.13,0.29c0.25-0.19,0.25-0.6,0-0.79
			c-0.51-0.39-0.72,0.25-1.13,0.29c-0.12-0.88-0.49-1.74-0.19-2.64c0.38,0.04,0.76,0.08,1.14,0.11c0.05,0.11,0.1,0.22,0.16,0.33
			c0.05-0.11,0.1-0.22,0.15-0.33c0.21,0,0.42,0,0.62-0.01c0.01,0.26,0.1,0.47,0.48,0.52c0,2.41,0.01,4.82,0.01,7.23
			c-0.35,0.03-0.48,0.21-0.5,0.46c-0.62,0-1.25,0.01-1.87,0.01c-0.1-0.07-0.2-0.15-0.3-0.22c0.01-0.08,0.02-0.17,0.02-0.25
			c0.13-0.04,0.26-0.08,0.39-0.13C95.15,36.8,95.02,36.76,94.89,36.72z"/>
		<path class="st2" d="M29.03,18.73c-0.06,0.57-0.74,0.96-0.67,1.61c0.05,0.43-0.42,0.63-0.94,0.63c-0.92,0-1.91,0.15-2.74-0.08
			c-1.19-0.32-1.57,0.1-1.87,0.84c-0.4-0.24-0.28-0.59-0.27-0.91c0.05-0.07,0.14-0.14,0.15-0.21c0.26-1.89,0.26-1.85,2.6-1.91
			c0.98-0.02,2.01,0.27,2.94-0.23C28.5,18.56,28.76,18.65,29.03,18.73z"/>
		<path class="st0" d="M95.02,29.14c-1.47,0.03-2.95,0.03-4.42,0.09c-1.14,0.04-1.83-0.14-1.35-1.24c0.13-0.29,0.02-0.65,0.02-0.98
			c1.85,0.17,3.74-0.25,5.57,0.22c-0.3,0.18-0.25,0.34,0.04,0.49C94.92,28.2,94.97,28.67,95.02,29.14z"/>
		<path class="st0" d="M11.31,27.07c0.88,1.67,0.56,2.11-1.57,2.13c-0.3,0-0.6,0.02-0.9,0.02c-0.93,0-1.85,0.01-2.78,0.01
			c-0.04-0.04-0.07-0.07-0.11-0.11C6,27.02,6,27.02,8.68,27.03C9.56,27.04,10.43,27.05,11.31,27.07z"/>
		<path class="st0" d="M64.39,8.25c-3.18-0.07-3.09,0.57-3.03-2.6c0.01-0.48,0.2-0.96,0.3-1.45c2.71-0.08,2.71-0.08,2.71,2.05
			C64.37,6.92,64.38,7.58,64.39,8.25z"/>
		<path class="st0" d="M75.36,18.71c-0.46,0.01-0.93-0.01-1.38,0.02c-0.85,0.06-1.25-0.2-1.17-0.91c0.08-0.69-0.24-1.2-1.19-1.08
			c-1.81,0.24-2.09-0.54-1.9-1.7c0.03-0.2,0.02-0.41,0.04-0.62c0.35,0.04,0.72,0.13,1.06,0.1c1.44-0.15,2.3,0.12,1.95,1.49
			c-0.11,0.44,0.15,0.76,0.77,0.65c1.72-0.3,1.97,0.45,1.78,1.56C75.29,18.38,75.34,18.54,75.36,18.71z"/>
		<path class="st0" d="M94.94,54.14c0-1.42-0.01-2.84-0.01-4.27c2.66,0.23,2.65,0.23,2.67,2.44c0,0.62,0.07,1.24,0.11,1.86
			c0,0-0.05,0.04-0.05,0.04C96.75,54.19,95.84,54.17,94.94,54.14z"/>
		<path class="st0" d="M83.74,24.96c-0.56,0.01-1.13,0-1.69,0.02c-0.82,0.03-1.33-0.13-1.04-0.91c0.21-0.57,0.02-0.96-0.77-1.09
			c-2.19-0.37-2.19-0.38-2.09-2.32c0.35,0.04,0.71,0.15,1.05,0.12c1.46-0.16,2.27,0.15,1.95,1.49c-0.11,0.45,0.16,0.74,0.77,0.63
			c1.77-0.33,1.94,0.49,1.78,1.57C83.67,24.63,83.72,24.79,83.74,24.96z"/>
		<path class="st0" d="M92.17,47.92c-2.9,0.1-2.9,0.1-2.9-2.19c0-0.66,0.01-1.32,0.01-1.98c2.8-0.09,2.79-0.09,2.8,2.07
			C92.09,46.52,92.14,47.22,92.17,47.92z"/>
		<path class="st0" d="M67.28,12.46c-3.48,0.05-2.77,0.24-2.85-2.22c-0.02-0.65,0-1.31-0.01-1.96c2.81,0.05,2.81,0.05,2.81,2.34
			C67.24,11.24,67.26,11.85,67.28,12.46z"/>
		<path class="st0" d="M36.48,8.27c0.02,1.4,0.04,2.81,0.05,4.21c-0.95,0.03-1.9,0.04-2.81-0.25c-0.01-0.53-0.04-1.06-0.04-1.6
			C33.68,8.34,33.69,8.34,36.48,8.27z"/>
		<path class="st0" d="M89.23,26.99c-1.27,0-2.56-0.08-3.82,0.02c-1.46,0.11-1.95-0.35-1.73-1.45c0.04-0.2,0.02-0.41,0.03-0.61
			c1.27,0.01,2.55,0.12,3.81,0.01c1.47-0.13,1.89,0.35,1.69,1.42C89.18,26.57,89.22,26.78,89.23,26.99z"/>
		<path class="st0" d="M19.73,23.23c0.04,0.24,0.02,0.5,0.12,0.72c0.34,0.77,0,1.06-0.98,1.03c-1.53-0.04-3.05-0.03-4.58-0.04
			c0.04-0.57,0.08-1.15,0.13-1.72c0.11-0.09,0.21-0.17,0.32-0.26c1.55,0,3.11,0,4.66,0.01C19.51,23.06,19.62,23.14,19.73,23.23z"/>
		<path class="st0" d="M33.67,12.44c0.01,0.82,0.02,1.64,0.02,2.47c0,1.96-0.14,2.05-2.54,1.59c-0.01-0.94,0.07-1.9-0.05-2.83
			c-0.13-0.99,0.33-1.33,1.5-1.19C32.95,12.51,33.32,12.45,33.67,12.44z"/>
		<path class="st0" d="M22.53,20.82c-0.01,0.32-0.13,0.67,0.27,0.91c0.12,0.79,0,1.37-1.3,1.26c-0.47-0.04-0.98,0.14-1.47,0.22
			c-0.07-0.15-0.13-0.3-0.2-0.46C19.79,20.45,19.29,20.77,22.53,20.82z"/>
		<path class="st0" d="M39.56,6.18c0,0.12-0.01,0.25-0.01,0.37c-0.02,1.86-0.71,2.19-2.96,1.42C36.51,6.35,36.51,6.35,39.56,6.18z"
			/>
		<path class="st0" d="M29.03,18.73c-0.27-0.08-0.53-0.17-0.8-0.25c-0.15-1.75-0.15-1.75,2.02-1.82c0.3-0.01,0.6-0.08,0.89-0.12
			c0.01,0.12,0.03,0.25,0.04,0.37C31.25,18.72,31.25,18.72,29.03,18.73z"/>
		<path class="st0" d="M3.27,31.24c0.15-2.02,0.15-2.02,2.68-2.12c0.03,0.04,0.07,0.07,0.11,0.11c-0.01,0.66-0.02,1.31-0.02,1.97
			c0,0-0.01,0.01-0.01,0.01C5.1,31.22,4.19,31.23,3.27,31.24L3.27,31.24z"/>
		<path class="st0" d="M78.17,20.7c-0.1,0.01-0.2,0.03-0.3,0.03c-2.89,0.01-2.59,0.28-2.54-2.04c0.15,0.01,0.3,0.03,0.45,0.03
			C78.19,18.78,78.19,18.78,78.17,20.7z"/>
		<path class="st0" d="M94.97,49.92c-0.1,0.01-0.2,0.03-0.3,0.03c-2.68,0.09-2.68,0.08-2.54-2.06c0.1,0,0.2,0.01,0.3,0.01
			C94.93,47.91,94.93,47.91,94.97,49.92z"/>
		<path class="st0" d="M14.42,26.96c-0.92,0.01-1.84,0.01-2.75,0.02c0.01-0.04,0.02-0.08,0.02-0.12c0.06-1.91,0.06-1.91,2.43-1.86
			C14.16,25.66,14.57,26.28,14.42,26.96z"/>
		<path class="st0" d="M92.14,39.55c-0.16-2.08-0.16-2.08,2.42-2.09c0.1,0.08,0.21,0.17,0.31,0.25c0,0.25,0.01,0.5,0.01,0.75
			c-0.23,0.02-0.46,0.03-0.69,0.05c0,0.05,0,0.1,0,0.15c0.23,0.02,0.46,0.03,0.69,0.05c0.18,0.53,0.08,0.87-0.76,0.82
			C93.46,39.5,92.8,39.54,92.14,39.55z"/>
		<path class="st0" d="M69.78,14.45c-3.03,0.1-2.54,0.14-2.53-2.01c0.1,0.01,0.2,0.03,0.3,0.03C69.84,12.53,69.84,12.52,69.78,14.45
			z"/>
		<path class="st0" d="M41.71,4.2c0.93,1.75,0.55,2.09-2.22,2.01c0-0.12,0.01-0.24,0.02-0.37C39.52,4.15,39.52,4.15,41.71,4.2z"/>
		<path class="st2" d="M19.83,22.76c0.07,0.15,0.13,0.3,0.2,0.46c-0.1,0.01-0.2,0.02-0.3,0.02c-0.11-0.09-0.22-0.17-0.33-0.26
			C19.55,22.9,19.69,22.83,19.83,22.76z"/>
		<path class="st2" d="M97.52,29.73c-0.37-0.04-0.46-0.26-0.48-0.52C97.65,29.12,97.66,29.38,97.52,29.73z"/>
		<path class="st2" d="M94.87,37.72c-0.1-0.08-0.21-0.17-0.31-0.25c0.1-0.08,0.2-0.16,0.31-0.25c0.1,0.07,0.2,0.15,0.3,0.22
			C95.07,37.53,94.97,37.62,94.87,37.72z"/>
		<path class="st2" d="M97.04,37.43c0.02-0.26,0.15-0.44,0.5-0.46C97.69,37.34,97.54,37.5,97.04,37.43z"/>
		<path class="st2" d="M94.88,27.73c-0.29-0.15-0.35-0.31-0.04-0.49C95.05,27.39,94.98,27.56,94.88,27.73z"/>
		<path class="st2" d="M94.88,38.72c-0.23-0.02-0.46-0.03-0.69-0.05c0-0.05,0-0.1,0-0.15c0.23-0.02,0.46-0.03,0.69-0.05
			C94.88,38.55,94.88,38.63,94.88,38.72z"/>
		<path class="st2" d="M96.42,29.22c-0.05,0.11-0.1,0.22-0.15,0.33c-0.05-0.11-0.1-0.22-0.16-0.33
			C96.21,29.22,96.32,29.22,96.42,29.22z"/>
		<path class="st2" d="M14.74,22.97c-0.11,0.09-0.21,0.17-0.32,0.26C14.37,23.01,14.48,22.93,14.74,22.97z"/>
		<path class="st3" d="M6.01,60.49c-0.91-0.01-1.82-0.03-2.74-0.04c-0.01-1.42-0.01-2.84-0.02-4.26c0.03-0.08,0.07-0.16,0.1-0.23
			c0.95,0.31,2.25,0.69,2.54-0.31c0.33-1.14,0.42-2.43-0.16-3.63l0.07-0.09c0,0,0.13,0.02,0.13,0.02c0.36,0.02,0.72,0.01,1.07,0.05
			c1.47,0.19,1.97-0.28,1.87-1.48c-0.13-1.6-0.03-3.21-0.04-4.82c0,0-0.02,0.02-0.02,0.02c0.94,0,1.88,0.01,2.83,0.01
			c0.57,0,1.13,0.02,1.7-0.01c0.79-0.04,1.1,0.21,1.09,0.86c-0.03,2.28-0.03,4.56-0.01,6.83c0.01,0.59-0.31,0.88-1.01,0.78
			c-1.62-0.22-1.96,0.46-1.78,1.56c0.06,0.37-0.04,0.75,0.02,1.12c0.15,0.98-0.22,1.5-1.58,1.35c-0.64-0.07-1.34-0.03-1.21,0.72
			c0.18,1.09-0.46,1.37-1.67,1.3C6.81,60.22,6.4,60.4,6.01,60.49z"/>
		<path class="st0" d="M11.65,45.72c-0.94,0-1.88-0.01-2.83-0.01c0.04-1.99,0.04-1.99-2.44-1.99c-0.15,0-0.31,0-0.46,0
			c-2.57,0-2.57,0-2.62-2.01c3.71,0,7.43,0.01,11.14,0.01c0.1,1.21,0.14,2.35-2.09,2.02c-0.51-0.08-0.68,0.26-0.69,0.63
			C11.66,44.82,11.65,45.27,11.65,45.72z"/>
		<path class="st0" d="M8.84,45.69c0,1.61-0.09,3.22,0.04,4.82c0.1,1.2-0.4,1.67-1.87,1.48c-0.35-0.05-0.72-0.04-1.07-0.05
			c0.01-1.61,0.12-3.23,0-4.84c-0.08-1.1,0.32-1.52,1.69-1.35C8.01,45.8,8.43,45.72,8.84,45.69z"/>
		<path class="st0" d="M5.73,52.01c0.59,1.19,0.49,2.49,0.16,3.63c-0.29,1-1.59,0.62-2.54,0.31c-0.01-0.91,0.06-1.82-0.05-2.72
			c-0.12-0.97,0.25-1.39,1.5-1.22C5.1,52.05,5.42,52.01,5.73,52.01z"/>
		<path class="st8" d="M3.27,31.24c0.92-0.01,1.83-0.02,2.75-0.03c0,0.08,0.01,0.16,0.01,0.25c0.02,2.04,0.1,1.78-2.07,1.78
			c-0.2,0-0.41,0.03-0.61,0.05C3.32,32.6,3.3,31.92,3.27,31.24z"/>
		<path class="st6" d="M94.94,54.14c0.91,0.02,1.81,0.05,2.72,0.07c0,2.74,0,5.48-0.01,8.23c-2.76,0.03-2.76,0.03-2.76-2.21
			c0-2.06,0-2.06-2.85-1.99c0.01-0.67,0.01-1.34,0.02-2.02c2.84-0.06,2.84-0.06,2.82-2.02L94.94,54.14z"/>
		<path class="st7" d="M50.49,56.24c0.02,0.08,0,0.16-0.07,0.23c-1.71-0.55-3.49-0.11-5.23-0.26c-0.04-2.01-0.04-2.01-2.53-2
			c-0.1,0-0.2,0-0.31,0c-3.34,0.03-2.66-0.03-2.8-2.16c0.36-0.02,0.72-0.07,1.07-0.06c0.82,0.02,1.49,0.03,1.49-0.93
			c0-0.89-0.39-1.19-1.44-1.09c-0.63,0.06-1.2-0.06-1.08-0.71c0.22-1.2-0.56-1.41-1.79-1.3c-0.56,0.05-1.13,0-1.69,0.01
			c-2.75,0.03-2.4-0.29-2.42,2c-1.76,0.01-3.51,0.02-5.27,0.03c-0.67-2.06-0.67-2.06-2.74-2.02c-0.03-0.09-0.05-0.18-0.08-0.27
			c0.02-2.12-0.35-2.35-2.79-1.76c0-0.07,0-0.14,0.01-0.22c0-1.34-0.01-2.67-0.01-4.01c1.34,0,2.69,0.02,4.03-0.02
			c0.91-0.03,1.4,0.19,1.26,0.98c-0.14,0.84,0.36,1.05,1.34,1.05c12.15-0.02,24.29-0.02,36.44,0c0.97,0,1.5-0.18,1.35-1.04
			c-0.13-0.77,0.32-1.02,1.25-0.99c1.44,0.05,2.89,0.01,4.34,0.01c-0.16,1.33,0.31,2.68-0.29,3.99l-0.03,0.02
			c-3.09,0.06-2.78-0.5-2.76,2.27c0,0,0.02-0.02,0.02-0.02c-2.88-0.04-2.53-0.25-2.51,2.02c0,0,0.03-0.02,0.02-0.02
			c-1.24-0.01-2.48-0.02-3.71-0.02c-2.3,0-2.3,0-2.2,1.81c0,0.08,0.02,0.16,0.04,0.25c-0.82-0.02-1.64-0.05-2.45-0.05
			c-2.86-0.01-2.86-0.01-2.93,2.22c-1.02,0.01-2.04,0-3.05,0.02C50.37,54.26,50.4,53.73,50.49,56.24z"/>
		<path class="st9" d="M39.55,52.04c0.14,2.13-0.54,2.19,2.8,2.16c0.1,0,0.2,0,0.31,0c2.49-0.01,2.49-0.01,2.53,2
			c0,0-0.01,0.01-0.01,0.01c-0.2,0.09-0.41,0.17-0.61,0.26c-0.78-0.29-1.61-0.31-2.45-0.25c-0.71,0.59-0.2,1.33-0.36,1.99
			c-0.21,0-0.41,0-0.62,0c-0.48-0.24-0.95,0.06-1.43,0.01c-0.37-1.09-0.2-2.21-0.18-3.32c0.02-1.03-0.86-0.73-1.47-0.73
			c-0.61,0-1.53-0.33-1.5,0.7c0.03,1.11-0.06,2.23-0.1,3.34l0.03-0.02c-1.77,0.15-3.53,0.09-5.3,0.03
			c-0.09-0.67-0.16-1.34,0.04-2.01l-0.02,0.01c2.53-0.07,2.53-0.07,2.43-2.01c0-0.74-0.01-1.47-0.01-2.21l0.06-0.05
			c0.94-0.01,1.88-0.01,2.82-0.02C37.52,51.97,38.54,52.01,39.55,52.04z"/>
		<path class="st3" d="M94.87,54.21c0.01,1.96,0.01,1.96-2.82,2.02c-0.93,0-1.86-0.01-2.79-0.01c0,0,0.02,0.01,0.02,0.01
			c-0.01-0.21,0-0.42-0.04-0.62c-0.1-0.46,0.33-1.13-0.39-1.33c-0.79-0.22-1.73-0.29-2.34,0.43c-0.82-0.48-2.12,0.12-2.77-0.77
			c0.3,0.01,0.61,0,0.91,0.04c1.56,0.22,2.14-0.31,1.88-1.53c-0.03-0.16-0.03-0.32-0.04-0.49c0-0.67,0-1.34,0.01-2.01l-0.01,0.01
			c0.46,0,0.93,0.03,1.38-0.01c1.03-0.09,1.57,0.19,1.41,1.09c-0.14,0.82,0.46,1,1.3,0.92c1.09-0.11,1.68,0.15,1.51,1.13
			c-0.13,0.75,0.42,1.05,1.25,1.1C93.84,54.22,94.36,54.2,94.87,54.21z"/>
		<path class="st0" d="M56.03,89.46c-0.03-0.18-0.06-0.36-0.09-0.54c0-0.23,0-0.46-0.01-0.7c0.03-0.26,0.07-0.52,0.1-0.78
			c0,0,0,0,0,0c3.73,0,7.47,0,11.2,0l-0.02-0.02c0,0.67,0.01,1.34,0.01,2.01c-2.69,0.03-5.37,0.06-8.06,0.09
			c-0.93,0-1.87,0.01-2.8,0.01C56.26,89.51,56.15,89.49,56.03,89.46z"/>
		<path class="st0" d="M63.8,72.85c1.32,0.03,2.66,0.16,3.96,0.05c1.54-0.13,2.27,0.25,2.08,1.54c-0.03,0.17-0.06,0.34-0.09,0.51
			c-2.82,0-5.63,0-8.45,0c0.05-0.67,0.09-1.35,0.14-2.02c0,0-0.06-0.03-0.06-0.03c0,0,0.15,0,0.15,0s0.12-0.07,0.12-0.07
			c0.15,0.01,0.31,0.01,0.46,0.02c0.15,0,0.31,0,0.46,0C62.98,72.85,63.39,72.85,63.8,72.85z"/>
		<path class="st0" d="M50.49,56.24c-0.09-2.51-0.12-1.98,2.47-2.03c1.02-0.02,2.04-0.01,3.05-0.02c0,0,0.02,0.02,0.02,0.02
			c0,1.34,0,2.68-0.01,4.01l0.03-0.01c-0.61,0.02-1.22,0.03-1.83,0.05c-0.53,0.02-0.98-0.11-0.87-0.6c0.36-1.51-0.78-1.57-2.12-1.46
			C50.99,56.21,50.74,56.22,50.49,56.24z"/>
		<path class="st0" d="M53.27,70.96c-0.01,0.58-0.02,1.15-0.03,1.73c-0.32,0-0.67-0.07-0.93,0.16c-2.27,0.03-4.54,0.05-6.81,0.08
			c-0.09-0.04-0.19-0.08-0.28-0.12c-0.07-1.85-0.07-1.82,2.25-1.86c1.83-0.03,3.68,0.2,5.5-0.15c0.1-0.03,0.2-0.06,0.3-0.09l0,0
			C53.27,70.79,53.27,70.88,53.27,70.96z"/>
		<path class="st0" d="M67.22,51.97c2.57,0.15,2.57,0.15,2.57,2.28c0,1.33,0,2.66,0,3.98c0,0-0.03,0.02-0.03,0.02
			c-0.85-0.02-1.69-0.03-2.54-0.05c-0.01-0.66-0.02-1.32-0.04-1.98c0.02-1.43,0.04-2.85,0.07-4.28
			C67.24,51.95,67.22,51.97,67.22,51.97z"/>
		<path class="st0" d="M72.68,67.19c0.01,0.18,0.01,0.37,0.02,0.55c-0.22,0.62-0.75,0.74-1.5,0.73c-2.25-0.04-4.5-0.01-6.75-0.01
			c-0.1-0.59-0.16-1.18,0.04-1.76c0,0-0.03,0-0.03,0c2.59-0.03,5.17-0.07,7.76-0.1c0.19,0.05,0.37,0.11,0.56,0.16
			c0,0-0.12-0.05-0.12-0.05l-0.04,0.1C72.62,66.93,72.65,67.06,72.68,67.19z"/>
		<path class="st2" d="M64.44,68.45c2.25,0,4.5-0.03,6.75,0.01c0.75,0.01,1.29-0.1,1.5-0.73c0.6,0.05,0.24,0.52,0.48,0.72
			c0.1,0.07,0.21,0.22,0.3,0.2c1.41-0.17,2.15,0.18,1.84,1.44c-0.14,0.59,0.3,0.69,0.9,0.65c0.51-0.03,1.03-0.04,1.54-0.06
			c0.65,0.19,0.32,0.67,0.47,1.01c-0.05,0.42-0.1,0.83-0.14,1.25c0,0,0.03-0.02,0.03-0.02c-0.32,0-0.63,0.01-0.95,0.01
			c-1.26,0.04-2.2-0.13-1.89-1.47c0.2-0.87-0.73-0.75-1.35-0.7c-0.96,0.07-1.35-0.2-1.18-0.96c0.22-1.01-0.44-1.16-1.51-1.12
			c-1.85,0.06-3.71,0.03-5.57,0.01C65.26,68.69,64.72,68.92,64.44,68.45z"/>
		<path class="st2" d="M36.53,68.21c0.03-1.24,0.07-2.48,0.1-3.72c1.05-0.1,2.22-0.64,2.96,0.48c0,1.24,0,2.49-0.01,3.73
			c0,0,0.01-0.03,0.01-0.03C38.57,68.52,37.35,69.21,36.53,68.21z"/>
		<path class="st2" d="M79.94,72.85c0.42,0.03,0.84,0.06,1.26,0.08c-0.02,0.96-0.12,1.92-0.03,2.86c0.1,0.97-0.26,1.4-1.52,1.21
			c-0.52-0.08-1.16,0.2-1.53-0.33c0-1.25,0-2.5,0-3.74l-0.03,0.02C78.7,72.92,79.32,72.89,79.94,72.85z"/>
		<path class="st0" d="M61.4,52.01c-0.01-0.08-0.03-0.16-0.04-0.25c-0.1-1.81-0.1-1.81,2.2-1.81c1.24,0,2.48,0.01,3.71,0.02
			c-0.02,0.66-0.04,1.33-0.06,1.99c0,0,0.02-0.02,0.02-0.02c-1.94,0.03-3.88,0.06-5.82,0.09L61.4,52.01z"/>
		<path class="st0" d="M64.37,62.4c-0.09,0-0.17,0.03-0.24,0.08c-1.23-0.01-2.47-0.1-3.7-0.01c-1.29,0.1-1.78-0.26-1.59-1.28
			c0.05-0.24,0-0.49,0-0.74l-0.01,0.02c1.87-0.01,3.74-0.01,5.61-0.02c-0.01,0.17-0.02,0.34-0.03,0.51
			C64.4,61.44,64.38,61.92,64.37,62.4z"/>
		<path class="st0" d="M43.93,70.81c-0.92-0.02-1.85-0.12-2.76-0.04c-1.35,0.12-1.89-0.26-1.65-1.34c0.05-0.24,0.05-0.49,0.07-0.74
			c0,0-0.01,0.03-0.01,0.03c1.76-0.01,3.52-0.02,5.29-0.03c0,0,0.03,0.02,0.03,0.02c-0.02,0.67-0.03,1.34-0.05,2l0.02-0.02
			C44.56,70.73,44.24,70.77,43.93,70.81z"/>
		<path class="st0" d="M36.49,61.97c0.03,0.62-0.56,0.47-0.98,0.48c-1.44,0.02-2.88,0.01-4.33,0.02c0,0,0,0,0,0
			c0-0.67,0.01-1.35,0.01-2.02c1.76-0.07,3.53-0.14,5.29,0.05C36.49,60.99,36.49,61.48,36.49,61.97z"/>
		<path class="st0" d="M45.18,56.2c1.74,0.15,3.52-0.29,5.23,0.26c0.09,1.79,0.09,1.8-2.06,1.79c-1.06-0.01-2.13-0.06-3.19-0.09
			C45.17,57.52,45.17,56.86,45.18,56.2L45.18,56.2z"/>
		<path class="st0" d="M53.88,68.73c1.24-0.01,2.47-0.06,3.71,0c0.47,0.02,1.31-0.08,1.1,0.73c-0.15,0.6,0.2,1.42-1.23,1.3
			c-1.17-0.1-2.37-0.03-3.55-0.04c-0.21,0-0.43-0.01-0.64-0.01c0,0,0,0,0,0c0.04-0.41,0.07-0.82,0.11-1.23
			C53.54,69.22,53.71,68.98,53.88,68.73z"/>
		<path class="st0" d="M81.15,47.98c0.85-0.01,1.7-0.01,2.55-0.02c0.01,0.66,0.02,1.32,0.04,1.98c-0.01,0.67-0.03,1.35-0.04,2.02
			l-0.04,0.03c-2.53,0.07-2.53,0.07-2.52-1.93C81.13,49.37,81.14,48.67,81.15,47.98z"/>
		<path class="st10" d="M42.14,96.94c0.72,0.44,1.54,0.52,2.43,0.51c4.84-0.02,9.67-0.06,14.51,0.02c1.54,0.03,2.23-0.29,1.96-1.56
			c0.11,0.02,0.22,0.04,0.33,0.06c-0.01,0.57-0.01,1.15-0.01,1.72c-0.43,0.02-0.9-0.13-1.29,0.15c-5.78,0-11.57-0.01-17.35-0.01
			c-0.2-0.05-0.39-0.11-0.59-0.16C42.13,97.43,42.13,97.18,42.14,96.94z"/>
		<path class="st2" d="M36.49,61.97c0-0.49,0-0.99-0.01-1.48c0-0.77,0.01-1.53,0.01-2.3c0,0-0.03,0.02-0.03,0.02
			c1.08,0.11,2.17,0.11,3.25,0c0.48,0.05,0.95-0.25,1.43-0.01c-1.18,0.01-1.79,0.45-1.63,1.45c0.1,0.62-0.31,0.85-0.99,0.74
			C36.87,60.13,36.38,60.79,36.49,61.97z"/>
		<path class="st11" d="M77.79,41.61c0.14,0.12,0.29,0.23,0.43,0.35c-0.19,1.98-0.13,3.97-0.04,5.95c-0.63-0.25-0.38-0.73-0.39-1.11
			c-0.03-1.33-0.02-2.66,0-3.99c0.01-0.54-0.17-0.86-0.95-0.86c-0.79,0-0.94,0.33-0.94,0.87c0.02,1.33,0,2.66-0.01,3.99
			c0,0.25-0.03,0.55-0.42,0.57c-0.41,0.02-0.44-0.27-0.47-0.53c-0.04-0.35,0.1-0.85-0.59-0.84c-0.7,0-1.08,0.41-1.27,0.92
			c-0.13,0.33,0.2,0.78-0.43,0.96c0.06-0.71,0.12-1.42,0.18-2.14c0.31,0,0.62-0.03,0.92,0.01c1.21,0.15,1.61-0.24,1.5-1.21
			c-0.11-0.94-0.02-1.9-0.02-2.84l0,0c0.2-0.03,0.41-0.07,0.61-0.1C76.54,41.75,77.17,41.73,77.79,41.61z"/>
		<path class="st2" d="M69.98,85.44l-0.13-0.04l-0.14,0.03c0,0,0.01,0.02,0.01,0.02c0-0.71,0.01-1.43,0.01-2.14
			c1.04-0.05,2.08-0.09,3.12-0.14c-0.04,0.74-0.08,1.48-0.12,2.22c0,0,0.04-0.04,0.05-0.03C71.84,85.39,70.91,85.41,69.98,85.44z"/>
		<path class="st2" d="M58.85,60.45c-0.15-0.02-0.3-0.04-0.46-0.05c-2.61-0.05-2.61-0.05-2.33-2.2c0,0-0.03,0.01-0.03,0.01
			c0.94,0.1,1.88,0.12,2.82-0.02c-0.01,0.76-0.01,1.52-0.02,2.27L58.85,60.45z"/>
		<path class="st0" d="M69.73,48c-0.02-2.78-0.33-2.21,2.76-2.27c0.2,1.25,0.06,2.28-2.03,2.08c-0.04,0-0.08,0.04-0.13,0.06
			C70.14,47.91,69.93,47.95,69.73,48z"/>
		<path class="st0" d="M89.25,56.21c0.93,0,1.86,0.01,2.79,0.01c-0.01,0.67-0.01,1.34-0.02,2.02c0,0-0.01,0.01-0.01,0.01
			c-0.19,0.02-0.38,0.05-0.57,0.07C89.15,58.17,89.15,58.17,89.25,56.21z"/>
		<path class="st0" d="M33.69,70.71c0-0.04,0-0.08,0-0.12c-0.01-1.83-0.01-1.83,2.22-1.89c0.2-0.01,0.39-0.06,0.59-0.09
			c0.01,0.71,0.03,1.41,0.04,2.12c0,0-0.02,0.02-0.02,0.02c-0.95-0.02-1.89-0.04-2.84-0.06L33.69,70.71z"/>
		<path class="st0" d="M86.48,51.96c0.01,0.16,0,0.33,0.04,0.49c0.27,1.22-0.32,1.75-1.88,1.53c-0.3-0.04-0.6-0.03-0.91-0.04
			c-0.03-0.65-0.06-1.3-0.09-1.94c0,0,0.04-0.03,0.04-0.03C84.62,51.96,85.55,51.96,86.48,51.96z"/>
		<path class="st0" d="M86.5,54.71c0.62-0.72,1.55-0.65,2.34-0.43c0.72,0.2,0.3,0.87,0.39,1.33c0.04,0.2,0.03,0.41,0.04,0.62
			c-0.82-0.02-1.64-0.04-2.45-0.06c-0.08-0.08-0.15-0.16-0.23-0.24C86.56,55.52,86.53,55.11,86.5,54.71z"/>
		<path class="st0" d="M61.38,66.99c-0.17,0.7,0.69,1.79-1.3,1.75c-1.24-0.03-1.24-0.47-1.24-1.2c0-1.55,1.42-0.65,2.19-0.87
			c0.08-0.02,0.2,0.03,0.3,0.05C61.34,66.81,61.36,66.9,61.38,66.99z"/>
		<path class="st0" d="M61.43,65.93c0-0.15-0.01-0.31-0.01-0.46c0.09-0.31,0.19-0.62,0.28-0.92c0.18-0.01,0.36-0.02,0.53-0.03
			c0.12,0.14,0.24,0.14,0.37,0c0.19,0,0.38,0,0.57,0.01c1.19,0.06,0.81,0.94,1.16,1.44c0,0,0.1-0.01,0.1-0.01
			c-0.03,0.16-0.07,0.32-0.1,0.47C63.35,66.3,62.18,66.91,61.43,65.93z"/>
		<path class="st0" d="M67.25,50c-0.03-2.28-0.38-2.06,2.51-2.02C69.82,49.9,69.82,49.9,67.25,50z"/>
		<path class="st0" d="M69.71,85.43c0,0.66,0,1.33,0,1.99c-0.83,0-1.66,0-2.5,0l0.02,0.02c0-0.66-0.01-1.33-0.01-1.99
			c0.83-0.12,1.67-0.13,2.5,0L69.71,85.43z"/>
		<path class="st11" d="M91.45,58.32c0.19-0.02,0.38-0.05,0.57-0.07c0.02,2.82,0.05,5.64,0.07,8.46c-0.72-0.05-1.44-0.1-2.17-0.15
			c0.04-0.07,0.07-0.21,0.12-0.22c2.17-0.25,1.73-1.58,1.72-2.71C91.75,61.87,91.94,60.08,91.45,58.32z"/>
		<path class="st11" d="M44.87,68.68c-1.76,0.01-3.52,0.02-5.29,0.03c0-1.24,0-2.49,0.01-3.73c0.61,0.58,0.28,1.27,0.29,1.9
			c0.01,1.08,0.56,1.61,1.93,1.58c1.03-0.02,2.05,0,3.08,0C44.91,68.53,44.9,68.61,44.87,68.68z"/>
		<path class="st6" d="M52.97,70.8c-1.82,0.35-3.67,0.11-5.5,0.15c-2.32,0.04-2.32,0.01-2.25,1.86c0,0-0.14,0.04-0.14,0.04
			s-0.15,0-0.15,0c-0.02-0.72-0.04-1.44-0.06-2.17c0,0-0.02,0.02-0.02,0.02C47.56,70.73,50.26,70.77,52.97,70.8z"/>
		<path class="st6" d="M78.19,47.92c-0.09-1.99-0.15-3.97,0.04-5.95c0.44,1.18,0.14,2.38,0.18,3.57c0.06,1.96,0.02,1.96,2.18,2.33
			C79.78,47.88,78.99,47.9,78.19,47.92z"/>
		<path class="st10" d="M61.65,72.82c0.32-0.57,0.96-0.36,1.47-0.37c2.19-0.02,4.38,0,6.57,0c-1.17,0.48-2.42,0.11-3.62,0.23
			c-0.76,0.07-1.55-0.16-2.28,0.16c-0.41,0-0.81,0-1.22,0c-0.15-0.12-0.31-0.11-0.46,0C61.96,72.84,61.81,72.83,61.65,72.82z"/>
		<path class="st11" d="M45.5,72.93c2.27-0.03,4.54-0.05,6.81-0.08c0.2,0.04,0.4,0.08,0.6,0.12c-0.05,0.47-0.5,0.53-0.9,0.45
			c-1.99-0.35-4-0.18-6-0.26C45.84,73.16,45.67,73.01,45.5,72.93z"/>
		<path class="st2" d="M74.98,77.09c0.08-0.07,0.17-0.09,0.28-0.07c0.01,1.84,0.02,3.68,0.03,5.52c0,0.28,0.05,0.58-0.32,0.77
			c0,0-0.05-0.06-0.05-0.06s0.06-0.05,0.06-0.05C74.99,81.16,74.99,79.12,74.98,77.09z"/>
		<path class="st3" d="M61.43,65.93c0.75,0.98,1.92,0.37,2.9,0.5c0.04,0.09,0.08,0.17,0.12,0.26c0,0,0.03,0,0.03,0
			c-1,0.35-2.06,0.26-3.1,0.3c-0.02-0.09-0.03-0.18-0.05-0.27C61.24,66.45,61.23,66.18,61.43,65.93z"/>
		<path class="st11" d="M78.11,72.94c0,1.25,0,2.5,0,3.74c-0.59-0.44-0.3-1.02-0.3-1.52c0-0.79-0.02-1.55-0.64-2.21
			C77.48,72.94,77.8,72.94,78.11,72.94z"/>
		<path class="st2" d="M72.58,93.91c-1.76,0.01-3.53,0.02-5.29,0.03C69.05,93.5,70.81,93.55,72.58,93.91z"/>
		<path class="st11" d="M67.17,94.45c0.03,0.41,0.05,0.83,0.08,1.24c-1.02,0-2.05,0-3.07-0.01c0.07-0.06,0.14-0.17,0.21-0.17
			C65.54,95.54,66.57,95.37,67.17,94.45z"/>
		<path class="st11" d="M80.59,47.95c0.1,0.02,0.2,0.03,0.3,0.05c0,1.22,0,2.45,0,3.67c-0.1,0-0.2,0-0.3,0
			C80.59,50.43,80.59,49.19,80.59,47.95z"/>
		<path class="st8" d="M70.34,47.87c0.04-0.02,0.09-0.07,0.13-0.06c2.09,0.2,2.23-0.83,2.03-2.08c0,0,0.03-0.02,0.03-0.02
			c0.12,0.02,0.25,0.04,0.37,0.06c-0.06,0.71-0.12,1.42-0.18,2.14C71.93,47.89,71.13,47.88,70.34,47.87z"/>
		<path class="st11" d="M44.87,70.68c0.02,0.72,0.04,1.44,0.06,2.17c-0.75,0.16-0.36-0.36-0.35-0.47c0.11-0.63-0.23-1.1-0.66-1.57
			C44.24,70.77,44.56,70.73,44.87,70.68z"/>
		<path class="st8" d="M45.18,56.21c0,0.65,0,1.31,0,1.96c-0.61-0.47,0.05-1.24-0.6-1.7C44.77,56.38,44.97,56.3,45.18,56.21z"/>
		<path class="st3" d="M64.32,65.96c-0.35-0.5,0.03-1.38-1.16-1.44c0.39-0.01,0.78-0.01,1.17-0.02
			C64.45,64.99,64.49,65.48,64.32,65.96z"/>
		<path class="st2" d="M41.76,58.2c0.15-0.66-0.35-1.39,0.36-1.99C41.85,56.86,42.51,57.61,41.76,58.2z"/>
		<path class="st3" d="M76.58,91.65c-0.54,0.11-1.09,0.1-1.63,0C75.5,91.44,76.04,91.44,76.58,91.65z"/>
		<path class="st3" d="M61.7,64.54c-0.09,0.31-0.19,0.62-0.28,0.92C61.35,65.13,61.08,64.75,61.7,64.54z"/>
		<path class="st6" d="M53.88,68.73c-0.17,0.25-0.34,0.5-0.51,0.74c-0.03-0.25-0.06-0.5-0.1-0.75c0,0,0.01,0,0.01,0
			C53.48,68.73,53.68,68.73,53.88,68.73z"/>
		<path class="st6" d="M52.91,72.97c-0.2-0.04-0.4-0.08-0.6-0.12c0.26-0.23,0.6-0.16,0.93-0.16C53.25,72.87,53.08,72.93,52.91,72.97
			z"/>
		<path class="st3" d="M78.48,89.54c-0.1,0.14-0.19,0.28-0.29,0.42C78.1,89.74,78.08,89.55,78.48,89.54z"/>
		<path class="st6" d="M53.27,70.71c0.21,0,0.43,0.01,0.64,0.01c-0.21,0.08-0.43,0.16-0.64,0.24
			C53.27,70.88,53.27,70.79,53.27,70.71z"/>
		<path class="st3" d="M86.59,55.93c0.08,0.08,0.15,0.16,0.23,0.24C86.62,56.16,86.53,56.09,86.59,55.93z"/>
		<path class="st3" d="M80,89.51c-0.12,0.15-0.25,0.16-0.38,0.01C79.74,89.52,79.87,89.52,80,89.51z"/>
		<path class="st3" d="M62.6,64.52c-0.12,0.14-0.25,0.14-0.37,0C62.36,64.52,62.48,64.52,62.6,64.52z"/>
		<path class="st11" d="M44.57,66.7c0.1,0.08,0.2,0.16,0.29,0.24C44.77,66.86,44.67,66.78,44.57,66.7z"/>
		<path class="st2" d="M73.14,93.64c-0.11,0.05-0.23,0.09-0.34,0.14c0.01-0.12,0.02-0.23,0.03-0.35
			C72.94,93.5,73.04,93.57,73.14,93.64z"/>
		<path class="st6" d="M22.82,45.73c-0.01,0.07-0.01,0.14-0.01,0.22c-0.01,2.08-0.12,1.72,2.19,1.76c0.2,0,0.4,0,0.61,0
			c0.03,0.09,0.05,0.18,0.08,0.27c0,0-0.09,0-0.09,0c-0.82,0-1.64,0-2.46,0.01c-0.71,1.28-0.17,2.63-0.31,3.94
			c-0.11,0.01-0.21,0.01-0.32,0.02c0-0.95-0.05-1.91,0.02-2.86c0.06-0.84-0.25-1.18-1.37-1.16c-1.02,0.02-1.52,0.2-1.44,1.11
			c0.09,0.99,0.04,1.99,0.05,2.98l0.06,0.04c-2.59-0.25-2.6-0.25-2.59,1.85c0,0.78,0.01,1.55,0.02,2.33l0.02-0.01
			c-3.51-0.05-2.8-0.23-2.83,2.3c-0.01,1.02,0.09,1.95-1.78,1.72c-0.7-0.09-1.01,0.31-1,0.86c0,0.83-0.04,1.67,0.01,2.5
			c0.03,0.66-0.32,0.92-1.1,0.86c-0.05,0-0.1,0.01-0.15,0c-1.43-0.19-3.39,0.63-4.17-0.42c-0.67-0.9-0.19-2.35-0.23-3.55
			c0.4-0.09,0.8-0.27,1.19-0.24c1.21,0.08,1.85-0.21,1.67-1.3c-0.13-0.75,0.57-0.8,1.21-0.72c1.36,0.15,1.73-0.37,1.58-1.35
			c-0.06-0.37,0.04-0.75-0.02-1.12c-0.18-1.1,0.16-1.78,1.78-1.56c0.7,0.09,1.02-0.19,1.01-0.78c-0.02-2.28-0.03-4.56,0.01-6.83
			c0.01-0.65-0.3-0.9-1.09-0.86c-0.56,0.03-1.13,0.01-1.7,0.01c0-0.45,0.01-0.9,0.01-1.35c0-0.37,0.17-0.71,0.69-0.63
			c2.23,0.33,2.2-0.81,2.09-2.02c0,0-0.01,0-0.01,0c1.13-0.01,2.28,0.05,3.4-0.03c1.52-0.12,1.96,0.37,1.92,1.56
			C19.67,45.7,19.74,45.71,22.82,45.73z"/>
		<path class="st1" d="M18.46,56.25c-0.6,0.98-0.7,2.02-0.62,3.08c0.02,0.32-0.11,0.57-0.56,0.62c-0.01-1.24-0.01-2.48-0.02-3.72
			c0,0-0.02,0.01-0.02,0.01C17.65,56.24,18.06,56.24,18.46,56.25z"/>
		<path class="st6" d="M14.31,67.95c0.05,0.16,0.09,0.33,0.14,0.49c-0.06,0.09-0.13,0.18-0.19,0.27c0,0-0.12-0.02-0.12-0.02
			C14.09,68.43,14.04,68.16,14.31,67.95z"/>
		<path class="st6" d="M17.16,60.19c-0.07,0.31-0.32,0.22-0.55,0.15C16.79,60.29,16.97,60.24,17.16,60.19z"/>
		<path class="st6" d="M15.99,60.35c-0.11,0-0.22,0-0.33,0.01C15.77,60.19,15.88,60.19,15.99,60.35z"/>
		<path class="st11" d="M19.84,79.92c0.08,0.17,0.16,0.34,0.25,0.51c-0.06,0.38-0.1,0.75,0.56,0.79c0,0.95,0.03,1.89-0.01,2.84
			c-0.03,0.72,0.4,1.1,1.18,0.81c1.13-0.41,1.31,0.2,1.28,0.74c-0.08,1.16,0.62,1.43,1.86,1.35c0.29-0.02,1.06-0.21,0.62,0.48
			c-0.92,0-1.84,0.01-2.76,0.01c-0.18-2.24-0.18-2.24-3.12-2C19.74,83.61,19.79,81.76,19.84,79.92z"/>
		<path class="st12" d="M14.26,68.71c0.06-0.09,0.13-0.18,0.19-0.27c0.95-0.58,1.85,0.16,2.78,0.07c0.01,0,0.05,0.07,0.04,0.11
			c-0.01,0.04-0.06,0.07-0.09,0.1C16.21,68.71,15.24,68.71,14.26,68.71z"/>
		<path class="st12" d="M17.29,69.45c0.28,0.48,1.38,0.46,1.18,1.24C17.22,70.8,17.12,70.21,17.29,69.45z"/>
		<path class="st11" d="M19.86,70.7c-0.01,0.07-0.04,0.12-0.09,0.18c-0.14-0.05-0.28-0.1-0.42-0.14
			C19.52,70.72,19.69,70.71,19.86,70.7z"/>
		<path class="st11" d="M19.83,71.93c0.2,0.09,0.21,0.19,0,0.28C19.83,72.12,19.83,72.03,19.83,71.93z"/>
		<path class="st11" d="M60.06,97.84c0.39-0.29,0.85-0.13,1.29-0.15c-0.01,0.09-0.01,0.17-0.02,0.26
			C60.91,97.91,60.49,97.88,60.06,97.84z"/>
		<path class="st11" d="M42.12,97.67c0.2,0.05,0.39,0.11,0.59,0.16c-0.21,0.04-0.43,0.08-0.64,0.12
			C42.08,97.85,42.1,97.76,42.12,97.67z"/>
		<path class="st12" d="M36.6,91.44c0.33,0.13,1.43-0.33,0.68,0.64c-0.46,0.61,0,0.99,0.81,0.78c1.01-0.25,1.17,0.15,1.18,0.78
			c-0.94,0.02-1.88,0.03-2.82,0.05c0.05-0.74,0.35-1.5-0.21-2.2c0,0,0.03-0.02,0.03-0.02C36.39,91.46,36.5,91.45,36.6,91.44z"/>
		<path class="st12" d="M39.49,93.72c0.54-0.05,0.98-0.02,1.03,0.56c0.04,0.47,0.19,0.93,0.3,1.4c-0.92,0.19-1.49,0.05-1.31-0.86
			C39.57,94.46,39.5,94.09,39.49,93.72z"/>
		<path class="st11" d="M25.87,88.18c1.22,1.09,2.68,1.23,4.36,0.79c0.66-0.17,1.23,0.13,1.49,0.64c0.19,0.37,0.16,0.76-0.52,0.81
			c0.04-0.72-0.33-1-1.28-0.96c-1.43,0.06-2.88-0.01-4.32-0.02c-0.01-0.09-0.02-0.18-0.03-0.26C25.75,88.87,25.34,88.43,25.87,88.18
			z"/>
		<path class="st11" d="M32.71,91.57c-0.38-0.53-0.01-0.63,0.55-0.62c1.05,0.02,2.07,0.12,3.02,0.53c0,0-0.03,0.02-0.03,0.02
			C35.08,91.76,33.89,91.62,32.71,91.57z"/>
		<path class="st0" d="M64.45,37.47c-0.08,2.02-0.08,2.02-2.62,2.02c-9.4,0-18.81,0.01-28.21-0.01c-2.58,0-2.47,0.41-2.43-2.01
			C42.27,37.47,53.36,37.47,64.45,37.47z"/>
		<path class="st0" d="M42.11,16.46c-0.02-0.07-0.04-0.15-0.04-0.23c0-0.08,0-0.17,0-0.25c-0.2-1.12,0.32-1.57,1.8-1.52
			c2.58,0.09,5.16,0.02,7.74,0.03c2.04,0,2.16,0.13,1.71,1.71c-0.04,0.16-0.02,0.33-0.02,0.49c0,0-0.03,0.03-0.03,0.03
			c-0.32-0.03-0.64-0.07-0.96-0.1c-0.41-0.45-0.81-0.45-1.22,0c-0.63,0-1.26,0-1.89-0.01c-0.1-0.1-0.19-0.1-0.28,0
			c-2.07,0-4.15,0-6.22,0C42.5,16.57,42.31,16.51,42.11,16.46z"/>
		<path class="st0" d="M19.8,39.47c-0.17,2.16-0.17,2.16,3.01,2.25c0,1.34,0.01,2.67,0.01,4.01c-3.08-0.03-3.15-0.03-3.06-2.48
			c0.04-1.19-0.4-1.68-1.92-1.56c-1.12,0.09-2.27,0.03-3.4,0.03c-0.04-2.24-0.04-2.25,2.73-2.25C18.04,39.47,18.92,39.47,19.8,39.47
			z"/>
		<path class="st0" d="M53.29,33.26c-0.08,2.21-0.08,2.21-2.83,2.21c-1.96,0-3.91,0-5.87,0c-2.52,0-2.52,0-2.51-2.03
			c0.01-0.07,0-0.13-0.02-0.2c0.1-0.01,0.21-0.01,0.31-0.02c2.7,0.04,5.4,0.08,8.1,0.11c0.51-0.04,1.03,0.73,1.54,0
			c0.41-0.03,0.83-0.07,1.24-0.1L53.29,33.26z"/>
		<path class="st0" d="M36.56,29.16c-2.87,0.14-2.87,0.14-2.87-2.11c0-1.62,0.1-3.24-0.03-4.85c-0.1-1.23,0.45-1.67,1.91-1.47
			c0.2,0.03,0.41,0,0.62,0c0.16,0.02,0.31,0.04,0.47,0.05c-0.02,2.78-0.04,5.57-0.06,8.35C36.59,29.14,36.56,29.16,36.56,29.16z"/>
		<path class="st0" d="M58.84,20.73c2.85,0.05,2.47-0.3,2.49,2.08c0.02,1.61,0,3.22,0,4.83c0,1.57,0,1.57-2.03,1.58
			c-0.15,0-0.31,0-0.46,0c0,0-0.02-0.01-0.02-0.01c0.01-0.08,0-0.16-0.05-0.24c0-2.66,0-5.32,0-7.99c0.04-0.08,0.06-0.16,0.05-0.24
			L58.84,20.73z"/>
		<path class="st0" d="M31.2,37.48c-2.79,0-5.59-0.01-8.38-0.01c0.01-2.3-0.31-1.98,2.42-2.01c1.39-0.01,2.78,0.07,4.16-0.02
			c1.38-0.09,2.05,0.24,1.81,1.42C31.17,37.06,31.2,37.28,31.2,37.48z"/>
		<path class="st0" d="M72.52,37.48c-2.7,0-5.39,0-8.09,0c0-2.38-0.26-1.99,2.54-2.02c1.38-0.02,2.76-0.01,4.14,0
			c1.72,0.01,1.83,0.13,1.45,1.52C72.52,37.15,72.54,37.31,72.52,37.48z"/>
		<path class="st2" d="M42.03,16.99c0.01,0.58,0.02,1.16,0.04,1.74c-0.26,0-0.52,0.03-0.77,0c-1.29-0.14-2.06,0.12-1.77,1.34
			c0.12,0.51-0.18,0.76-0.86,0.73c-0.67-0.03-1.34-0.01-2.01-0.01c-0.16-0.02-0.31-0.04-0.47-0.05c-0.17-2.03,1.65-2.11,3.41-2.26
			c2.15,0.01,2.15,0.01,2.19-1.51C41.86,16.97,41.95,16.98,42.03,16.99z"/>
		<path class="st0" d="M22.82,37.47c-0.08,2.03-0.08,2.03-2.83,2.02c-0.69-1.84-0.53-2.02,1.75-2.02
			C22.11,37.47,22.47,37.47,22.82,37.47z"/>
		<path class="st0" d="M39.26,31.19c-0.1,0.01-0.2,0.02-0.3,0.02c-2.57,0.04-2.57,0.04-2.4-2.05c0,0,0.03-0.03,0.03-0.03
			c0.9,0.04,1.79,0.08,2.69,0.12c0.02,0.32-0.12,0.66,0.18,0.95c0,0.17,0,0.34,0,0.51C39.38,30.88,39.32,31.04,39.26,31.19z"/>
		<path class="st0" d="M58.84,29.22c0,2.05,0,2.05-2.89,1.97c0.02-0.66,0.04-1.32,0.06-1.97c0,0,0.03-0.03,0.03-0.03
			c0.31-0.02,0.62-0.04,0.93-0.06c0.62,0.03,1.24,0.05,1.86,0.08L58.84,29.22z"/>
		<path class="st0" d="M55.95,18.76c0.1-0.01,0.2-0.02,0.31-0.02c3.16-0.02,2.5-0.14,2.58,1.99c0,0-0.02,0.01-0.02,0.01
			c-0.94,0-1.88-0.01-2.82-0.01C55.99,20.08,55.97,19.42,55.95,18.76z"/>
		<path class="st0" d="M53.27,17.48c0-0.17,0.01-0.33,0.01-0.5c0-0.09-0.01-0.18-0.01-0.27c0,0,0.03-0.03,0.03-0.03
			c0.4,0.01,0.81-0.01,1.21,0.03c0.51,0.05,1.23-0.24,1.45,0.35c0.21,0.57,0.28,1.21-0.53,1.62c-0.68-0.01-1.37-0.01-2.05-0.02
			c0,0-0.01,0.01-0.01,0.01C53.33,18.29,53.3,17.89,53.27,17.48z"/>
		<path class="st2" d="M42.07,33.24c0.02,0.06,0.03,0.13,0.02,0.2c-2.45-0.04-2.46-0.06-2.53-2.19c0,0,0.02-0.02,0.02-0.02
			c0.83,0,1.65,0,2.48,0C42.07,31.9,42.07,32.57,42.07,33.24z"/>
		<path class="st0" d="M53.57,31.29c0.62-0.01,1.24-0.02,1.86-0.03c0.8,0.41,0.74,1.05,0.53,1.62c-0.22,0.58-0.94,0.29-1.45,0.34
			c-0.4,0.04-0.8,0.02-1.21,0.03c0,0-0.03-0.03-0.03-0.03c0-0.09,0.01-0.18,0.01-0.27c0-0.17,0-0.33-0.01-0.5
			c0.04-0.17,0.08-0.33,0.12-0.5C53.65,31.77,53.58,31.53,53.57,31.29z"/>
		<path class="st0" d="M75.3,39.48c-2.4,0.01-2.4,0.01-2.57-2.01C75.65,37.49,75.27,37.17,75.3,39.48z"/>
		<path class="st0" d="M41.78,16.97c-0.04,1.52-0.04,1.52-2.19,1.51C39.57,16.55,39.77,16.41,41.78,16.97z"/>
		<path class="st2" d="M95.17,31.74c0.41-0.04,0.62-0.68,1.13-0.29c0.25,0.19,0.25,0.6,0,0.79c-0.51,0.39-0.72-0.25-1.13-0.29
			C95.16,31.88,95.16,31.81,95.17,31.74z"/>
		<path class="st2" d="M94.89,36.72c0.13,0.04,0.26,0.08,0.38,0.13c-0.13,0.04-0.26,0.08-0.39,0.13
			C94.68,36.89,94.68,36.8,94.89,36.72z"/>
		<path class="st2" d="M42.39,16.74c-0.1,0-0.21,0-0.31,0c0.01-0.09,0.02-0.18,0.04-0.27c0.2,0.05,0.39,0.11,0.59,0.16
			C42.6,16.66,42.49,16.7,42.39,16.74z"/>
		<path class="st2" d="M39.26,31.19c0.06-0.16,0.13-0.32,0.19-0.47c0.05,0.17,0.09,0.34,0.14,0.51c0,0-0.02,0.02-0.02,0.02
			C39.46,31.22,39.36,31.21,39.26,31.19z"/>
		<path class="st2" d="M42.07,15.98c0,0.08,0,0.17,0,0.25c-0.04-0.06-0.09-0.12-0.11-0.18C41.95,16.04,42.03,16.01,42.07,15.98z"/>
		<path class="st3" d="M83.73,49.94c-0.01-0.66-0.02-1.32-0.04-1.98c0.1,0,0.2,0,0.3,0c2.83,0.02,2.48-0.27,2.49,2
			c0,0,0.01-0.01,0.01-0.01C85.57,49.95,84.65,49.95,83.73,49.94z"/>
		<path class="st8" d="M6.03,31.2c0.01-0.66,0.02-1.31,0.02-1.97c0.93,0,1.86-0.01,2.78-0.01C8.8,31.45,9.31,31.24,6.03,31.2z"/>
		<path class="st6" d="M77.79,41.61c-0.62,0.11-1.25,0.14-1.87,0.01C76.54,41.37,77.17,41.37,77.79,41.61z"/>
		<path class="st6" d="M74.97,41.67c0.12-0.07,0.24-0.14,0.36-0.21c-0.01,0.08-0.02,0.17-0.02,0.26c0,0,0,0,0,0
			C75.19,41.7,75.08,41.69,74.97,41.67z"/>
		<path class="st8" d="M42.35,4.02c0.22,0.06,0.45,0.11,0.67,0.17C42.76,4.24,42.52,4.22,42.35,4.02z"/>
		<g>
			<path class="st7" d="M72.82,41.72c-1.45,0-2.9,0.03-4.34-0.01c-0.93-0.03-1.38,0.22-1.25,0.99c0.14,0.85-0.39,1.04-1.35,1.04
				c-12.15-0.02-24.29-0.02-36.44,0c-0.98,0-1.48-0.21-1.34-1.05c0.13-0.79-0.35-1.01-1.26-0.98c-1.34,0.05-2.69,0.02-4.03,0.02
				c-3.18-0.09-3.18-0.09-3.01-2.25c0.06,0.02,0.13,0.02,0.19,0.02c2.75,0.01,2.75,0.01,2.83-2.02c0,0-0.01,0-0.01,0
				c2.79,0,5.59,0.01,8.38,0.01c0,0-0.01-0.01-0.01-0.01c-0.04,2.42-0.15,2.01,2.43,2.01c9.4,0.01,18.81,0.01,28.21,0.01
				c2.54,0,2.54,0,2.62-2.02c0,0-0.01,0.01-0.01,0.01c2.7,0,5.39,0,8.09,0c0.07,0.01,0.14,0.01,0.21-0.01
				c0.16,2.02,0.16,2.02,2.57,2.01c0,0-0.01-0.01-0.01-0.01c0.01,0.66,0.03,1.33,0.04,1.99c-0.12,0.07-0.24,0.14-0.36,0.21
				C74.25,41.69,73.54,41.7,72.82,41.72z"/>
			<path class="st7" d="M39.55,52.04c-1.01-0.03-2.03-0.07-3.04-0.1c-0.08-2.22,0.44-1.95-2.52-1.98c-0.1,0-0.2,0-0.3,0l0,0
				c0.02-2.29-0.33-1.97,2.42-2c0.56-0.01,1.14,0.04,1.69-0.01c1.23-0.11,2.01,0.11,1.79,1.3c-0.12,0.65,0.45,0.76,1.08,0.71
				c1.04-0.09,1.44,0.2,1.44,1.09c0,0.96-0.67,0.95-1.49,0.93C40.26,51.97,39.91,52.02,39.55,52.04z"/>
		</g>
		<path class="st0" d="M56.01,54.18c0.08-2.22,0.08-2.23,2.93-2.22c0.82,0,1.64,0.03,2.45,0.05c0,0,0.03,0.02,0.03,0.02
			c-0.03,0.73-0.06,1.46-0.09,2.19c-0.83-0.13-1.67-0.11-2.5-0.02c-0.93,0-1.86,0-2.8-0.01L56.01,54.18z"/>
		<path class="st0" d="M28.42,49.99c1.76-0.01,3.51-0.02,5.27-0.03c0,0,0,0,0,0c0,0.67,0,1.33,0,2c0,0-0.06,0.05-0.06,0.05
			c-1.74,0-3.48,0.11-5.22-0.07C28.48,51.29,28.82,50.64,28.42,49.99z"/>
		<path class="st0" d="M74.97,41.67c0.11,0.01,0.22,0.03,0.34,0.04c0,0.95-0.09,1.9,0.02,2.84c0.11,0.97-0.3,1.36-1.5,1.21
			c-0.3-0.04-0.61-0.01-0.92-0.01c-0.12-0.02-0.25-0.04-0.37-0.06c0.6-1.31,0.14-2.66,0.29-3.99C73.54,41.7,74.25,41.69,74.97,41.67
			z"/>
		<path class="st2" d="M28.42,49.99c0.4,0.65,0.06,1.3-0.01,1.95c-0.11,0.01-0.22,0.01-0.33,0.02c-0.11-0.78,0.79-2.02-1.21-1.96
			c-1.19,0.04-1.38-0.38-1.27-1.16c0.04-0.28-0.01-0.58-0.02-0.86c0,0,0.09,0,0.09,0C27.75,47.93,27.75,47.93,28.42,49.99z"/>
		<path class="st0" d="M25.6,47.7c-0.2,0-0.4,0-0.61,0c-2.31-0.04-2.2,0.32-2.19-1.76C25.25,45.35,25.62,45.58,25.6,47.7z"/>
		<path class="st0" d="M18.46,56.25c-0.41,0-0.81-0.01-1.22-0.01c-0.01-0.78-0.02-1.55-0.02-2.33c0-2.1,0-2.1,2.59-1.85
			c-0.04,1.38-0.07,2.76-0.11,4.14C19.29,56.22,18.88,56.23,18.46,56.25z"/>
		<path class="st2" d="M31.13,74.89c-0.99,0.1-1.97,0.12-2.95-0.02c-0.04-1.96-0.04-1.96,2.38-2.03c0.22,0.04,0.44,0.08,0.67,0.11
			l-0.03-0.02C31.17,73.59,31.15,74.24,31.13,74.89z"/>
		<path class="st2" d="M34.02,72.71c-0.11,0.08-0.22,0.16-0.33,0.24c-0.83,0-1.67-0.01-2.5-0.01c0,0,0.03,0.02,0.03,0.02
			c-0.04-0.18-0.08-0.36-0.13-0.53c0.05-1.62,0.05-1.62,2.6-1.72c0,0-0.01-0.03-0.01-0.03C33.68,71.37,33.68,72.06,34.02,72.71z"/>
		<path class="st11" d="M25.3,58.22c0-1.7-0.01-3.4,0.02-5.1c0.01-0.38-0.23-0.85,0.36-1.12c-0.02,1.53-0.09,3.06-0.05,4.59
			c0.02,0.53-0.39,1.15,0.3,1.61c0.73,0,1.46,0,2.19,0c0.03,0.72,0.06,1.43,0.1,2.15c-0.04,0.04-0.09,0.08-0.13,0.13
			c-0.79-0.26-1.89,0.46-2.45-0.51c0.71-0.19,2.06,0.46,2.03-0.56c-0.02-0.87-1.32-0.28-2.02-0.45
			C25.53,58.71,25.41,58.46,25.3,58.22z"/>
		<path class="st1" d="M19.71,56.2c0.04-1.38,0.07-2.76,0.11-4.14c0,0-0.06-0.04-0.06-0.04c0.5,0.02,0.99,0.04,1.49,0.06
			c-1.19,0.68-0.34,1.67-0.6,2.49c-0.43,1.32,0.85,1.36,1.85,1.61C21.56,56.19,20.64,56.2,19.71,56.2z"/>
		<path class="st11" d="M31.09,72.43c0.04,0.18,0.08,0.36,0.13,0.53c-0.22-0.04-0.44-0.08-0.67-0.11
			C30.56,72.56,30.75,72.43,31.09,72.43z"/>
		<path class="st12" d="M72.6,66.81l0.04-0.1c0,0,0.12,0.05,0.12,0.05c0.04,0.05,0.06,0.11,0.06,0.18
			C72.76,66.87,72.69,66.83,72.6,66.81z"/>
		<path class="st2" d="M72.6,66.81c0.09,0.02,0.17,0.06,0.23,0.12c-0.05,0.09-0.09,0.17-0.14,0.26
			C72.65,67.06,72.62,66.93,72.6,66.81z"/>
		<path class="st0" d="M56.04,87.45c-5.57,0-11.15-0.01-16.72,0c-0.88,0-2.05,0.33-2.56,0c-0.46-0.3-0.21-1.31-0.27-2.01
			c0,0-0.02,0.03-0.02,0.03c1.05-0.04,2.1-0.08,3.15-0.13c0.81,0,1.62,0,2.43-0.01c0.96,0.09,1.92,0.13,2.87-0.04
			c1.83,0,3.66,0.01,5.48,0.01c0.95,0.13,1.9,0.12,2.86,0.01c0.92,0.05,1.84,0.09,2.76,0.14C56.03,86.12,56.03,86.78,56.04,87.45
			L56.04,87.45z"/>
		<path class="st2" d="M36.49,85.43c-0.91-0.02-1.82-0.04-2.73-0.06c0,0,0,0.05,0,0.05c-0.02-0.75-0.03-1.49-0.05-2.24l-0.03,0.02
			c3.07,0.16,3.07,0.16,2.8,2.26L36.49,85.43z"/>
		<path class="st13" d="M55.94,88.22c0,0.23,0,0.46,0.01,0.7C55.67,88.69,55.66,88.46,55.94,88.22z"/>
		<path class="st13" d="M56.37,89.54c-0.11,0.05-0.21,0.1-0.32,0.15c-0.04-0.08-0.04-0.15-0.01-0.23
			C56.15,89.49,56.26,89.51,56.37,89.54z"/>
		<g>
			<path class="st14" d="M19.35,70.73c-0.3-0.01-0.59-0.02-0.89-0.04c0.2-0.78-0.9-0.76-1.18-1.24c-0.03-0.25-0.07-0.5-0.1-0.74
				c0.03-0.03,0.08-0.06,0.09-0.1c0.01-0.03-0.03-0.11-0.04-0.11c-0.93,0.1-1.83-0.65-2.78-0.07c-0.05-0.16-0.09-0.33-0.14-0.49
				c0.02-2.16,0.08-4.32,0.02-6.48c-0.03-0.85,0.29-1.21,1.34-1.11c0.11,0,0.22,0,0.33-0.01c0.2,0,0.41-0.01,0.61-0.01
				c0.24,0.07,0.48,0.16,0.55-0.15c0.04-0.08,0.08-0.16,0.13-0.23c0.45-0.06,0.58-0.3,0.56-0.62c-0.08-1.07,0.02-2.11,0.62-3.08
				c0.42-0.02,0.83-0.03,1.25-0.05c0.93,0,1.85-0.01,2.78-0.01c0.28,0.16,0.35,0.41,0.3,0.65c-0.27,1.28,0.57,1.54,1.91,1.38
				c0.2-0.02,0.4,0,0.6,0c0.11,0.24,0.23,0.49,0.34,0.73c0,0.34-0.01,0.67-0.01,1.01c0.56,0.97,1.67,0.25,2.45,0.51
				c0.1,1.94,0.1,1.94,2.49,1.98c0.21,0,0.41,0.01,0.62,0.02l0,0c0.03,2.18-0.48,2,2.53,2c0.97,0,1.93,0.02,2.9,0.03
				c-0.03,1.24-0.07,2.48-0.1,3.72c-0.01,0.13-0.02,0.26-0.03,0.4c-0.2,0.03-0.39,0.09-0.59,0.09c-2.24,0.06-2.24,0.06-2.22,1.89
				c0,0.04,0,0.08,0,0.12c-2.55,0.09-2.55,0.09-2.6,1.72c-0.35,0-0.54,0.13-0.54,0.42c-2.41,0.07-2.41,0.07-2.38,2.03
				c-0.01,0.16-0.05,0.33-0.03,0.49c0.11,1.01-0.02,1.81-1.72,1.62c-0.85-0.1-0.84,0.47-0.79,0.93c0.11,0.97-0.39,1.37-1.6,1.28
				c-0.53-0.04-1.31-0.11-1.2,0.59c0.23,1.48-0.95,1.47-2.19,1.45c-0.66-0.05-0.62-0.42-0.56-0.79c0.45-0.06,0.56-0.3,0.56-0.63
				c0-2.81,0-5.61,0.01-8.42c0-0.46-0.2-0.71-0.79-0.69C19.69,70.71,19.52,70.72,19.35,70.73z"/>
			<path class="st14" d="M69.78,58.23c0.57,0,1.14-0.05,1.7,0c1.02,0.09,1.44-0.24,1.32-1.06c-0.1-0.66,0.18-1.06,1.1-0.97
				c1.06,0.11,1.55-0.22,1.4-1.11c-0.16-0.98,0.68-0.9,1.48-0.92c0.84-0.02,1.47,0.08,1.33,0.92c-0.15,0.88,0.33,1.22,1.4,1.1
				c1.13-0.12,1.82,0.17,1.67,1.22c-0.09,0.58,0.26,0.84,0.99,0.8c1.24-0.06,1.55,0.47,1.53,1.39c-0.05,3.32-0.01,6.65-0.02,9.97
				c0,0.46,0.21,1-0.76,1.13c-2.23,0.32-2.23,0.35-1.74,2.21c-0.42-0.03-0.84-0.06-1.26-0.08c-0.84-0.12-1.28-0.63-1.71-1.14
				c-0.15-0.34,0.18-0.82-0.47-1.01c-0.35-0.29-0.92-0.53-1.03-0.86c-0.51-1.66-1.82-1.84-3.55-1.38c-0.24-0.21,0.12-0.67-0.48-0.72
				c-0.01-0.18-0.01-0.37-0.02-0.55c0.05-0.09,0.09-0.17,0.14-0.26c0-0.06-0.02-0.12-0.06-0.18c-0.19-0.05-0.37-0.11-0.56-0.16
				c-0.6-0.64-1.43-0.7-2.31-0.56c-1.83,0.3-3.65,0.28-5.47-0.07l-0.1,0.01c0.17-0.48,0.13-0.97,0.02-1.46
				c0.2-0.69,0.01-1.36-0.21-2.02c0.07-0.05,0.15-0.07,0.24-0.08c2.88,0.14,2.88,0.14,2.85-1.46c0.02-0.15,0.04-0.3,0.06-0.45
				c2.41-0.15,2.41-0.15,2.48-2.11c0-0.04,0-0.08,0-0.12L69.78,58.23z"/>
			<path class="st14" d="M42.14,96.94c0.05-0.75-0.1-1.36-1.32-1.25c-0.1-0.47-0.25-0.93-0.3-1.4c-0.05-0.58-0.49-0.61-1.03-0.56
				c-0.09,0.01-0.16-0.01-0.21-0.07c-0.01-0.63-0.17-1.03-1.18-0.78c-0.82,0.2-1.28-0.18-0.81-0.78c0.75-0.97-0.35-0.51-0.68-0.64
				c-0.01-1.19-0.02-2.34-2.21-2.01c-0.62,0.09-0.71-0.35-0.7-0.74c0.02-1.11,0.04-2.21,0.06-3.32c0.91,0.02,1.82,0.04,2.73,0.06
				c0.06,0.7-0.19,1.71,0.27,2.01c0.51,0.34,1.68,0,2.56,0c5.57-0.01,11.15,0,16.72,0c-0.03,0.26-0.07,0.52-0.1,0.78
				c-0.28,0.23-0.27,0.47,0.01,0.7c0.03,0.18,0.06,0.36,0.09,0.54c-0.03,0.08-0.03,0.15,0.01,0.23l0.01-0.01
				c-4.31-0.49-8.64-0.13-12.96-0.21c-1.21-0.02-0.96,0.75-1.02,1.35c-0.06,0.65,0.29,0.89,1.08,0.86c1.08-0.04,2.17,0.03,3.25-0.02
				c0.94-0.04,1.36,0.23,1.23,0.99c-0.14,0.83,0.33,1.06,1.33,1.05c2.89-0.04,5.78-0.02,8.66-0.01c0.56,0,1.3-0.07,1.19,0.62
				c-0.19,1.2,0.49,1.55,1.83,1.43c0.12-0.01,0.26,0.11,0.39,0.17c0.27,1.28-0.42,1.59-1.96,1.56c-4.83-0.08-9.67-0.04-14.51-0.02
				C43.68,97.45,42.86,97.38,42.14,96.94z"/>
			<path class="st14" d="M44.89,68.46c-0.01-0.51-0.02-1.01-0.02-1.52c-0.1-0.08-0.2-0.16-0.29-0.24c-2.52-0.08-2.52-0.08-2.5-2.02
				c0-0.37,0.05-0.75-0.01-1.12c-0.14-0.88,0.32-1.23,1.4-1.11c1.02,0.11,1.59-0.17,1.43-1.09c-0.11-0.69,0.27-0.96,1.15-0.94
				c2.01,0.04,4.03,0.04,6.04,0c0.84-0.01,1.29,0.18,1.19,0.91c-0.12,0.89,0.45,1.22,1.48,1.11c1.07-0.11,1.37,0.3,1.27,1.08
				c-0.05,0.45-0.04,0.92,0,1.37c0.11,1.12-0.02,2.04-1.9,1.8c-0.56-0.07-0.86,0.18-0.85,0.66c0.01,0.46,0,0.91-0.01,1.37
				c0,0-0.01,0-0.01,0c-0.72,0-1.45,0-2.17-0.01c-1.87,0.01-3.74,0.01-5.61,0.02c-0.2-0.01-0.39-0.03-0.59-0.04l-0.03-0.02
				C44.9,68.61,44.91,68.53,44.89,68.46z"/>
			<path class="st14" d="M36.54,70.72c0.46,0,0.93,0.02,1.39-0.02c1.17-0.11,1.8,0.2,1.63,1.23c-0.12,0.75,0.29,1.09,1.24,0.99
				c0.89-0.09,1.41,0.16,1.27,0.96c-0.14,0.82,0.3,1.17,1.31,1.05c1.1-0.12,1.69,0.16,1.51,1.14c-0.11,0.63,0.26,0.89,1.07,0.88
				c2.06-0.03,4.13-0.02,6.2,0c0.76,0.01,1.22-0.18,1.11-0.85c-0.15-0.92,0.29-1.33,1.46-1.18c1.04,0.13,1.42-0.26,1.3-1.06
				c-0.13-0.8,0.39-1,1.28-0.97c1.24,0.04,2.48,0.02,3.72,0.02c-0.01,0.08,0.02,0.17-0.02,0.25c-0.71,1.39-3.3,1.31-3.65,2.99
				c0,0.02-0.19,0.01-0.3,0.02c-1.2,0.16-1.95,0.58-1.99,1.69c-0.02,0.71-0.46,0.83-1.32,0.48c-0.23-0.09-0.41-0.1-0.55,0.03
				c-0.59,0.51-1.6,1.02-1.53,1.63c0.12,1.13-0.86,1.07-1.38,0.85c-1.73-0.73-3.54-0.29-5.3-0.44c-0.03-0.42-0.06-0.84-0.08-1.25
				c0.34,0.34,0.42,1.12,1.76,0.3c-0.98,0.2-1.01-0.66-1.79-0.32c-0.94,0.01-1.88,0.02-2.82,0.04c0.02-0.02,0.06-0.05,0.05-0.07
				c-0.01-0.05-0.04-0.09-0.06-0.14c0.03-1.93,0.03-1.93-2.34-2.01c-0.05,0-0.1-0.02-0.15-0.03c-0.02-0.08-0.05-0.17-0.07-0.25
				c0.03-1.76,0.03-1.76-2.13-1.76c-1.22,0-2.44,0.03-3.66,0.04c-0.01-0.67-0.02-1.35-0.03-2.02c0.11-0.08,0.22-0.16,0.33-0.24
				c1.98,0.48,2.44,0.24,2.48-1.35c0.01-0.21,0.01-0.41,0.02-0.62L36.54,70.72z"/>
			<path class="st14" d="M56.37,89.54c0.93,0,1.87-0.01,2.8-0.01c1.36,0.34,2.76,0.11,4.13,0.14c0.75,0.02,1.15,0.15,1.12,0.84
				c-0.03,0.64-0.06,1.17-1.12,1.15c-1.91-0.02-3.82-0.06-5.73,0.02c-1.23,0.05-1.73-0.27-1.56-1.26c0.04-0.24,0.02-0.5,0.03-0.75
				c0,0-0.01,0.01-0.01,0.01C56.15,89.64,56.26,89.59,56.37,89.54z"/>
			<path class="st14" d="M61.65,72.82l-0.12,0.07c0,0-0.15,0-0.15,0c-0.01-0.37,0.01-0.74-0.03-1.11c-0.08-0.8,0.37-1.1,1.36-1.08
				c1.64,0.04,3.28,0.01,4.91,0.01c2.14,0,2.14,0,2.07,1.75c-2.19,0-4.38-0.02-6.57,0C62.61,72.46,61.97,72.26,61.65,72.82z"/>
			<path class="st14" d="M69.75,74.94c0.03-0.17,0.06-0.34,0.09-0.51c0.54-0.42-0.4-1.5,1.15-1.52c1.7-0.03,1.84,0.06,1.8,2.06
				l-0.01,0.01c-1.02-0.02-2.03-0.04-3.05-0.06C69.72,74.92,69.75,74.94,69.75,74.94z"/>
			<path class="st14" d="M69.98,85.44c0.93-0.03,1.86-0.05,2.79-0.08c0.01,0.21,0.02,0.41,0.03,0.62c0.03,0.81,0.16,1.51-1.42,1.5
				c-1.5-0.01-1.37-0.67-1.35-1.43C70.03,85.85,70,85.65,69.98,85.44z"/>
			<path class="st14" d="M72.72,85.4c0.04-0.74,0.08-1.48,0.12-2.22c0,0-0.04,0.03-0.04,0.03c0.73,0,1.46-0.01,2.18-0.01
				c0,0-0.06,0.05-0.06,0.05l0.05,0.06C75.87,85.11,75.5,85.46,72.72,85.4z"/>
			<path class="st14" d="M67.21,87.43c0.83,0,1.66,0,2.5,0c0.04,2.34,0.31,2.03-2.48,2.01C67.22,88.77,67.22,88.1,67.21,87.43z"/>
			<path class="st14" d="M72.78,74.97c2.33-0.07,2.33-0.07,2.48,2.04c-0.11-0.02-0.2,0.01-0.28,0.07c-0.63-0.03-1.26-0.05-1.88-0.08
				c-0.5-0.63-0.31-1.34-0.33-2.02L72.78,74.97z"/>
			<path class="st14" d="M36.6,91.44c-0.11,0.01-0.22,0.02-0.32,0.04c-0.94-0.41-1.97-0.51-3.02-0.53
				c-0.56-0.01-0.93,0.09-0.55,0.62c-0.5,0.04-1.01,0.09-1.51,0.13c0-0.42,0-0.85,0-1.27c0.69-0.05,0.71-0.44,0.52-0.81
				c-0.26-0.51-0.83-0.81-1.49-0.64c-1.68,0.44-3.14,0.3-4.36-0.79c0.18-0.32-0.19-0.5-0.31-0.74c0.45-0.69-0.32-0.5-0.62-0.48
				c-1.24,0.08-1.94-0.18-1.86-1.35c0.04-0.54-0.14-1.15-1.28-0.74c-0.78,0.29-1.21-0.09-1.18-0.81c0.04-0.94,0.01-1.89,0.01-2.84
				c1.24,0.02,2.41,0.03,2.19-1.45c-0.11-0.7,0.67-0.63,1.2-0.59c1.2,0.09,1.71-0.31,1.6-1.28c-0.05-0.45-0.06-1.02,0.79-0.93
				c1.7,0.2,1.84-0.6,1.72-1.62c-0.02-0.16,0.02-0.33,0.03-0.49c0.98,0.13,1.97,0.11,2.95,0.02c0.04,0.03,0.08,0.06,0.12,0.09
				c-0.01,0.66-0.02,1.31-0.03,1.97c-0.15,2.1-0.11,4.2-0.01,6.3c-0.08,2.17-0.08,2.17,2.54,2.17l0-0.05
				c-0.02,1.11-0.04,2.21-0.06,3.32c-0.01,0.4,0.08,0.84,0.7,0.74C36.58,89.1,36.6,90.25,36.6,91.44z M30.81,77.21
				c-0.04,0-0.08,0-0.12,0c0,1.81,0,3.61,0,5.42c0.04,0,0.08,0,0.12,0C30.81,80.82,30.81,79.01,30.81,77.21z"/>
			<path class="st14" d="M25.59,47.98c0.01,0.29,0.05,0.58,0.02,0.86c-0.11,0.78,0.08,1.2,1.27,1.16c2-0.06,1.1,1.18,1.21,1.96
				l0.03-0.01c-0.81,0.02-1.62,0.03-2.43,0.05c-0.59,0.27-0.35,0.74-0.36,1.12c-0.03,1.7-0.02,3.4-0.02,5.1c-0.2,0-0.41-0.02-0.6,0
				c-1.33,0.16-2.18-0.1-1.91-1.38c0.05-0.24-0.02-0.49-0.3-0.65c-1-0.26-2.28-0.29-1.85-1.61c0.27-0.82-0.59-1.81,0.6-2.49
				c0.42-0.05,0.84-0.09,1.26-0.14c0.11-0.01,0.21-0.01,0.32-0.02c0.67-1.29,0.13-2.63,0.31-3.94
				C23.95,47.98,24.77,47.98,25.59,47.98z"/>
			<path class="st14" d="M67.21,58.21c0.85,0.02,1.69,0.03,2.54,0.05c0,0.04,0,0.08,0,0.12c-0.07,1.96-0.07,1.96-2.48,2.11
				c-0.04-0.03-0.08-0.06-0.13-0.09c0.03-0.74,0.06-1.48,0.09-2.22L67.21,58.21z"/>
			<path class="st14" d="M64.37,62.4c0.02-0.48,0.03-0.97,0.05-1.45c0.93,0,1.86,0,2.8-0.01C67.24,62.54,67.24,62.54,64.37,62.4z"/>
			<path class="st14" d="M67.21,60.95c-0.93,0-1.86,0-2.8,0.01c0.01-0.17,0.02-0.34,0.03-0.51c0,0-0.03,0.01-0.03,0.01
				c0.91-0.02,1.82-0.04,2.73-0.06c0.04,0.03,0.08,0.06,0.13,0.09C67.25,60.65,67.23,60.8,67.21,60.95z"/>
			<path class="st14" d="M45.49,68.74c1.87-0.01,3.74-0.01,5.61-0.02c0.64,0.26,1.51,0.37,1.21,1.24c-0.27,0.8-1.07,0.45-1.65,0.48
				c-1.02,0.05-2.04,0.01-3.06,0.02C45.49,70.45,45.49,70.45,45.49,68.74z"/>
		</g>
		<path class="st11" d="M45.49,68.74c0.01,1.71,0.01,1.71,2.1,1.71c1.02,0,2.05,0.04,3.06-0.02c0.58-0.03,1.38,0.32,1.65-0.48
			c0.3-0.87-0.57-0.97-1.21-1.24c0.72,0,1.45,0,2.17,0.01c0.03,0.25,0.06,0.5,0.1,0.75c-0.04,0.41-0.07,0.82-0.11,1.23
			c-0.1,0.03-0.2,0.06-0.3,0.09c-2.71-0.03-5.41-0.07-8.12-0.1c0.02-0.67,0.03-1.34,0.05-2C45.1,68.71,45.29,68.73,45.49,68.74z"/>
		<path class="st15" d="M39.51,76.69c0.02,0.08,0.05,0.17,0.07,0.25c-0.14,2.45-0.28,2.06,2.49,2.04c0.02,0.05,0.05,0.09,0.06,0.14
			c0,0.02-0.03,0.05-0.05,0.07c0,0,0.01-0.01,0.01-0.01c-0.92,0.38-1.85,0.35-2.78,0.02c-0.84,0-1.69,0-2.53,0
			c-1.01-0.01-2.03-0.02-3.04-0.03c-0.31-0.74,0.61-1.81-0.94-2.2c0.27-0.01,0.55-0.01,0.82-0.02
			C35.58,76.88,37.58,77.32,39.51,76.69z"/>
		<path class="st2" d="M39.51,76.69c-1.93,0.63-3.93,0.19-5.9,0.26c0.04-0.66,0.08-1.33,0.12-1.99l-0.01,0.02
			c1.22-0.01,2.44-0.04,3.66-0.04C39.54,74.93,39.54,74.93,39.51,76.69z"/>
		<path class="st0" d="M45.01,80.44c-0.05,0.26-0.11,0.51-0.16,0.77c0,0,0.03-0.03,0.03-0.03c-0.92,0-1.85,0-2.77,0.01
			c-0.01-0.67-0.02-1.33-0.03-2c0,0-0.01,0.01-0.01,0.01c0.94-0.01,1.88-0.02,2.82-0.04l0.03,0.03
			C44.95,79.6,44.98,80.02,45.01,80.44z"/>
		<path class="st2" d="M42.06,78.99c-2.76,0.02-2.63,0.4-2.49-2.04c0.05,0.01,0.1,0.03,0.15,0.03C42.1,77.06,42.1,77.06,42.06,78.99
			z"/>
		<path class="st12" d="M44.89,79.16c0.78-0.34,0.82,0.52,1.79,0.32c-1.34,0.82-1.41,0.04-1.76-0.3L44.89,79.16z"/>
		<path class="st5" d="M28.08,51.96c0.11-0.01,0.22-0.01,0.33-0.02c1.74,0.18,3.48,0.07,5.22,0.07c0,0.74,0.01,1.47,0.01,2.21
			c-2.58-0.08-2.58-0.08-2.43,2.01c0,0,0.02-0.01,0.02-0.01c-1,0-2,0.01-3,0.01c-0.05-1.34-0.09-2.68-0.14-4.01
			c0.01-0.09,0.01-0.17,0.02-0.26L28.08,51.96z"/>
		<path class="st5" d="M39.72,58.22c-1.08,0.1-2.17,0.11-3.25,0c0.04-1.11,0.12-2.23,0.1-3.34c-0.02-1.03,0.89-0.7,1.5-0.7
			c0.61,0,1.49-0.3,1.47,0.73C39.52,56,39.34,57.12,39.72,58.22z"/>
		<path class="st4" d="M36.5,58.19c0,0.77-0.01,1.53-0.01,2.3c-1.76-0.19-3.52-0.12-5.29-0.05c0,0,0.03,0.02,0.03,0.02
			c-0.12-0.76-0.13-1.52,0-2.28l-0.04,0.04C32.96,58.28,34.73,58.34,36.5,58.19z"/>
		<path class="st4" d="M28.23,56.22c1,0,2-0.01,3-0.01c-0.2,0.67-0.13,1.34-0.04,2.01c0,0,0.04-0.04,0.04-0.04
			c-0.94,0.01-1.88,0.02-2.83,0.03c-0.07-0.09-0.13-0.19-0.2-0.28C28.21,57.37,28.22,56.79,28.23,56.22z"/>
		<path d="M33.69,51.96c0-0.67,0-1.33,0-2c0.1,0,0.2,0,0.3,0c2.95,0.03,2.43-0.24,2.52,1.98C35.57,51.95,34.63,51.95,33.69,51.96z"
			/>
		<path class="st4" d="M31.21,56.23c-0.15-2.09-0.15-2.09,2.43-2.01C33.74,56.16,33.74,56.16,31.21,56.23z"/>
		<path class="st6" d="M83.73,49.94c0.92,0.01,1.84,0.01,2.76,0.02c0,0.67,0,1.34-0.01,2.01c-0.93,0-1.86,0-2.79,0
			C83.7,51.29,83.72,50.61,83.73,49.94z"/>
		<path class="st15" d="M56.04,87.45c-0.01-0.66-0.01-1.33-0.02-1.99c0.62-0.03,1.25-0.06,1.87-0.09c0.12,0,0.23,0,0.35,0
			c0.18-0.01,0.36-0.01,0.54-0.02c0.87,0.09,1.74,0.13,2.6-0.03c1.01,0.02,2.03,0.03,3.04,0.05c0.31,0,0.63,0,0.94,0
			c0.61,0.01,1.23,0.1,1.82-0.09c0.02,0.06,0.03,0.12,0.03,0.18c0,0.66,0.01,1.33,0.01,1.99C63.51,87.45,59.77,87.45,56.04,87.45z"
			/>
		<path class="st15" d="M61.3,74.95c2.82,0,5.63,0,8.45,0c0,0-0.03-0.02-0.03-0.02c0,0.67,0,1.34,0.01,2.01
			c-0.85,0.04-1.7,0.08-2.55,0.13c-1.93-0.03-3.87-0.21-5.8,0.09c-0.02-0.06-0.03-0.12-0.03-0.19c-0.01-0.68-0.01-1.36-0.02-2.04
			L61.3,74.95z"/>
		<path class="st13" d="M62.12,72.85c0.15-0.11,0.31-0.11,0.46,0C62.42,72.85,62.27,72.85,62.12,72.85z"/>
		<path class="st0" d="M44.85,81.2c2.81,0,5.61-0.01,8.42-0.01l-0.04-0.01c0.04,0.68,0.07,1.35,0.11,2.03l-0.05,0.04
			c-0.92,0.02-1.84,0.04-2.76,0.06c-1.88-0.06-3.76-0.12-5.65-0.18c0.12-0.65,0.14-1.31,0-1.96L44.85,81.2z"/>
		<path class="st2" d="M56.07,79.21c-0.14-0.67-0.14-1.34-0.02-2.02c0.11-0.06,0.22-0.11,0.33-0.17c0.82-0.02,1.64-0.05,2.46-0.07
			c0,0-0.01-0.03-0.01-0.03c0,0.73-0.01,1.46-0.01,2.18c-0.93,0.02-1.86,0.04-2.79,0.07L56.07,79.21z"/>
		<path class="st2" d="M53.27,81.2c0.01-0.04,0.03-0.08,0.04-0.12c0.1-2.08,0.1-2.08,2.77-1.87c0,0-0.04-0.03-0.04-0.03
			c-0.03,0.67-0.06,1.33-0.08,2c-0.91,0-1.81,0.01-2.72,0.01L53.27,81.2z"/>
		<path class="st0" d="M61.33,74.93c0.01,0.68,0.01,1.36,0.02,2.04c-0.84-0.01-1.67-0.02-2.51-0.03c0,0,0.01,0.03,0.01,0.03
			C58.87,74.98,58.87,74.98,61.33,74.93z"/>
		<path class="st3" d="M56.38,77.03c-0.11,0.06-0.22,0.11-0.33,0.17C56.07,77.02,56.16,76.94,56.38,77.03z"/>
		<path class="st5" d="M56.04,54.2c0.93,0,1.86,0,2.8,0.01c0,0.67,0.01,1.35,0.01,2.02c0,0.66-0.01,1.33-0.01,1.99l0.02-0.03
			c-0.94,0.14-1.88,0.12-2.82,0.02C56.03,56.88,56.04,55.54,56.04,54.2z"/>
		<path class="st5" d="M61.34,54.22c0.03-0.73,0.06-1.46,0.09-2.19c1.94-0.03,3.88-0.06,5.82-0.09c-0.02,1.43-0.04,2.85-0.07,4.28
			c-0.92-0.01-1.84-0.02-2.76-0.03C64.2,54,64.2,54,61.31,54.2L61.34,54.22z"/>
		<path class="st4" d="M64.41,56.2c0.92,0.01,1.84,0.02,2.76,0.03c0.01,0.66,0.02,1.32,0.04,1.98c0,0,0.02-0.02,0.02-0.02
			c-0.94,0.12-1.87,0.11-2.81,0c0,0,0.03,0.02,0.03,0.02C64.44,57.54,64.43,56.87,64.41,56.2z"/>
		<path class="st5" d="M58.83,60.47c0.01-0.76,0.01-1.52,0.02-2.27c0,0-0.02,0.03-0.02,0.03c1.87,0,3.75-0.01,5.62-0.01
			c0,0-0.03-0.02-0.03-0.02c0,0.76-0.01,1.52-0.01,2.27c0,0,0.03-0.01,0.03-0.01C62.57,60.46,60.7,60.46,58.83,60.47z"/>
		<path d="M58.83,76.93c0.84,0.01,1.67,0.02,2.51,0.03c0.01,0.06,0.02,0.12,0.03,0.18c-0.08,2.04-0.08,2.04,2.48,2.04
			c0.31,0,0.62,0,0.93,0c2.54,0,2.54,0,2.39-2.13c0.85-0.04,1.7-0.08,2.55-0.13l0.04,0.06c0,0-0.06,0.04-0.06,0.04
			c0.07,2.17,0.07,2.17,2.82,2.14c0.05,0,0.1,0,0.15,0c0.13,0.68,0.13,1.35-0.01,2.03c-0.9,0.05-1.93-0.26-2.69,0.15
			c-0.74,0.4,0.19,1.15-0.18,1.73c-0.05,0.07-0.05,0.16-0.07,0.24c0,0.71-0.01,1.43-0.01,2.14c-0.83-0.13-1.66-0.12-2.5,0
			c0-0.06-0.01-0.12-0.03-0.18c-0.08-5.16,1.14-3.91-4.58-4.08c-0.05,0-0.1,0-0.15,0c-0.78-0.02-1.13,0.29-1.12,0.9
			c0.02,1.07,0.03,2.15,0.04,3.22c-0.86,0.16-1.73,0.12-2.6,0.03c0.16-2.15,0.16-2.15-2.39-2.14c-1.02,0-2.03,0.01-3.05,0.01
			c-0.04-0.68-0.07-1.35-0.11-2.03c0.91,0,1.81-0.01,2.72-0.01c3.28,0,2.9,0.39,2.87-2.06C58.83,78.38,58.83,77.66,58.83,76.93z"/>
		<path class="st10" d="M69.73,83.31c0.02-0.08,0.02-0.17,0.07-0.24c0.36-0.57-0.56-1.33,0.18-1.73c0.76-0.41,1.78-0.1,2.69-0.15
			c0.05,0.67,0.09,1.33,0.14,2c0,0,0.04-0.03,0.04-0.03C71.81,83.22,70.77,83.27,69.73,83.31z"/>
		<path class="st2" d="M69.72,76.93c0-0.67,0-1.34-0.01-2.01c1.02,0.02,2.03,0.04,3.05,0.06c0.02,0.68-0.17,1.39,0.33,2.02
			c-0.1,0.06-0.21,0.13-0.31,0.19c-1-0.36-2.06-0.12-3.09-0.17l0.06-0.04L69.72,76.93z"/>
		<path class="st0" d="M72.79,77.2c0.1-0.06,0.21-0.13,0.31-0.19c0.63,0.03,1.26,0.05,1.88,0.08c0,2.04,0,4.07,0,6.11
			c-0.73,0-1.46,0.01-2.18,0.01c-0.05-0.67-0.09-1.33-0.14-2c0.14-0.68,0.13-1.35,0.01-2.03C72.71,78.51,72.75,77.86,72.79,77.2z"/>
		<path class="st0" d="M21.24,52.08c-0.5-0.02-0.99-0.04-1.49-0.06c-0.01-0.99,0.04-1.99-0.05-2.98c-0.08-0.91,0.41-1.09,1.44-1.11
			c1.12-0.02,1.43,0.32,1.37,1.16c-0.07,0.95-0.02,1.91-0.02,2.86C22.08,51.99,21.66,52.04,21.24,52.08z"/>
		<path class="st11" d="M23.13,47.98c-0.18,1.31,0.36,2.66-0.31,3.94C22.96,50.61,22.41,49.27,23.13,47.98z"/>
		<path class="st0" d="M32.79,76.97c1.56,0.39,0.63,1.47,0.94,2.2c0,0.59,0,1.18,0,1.76c-0.02,0.75-0.04,1.51-0.06,2.26l0.03-0.02
			c-0.83,0.02-1.66,0.05-2.5,0.07c-0.1-2.1-0.14-4.2,0.01-6.3C31.74,76.96,32.26,76.96,32.79,76.97z"/>
		<g>
			<path class="st14" d="M61.44,72.93c-0.05,0.67-0.09,1.35-0.14,2.02l0.03-0.02c-2.45,0.06-2.45,0.06-2.48,2.03
				c-0.82,0.02-1.64,0.05-2.46,0.07c-0.22-0.09-0.31-0.01-0.33,0.17c-0.12,0.67-0.12,1.35,0.02,2.02C53.4,79,53.4,79,53.3,81.08
				c0,0.04-0.02,0.08-0.04,0.12c-2.81,0-5.61,0.01-8.42,0.01c0.05-0.26,0.11-0.51,0.16-0.77c1.76,0.15,3.56-0.29,5.3,0.44
				c0.52,0.22,1.5,0.28,1.38-0.85c-0.07-0.61,0.95-1.12,1.53-1.63c0.14-0.12,0.32-0.12,0.55-0.03c0.86,0.35,1.29,0.23,1.32-0.48
				c0.03-1.12,0.79-1.54,1.99-1.69c0.1-0.01,0.29,0,0.3-0.02c0.35-1.68,2.94-1.6,3.65-2.99c0.04-0.07,0.01-0.16,0.02-0.25
				C61.16,72.93,61.3,72.93,61.44,72.93z"/>
			<path class="st14" d="M19.86,70.7c0.59-0.01,0.8,0.23,0.79,0.69c-0.01,2.81-0.01,5.61-0.01,8.42c0,0.32-0.1,0.57-0.56,0.63
				c-0.08-0.17-0.16-0.34-0.25-0.51c0-2.57,0-5.14,0-7.71c0.21-0.09,0.2-0.19,0-0.28c-0.02-0.35-0.04-0.71-0.07-1.06
				C19.82,70.82,19.85,70.76,19.86,70.7z"/>
			<path class="st14" d="M31.2,60.44c0,0.67-0.01,1.35-0.01,2.02c-0.21-0.01-0.41-0.01-0.62-0.02c-2.38-0.03-2.38-0.03-2.49-1.98
				c0.04-0.04,0.08-0.09,0.13-0.13c1.01,0.04,2.01,0.08,3.02,0.12L31.2,60.44z"/>
			<path class="st14" d="M25.64,58.95c0.7,0.17,2-0.42,2.02,0.45c0.03,1.02-1.32,0.37-2.03,0.56
				C25.64,59.62,25.64,59.29,25.64,58.95z"/>
			<path class="st14" d="M64.45,66.69c-0.04-0.09-0.08-0.17-0.12-0.26c0.03-0.16,0.07-0.32,0.1-0.47c1.82,0.35,3.64,0.37,5.47,0.07
				c0.88-0.14,1.71-0.08,2.31,0.56C69.62,66.62,67.03,66.65,64.45,66.69z"/>
			<path class="st14" d="M77.76,70.7c-0.51,0.02-1.03,0.02-1.54,0.06c-0.61,0.04-1.05-0.06-0.9-0.65c0.31-1.26-0.44-1.61-1.84-1.44
				c-0.08,0.01-0.2-0.13-0.3-0.2c1.73-0.46,3.04-0.29,3.55,1.38C76.84,70.17,77.41,70.42,77.76,70.7z"/>
			<path class="st14" d="M79.94,72.85c-0.62,0.04-1.23,0.07-1.85,0.11c0.05-0.42,0.1-0.83,0.14-1.25
				C78.66,72.22,79.09,72.73,79.94,72.85z"/>
			<path class="st14" d="M34.02,72.71c-0.34-0.65-0.34-1.34-0.34-2.03c0.95,0.02,1.89,0.04,2.84,0.06
				c-0.01,0.21-0.01,0.41-0.02,0.62C36.46,72.95,36,73.19,34.02,72.71z"/>
			<path class="st14" d="M31.19,72.94c0.83,0,1.67,0.01,2.5,0.01c0.01,0.67,0.02,1.35,0.03,2.02c0,0,0.01-0.02,0.01-0.02
				c-0.83,0.01-1.66,0.01-2.49,0.02c-0.04-0.03-0.08-0.06-0.12-0.09C31.15,74.24,31.17,73.59,31.19,72.94z"/>
			<path class="st14" d="M31.21,83.25c0.83-0.02,1.66-0.05,2.5-0.07c0.02,0.75,0.03,1.49,0.05,2.24
				C31.13,85.42,31.13,85.42,31.21,83.25z"/>
			<path class="st14" d="M32.79,76.97c-0.52-0.01-1.05-0.01-1.57-0.02c0.01-0.66,0.02-1.31,0.03-1.97c0.83-0.01,1.66-0.01,2.49-0.02
				c-0.04,0.66-0.08,1.33-0.12,1.99C33.34,76.96,33.06,76.96,32.79,76.97z"/>
		</g>
		<path class="st11" d="M30.81,77.21c0,1.81,0,3.61,0,5.42c-0.04,0-0.08,0-0.12,0c0-1.81,0-3.61,0-5.42
			C30.73,77.21,30.77,77.21,30.81,77.21z"/>
		<path class="st2" d="M52.31,16.62c-0.41,0-0.81,0-1.22,0C51.5,16.18,51.9,16.18,52.31,16.62z"/>
		<path class="st2" d="M49.2,16.62l-0.14,0.05c0,0-0.14-0.05-0.14-0.05C49.01,16.51,49.11,16.51,49.2,16.62z"/>
		<path class="st2" d="M50.48,33.34c0.51,0,1.03,0,1.54,0C51.51,34.07,50.99,33.3,50.48,33.34z"/>
		<path class="st5" d="M42.08,31.22c0-0.41-0.05-0.83,0-1.24c0.09-0.76-0.3-1.08-1.24-0.99c-0.9,0.09-1.3-0.18-1.29-0.96
			c0.05-1.98,0.01-3.97,0.02-5.95c0-0.5-0.02-1.13,0.85-1.09c1.63,0.09,1.74-0.67,1.65-1.64c-0.02-0.21,0-0.41,0-0.62
			c3.32-0.01,6.64-0.02,9.96-0.03c0.44-0.01,0.88-0.01,1.32-0.02c0,0,0.01-0.01,0.01-0.01c-0.27,0.52,0.24,1.03-0.02,1.58
			c-0.17,0.35,0.26,0.48,0.66,0.48c0.67,0,1.33,0,2,0c0.94,0,1.88,0.01,2.82,0.01c0.01,0.08,0,0.16-0.05,0.24
			c-0.4,0.08-0.81,0.27-1.19,0.23c-1.37-0.13-1.62,0.39-1.59,1.37c0.08,2.2,0.03,4.41,0.03,6.61c0,0-0.03,0.03-0.03,0.03
			c-2.4-0.04-2.4-0.04-2.76,2C49.53,31.22,45.8,31.22,42.08,31.22z M50.46,26.98c-1.87,0-3.73,0-5.6,0
			c0.01-1.04-0.01-2.08,0.03-3.12c0.02-0.62-0.23-0.86-1.05-0.92c-1.44-0.11-1.85,0.31-1.81,1.45c0.1,2.63,0.03,2.63,2.84,2.58
			c0.05,2.39-0.36,2.26,2.85,2.24c3.19-0.02,2.69,0.36,2.73-2.24c3.48,0.04,2.74,0.18,2.81-2.2c0.01-0.29-0.03-0.58,0.01-0.87
			c0.11-0.82-0.46-0.98-1.32-0.95c-0.79,0.03-1.59-0.09-1.52,0.91C50.51,24.9,50.46,25.94,50.46,26.98z"/>
		<path class="st11" d="M56.97,29.13c0.48-0.91,1.21-0.13,1.82-0.16c0.04,0.08,0.06,0.16,0.05,0.24
			C58.21,29.19,57.59,29.16,56.97,29.13z"/>
		<path class="st2" d="M39.27,29.26c0.48,0.26,0.2,0.62,0.18,0.95C39.16,29.92,39.29,29.58,39.27,29.26z"/>
		<path class="st8" d="M53.24,31.49c0.05-0.07,0.07-0.15,0.05-0.24c0.09,0,0.18,0.01,0.27,0.03c0.01,0.24,0.08,0.49-0.18,0.68
			C53.34,31.81,53.29,31.65,53.24,31.49z"/>
		<path class="st4" d="M58.85,56.23c0-0.67-0.01-1.35-0.01-2.02c0.83-0.09,1.67-0.11,2.5,0.02c0,0-0.03-0.02-0.03-0.02
			c0.25,1.97,0.25,1.97-2.15,2.01C59.05,56.21,58.95,56.22,58.85,56.23z"/>
		<path class="st2" d="M28.11,51.95c-0.01,0.09-0.01,0.17-0.02,0.26c-2.21,0.07-2.18-0.37-2.17,1.75c0,1.41,0,2.83,0,4.24
			c-0.69-0.46-0.28-1.08-0.3-1.61c-0.05-1.53,0.02-3.06,0.05-4.59C26.49,51.98,27.3,51.97,28.11,51.95z"/>
		<path class="st2" d="M28.4,58.22c0.94-0.01,1.88-0.02,2.83-0.03c-0.13,0.76-0.12,1.52,0,2.28c-1.01-0.04-2.01-0.08-3.02-0.12
			c-0.03-0.72-0.07-1.43-0.1-2.15c0,0-0.03,0.01-0.03,0.01C28.19,58.21,28.3,58.21,28.4,58.22z"/>
		<path class="st0" d="M25.93,58.2c0-1.41,0-2.83,0-4.24c-0.01-2.11-0.04-1.67,2.17-1.75c0.05,1.34,0.09,2.68,0.14,4.01
			c-0.01,0.57-0.02,1.14-0.03,1.71c-0.04,0.09-0.08,0.18-0.12,0.27c0,0,0.03-0.01,0.03-0.01C27.39,58.2,26.66,58.2,25.93,58.2z"/>
		<path class="st2" d="M64.41,60.46c0-0.76,0.01-1.52,0.01-2.27c0.94,0.1,1.87,0.11,2.81,0c-0.03,0.74-0.06,1.48-0.09,2.22
			C66.24,60.42,65.32,60.44,64.41,60.46z"/>
		<path d="M33.67,83.2c0.02-0.75,0.04-1.51,0.06-2.26c2.31,0.56,2.4,0.51,2.87-1.39c0.03-0.12,0.11-0.23,0.17-0.34
			c0.84,0,1.69,0,2.53,0c0.1,1.43,0.65,2.44,2.81,1.98c0.92,0,1.85,0,2.77-0.01c0.14,0.65,0.13,1.31,0,1.96
			c0.01,0.61,0.03,1.22,0.04,1.83c0,0.11,0,0.21,0,0.32c-0.96,0.17-1.91,0.12-2.87,0.04c0.01-0.33,0-0.66,0.03-0.99
			c0.07-0.77-0.27-1.12-1.31-1.15c-1.15-0.03-1.28,0.44-1.2,1.15c0.04,0.33,0.03,0.66,0.04,0.99c-1.05,0.04-2.1,0.08-3.15,0.13
			C36.74,83.36,36.74,83.36,33.67,83.2z"/>
		<path class="st10" d="M53.34,83.21c1.02,0,2.03-0.01,3.05-0.01c2.55,0,2.55,0,2.39,2.14c-0.18,0.01-0.36,0.01-0.54,0.02
			c-0.12-0.1-0.24-0.1-0.35,0c-0.62,0.03-1.25,0.06-1.87,0.09c-0.92-0.05-1.84-0.09-2.76-0.14c0.01-0.69,0.02-1.38,0.03-2.06
			C53.29,83.25,53.34,83.21,53.34,83.21z"/>
		<path class="st16" d="M53.29,83.25c-0.01,0.69-0.02,1.38-0.03,2.06c-0.95,0.11-1.91,0.12-2.86-0.01c0-0.11,0.01-0.23,0.01-0.34
			c0.04-0.55,0.08-1.1,0.12-1.65C51.45,83.3,52.37,83.27,53.29,83.25z"/>
		<path class="st10" d="M39.62,85.33c-0.01-0.33-0.01-0.66-0.04-0.99c-0.08-0.71,0.05-1.19,1.2-1.15c1.04,0.03,1.38,0.38,1.31,1.15
			c-0.03,0.33-0.02,0.66-0.03,0.99C41.24,85.32,40.43,85.33,39.62,85.33z"/>
		<path class="st4" d="M50.41,84.96c0,0.11-0.01,0.23-0.01,0.34c-1.83,0-3.66-0.01-5.48-0.01c0-0.11,0-0.21,0-0.32
			C46.75,84.97,48.58,84.96,50.41,84.96z"/>
		<path class="st10" d="M36.77,79.2c-0.06,0.11-0.14,0.22-0.17,0.34c-0.47,1.9-0.56,1.94-2.87,1.39c0-0.59,0-1.17,0-1.76
			C34.74,79.18,35.76,79.19,36.77,79.2z"/>
		<path class="st10" d="M42.11,81.18c-2.16,0.46-2.71-0.55-2.81-1.98c0.93,0.33,1.86,0.35,2.78-0.02
			C42.09,79.85,42.1,80.52,42.11,81.18z"/>
		<path class="st16" d="M28.08,58.21c0.04-0.09,0.08-0.18,0.12-0.27c0.07,0.09,0.13,0.19,0.2,0.28
			C28.3,58.21,28.19,58.21,28.08,58.21z"/>
		<path class="st10" d="M61.38,85.32c-0.01-1.07-0.02-2.15-0.04-3.22c-0.01-0.61,0.34-0.93,1.12-0.9c0.05,0,0.1,0,0.15,0
			c5.72,0.18,4.5-1.08,4.58,4.08c-0.6,0.19-1.21,0.1-1.82,0.09c-0.31-0.21-0.63-0.21-0.94,0C63.41,85.35,62.4,85.33,61.38,85.32z"/>
		<path class="st16" d="M64.43,85.37c0.32-0.21,0.63-0.21,0.94,0C65.06,85.37,64.74,85.37,64.43,85.37z"/>
		<path class="st16" d="M57.89,85.37c0.12-0.11,0.23-0.1,0.35,0C58.13,85.37,58.01,85.37,57.89,85.37z"/>
		<path class="st10" d="M67.18,77.06c0.15,2.13,0.15,2.13-2.39,2.13c-0.31,0-0.62,0-0.93,0c-2.56,0-2.56,0-2.48-2.04
			C63.3,76.84,65.24,77.02,67.18,77.06z"/>
		<path class="st10" d="M50.41,84.96c-1.83,0-3.66,0-5.49,0c-0.01-0.61-0.03-1.22-0.04-1.83c1.88,0.06,3.76,0.12,5.65,0.18
			C50.49,83.87,50.45,84.41,50.41,84.96z"/>
		<path class="st10" d="M58.82,79.11c0.02,2.45,0.4,2.06-2.87,2.06c0.03-0.67,0.06-1.33,0.08-2C56.96,79.16,57.89,79.14,58.82,79.11
			z"/>
		<path class="st9" d="M58.85,56.23c0.1-0.01,0.2-0.02,0.31-0.02c2.4-0.03,2.4-0.03,2.15-2.01C64.2,54,64.2,54,64.41,56.2
			c0.01,0.67,0.03,1.34,0.04,2.02c-1.87,0-3.75,0.01-5.62,0.01C58.84,57.56,58.84,56.89,58.85,56.23z"/>
		<path class="st10" d="M72.79,77.2c-0.04,0.66-0.08,1.31-0.12,1.97c-0.05,0-0.1,0-0.15,0c-2.75,0.03-2.75,0.03-2.82-2.14
			C70.73,77.08,71.78,76.84,72.79,77.2z"/>
		<g>
			<path class="st5" d="M42.03,16.99c0.02-0.08,0.03-0.17,0.05-0.25c0.1,0,0.21,0,0.31,0c0.46,0.4,1.07,0.23,1.61,0.24
				c3.09,0.02,6.19,0.01,9.28,0.01c0,0.17-0.01,0.33-0.01,0.5c-0.31,0.07-1.07-0.08-0.67,0.41c0.61,0.74-0.52,0.49-0.56,0.81
				c-3.32,0.01-6.64,0.02-9.96,0.03l-0.02-0.01C42.05,18.14,42.04,17.57,42.03,16.99z"/>
			<path class="st5" d="M53.37,18.68c0.68,0.01,1.37,0.01,2.05,0.02c0.18,0.02,0.35,0.04,0.53,0.07c0.02,0.66,0.04,1.32,0.06,1.98
				c-0.67,0-1.33,0-2,0c-0.41,0-0.83-0.13-0.66-0.48C53.61,19.71,53.09,19.19,53.37,18.68z"/>
			<path class="st5" d="M56.01,29.22c-0.02,0.66-0.04,1.32-0.06,1.97c-0.17,0.02-0.35,0.04-0.52,0.07
				c-0.62,0.01-1.24,0.02-1.86,0.03c-0.09-0.02-0.18-0.03-0.27-0.03c0,0-0.05-0.04-0.05-0.04C53.61,29.18,53.61,29.18,56.01,29.22z"
				/>
			<path class="st5" d="M42.39,16.74c0.1-0.04,0.21-0.08,0.31-0.12c2.07,0,4.15,0,6.22,0c0,0,0.14,0.05,0.14,0.05l0.14-0.05
				c0.63,0,1.26,0,1.89,0.01c0.41,0,0.81,0,1.22,0c0.32,0.03,0.64,0.07,0.96,0.1c0,0.09,0.01,0.18,0.01,0.27
				c-3.09,0-6.19,0.01-9.28-0.01C43.45,16.97,42.85,17.14,42.39,16.74z"/>
			<path class="st5" d="M53.27,32.47c0,0.17,0,0.33,0.01,0.5c-3.1,0-6.2,0-9.29,0.01c-0.54,0-1.15-0.17-1.6,0.25
				c-0.1,0.01-0.21,0.01-0.31,0.02c0-0.67,0-1.34,0-2.01l0.02-0.01c3.72,0,7.45,0,11.17,0c0,0,0.05,0.04,0.05,0.04
				c0.02,0.08,0,0.16-0.05,0.24c-0.29,0.24-0.77,0.43-0.72,0.79C52.55,32.54,52.99,32.45,53.27,32.47z"/>
			<path class="st5" d="M42.38,33.22c0.45-0.42,1.06-0.24,1.6-0.25c3.1-0.02,6.2-0.01,9.29-0.01c0,0.09-0.01,0.18-0.01,0.27
				c-0.41,0.03-0.83,0.07-1.24,0.1c-0.51,0-1.03,0-1.54,0C47.78,33.3,45.08,33.26,42.38,33.22z"/>
			<path class="st5" d="M39.58,31.23c-0.05-0.17-0.09-0.34-0.14-0.51c0-0.17,0-0.34,0-0.51c0.02-0.32,0.3-0.68-0.18-0.95
				c-0.9-0.04-1.79-0.08-2.69-0.12c0.02-2.78,0.04-5.57,0.06-8.35c0.67,0,1.34-0.02,2.01,0.01c0.69,0.03,0.98-0.22,0.86-0.73
				c-0.29-1.22,0.48-1.49,1.77-1.34c0.25,0.03,0.51,0,0.77,0c0,0,0.02,0.01,0.02,0.01c0,0.21-0.02,0.41,0,0.62
				c0.1,0.97-0.02,1.73-1.65,1.64c-0.87-0.05-0.85,0.59-0.85,1.09c-0.01,1.98,0.02,3.97-0.02,5.95c-0.02,0.78,0.38,1.05,1.29,0.96
				c0.94-0.1,1.33,0.23,1.24,0.99c-0.05,0.41,0,0.83,0,1.24l-0.02,0.01C41.24,31.23,40.41,31.23,39.58,31.23z"/>
			<path class="st5" d="M56.04,29.2c0-2.2,0.05-4.41-0.03-6.61c-0.04-0.98,0.22-1.5,1.59-1.37c0.38,0.04,0.79-0.15,1.19-0.23
				c0,2.66,0,5.32,0,7.99c-0.61,0.03-1.33-0.75-1.82,0.16C56.66,29.16,56.35,29.18,56.04,29.2z"/>
			<path class="st5" d="M53.35,18.69c-0.44,0.01-0.88,0.01-1.32,0.02c0.04-0.32,1.17-0.07,0.56-0.81c-0.4-0.49,0.36-0.35,0.67-0.41
				C53.3,17.89,53.33,18.29,53.35,18.69z"/>
			<path class="st5" d="M53.24,31.49c0.05,0.16,0.1,0.32,0.15,0.47c-0.04,0.17-0.08,0.33-0.12,0.5c-0.28-0.02-0.72,0.08-0.75-0.19
				C52.47,31.92,52.95,31.73,53.24,31.49z"/>
			<path class="st5" d="M44.86,26.98c1.87,0,3.73,0,5.6,0l-0.01-0.01c-0.04,2.6,0.46,2.22-2.73,2.24
				C44.51,29.24,44.92,29.37,44.86,26.98L44.86,26.98z"/>
			<path class="st5" d="M44.87,26.97c-2.81,0.05-2.74,0.05-2.84-2.58c-0.04-1.15,0.37-1.57,1.81-1.45c0.82,0.06,1.07,0.3,1.05,0.92
				C44.85,24.9,44.87,25.94,44.87,26.97C44.86,26.98,44.87,26.97,44.87,26.97z"/>
			<path class="st5" d="M50.46,26.98c0-1.04,0.05-2.08-0.03-3.12c-0.07-1,0.73-0.88,1.52-0.91c0.86-0.03,1.43,0.12,1.32,0.95
				c-0.04,0.29,0,0.58-0.01,0.87c-0.07,2.38,0.66,2.24-2.82,2.2C50.45,26.97,50.46,26.98,50.46,26.98z"/>
		</g>
		<rect x="33.42" y="12.98" class="st5" width="28.82" height="22.49"/>
		<rect x="33.68" y="51.97" width="5.79" height="2.12"/>
		<rect x="39.3" y="53.95" width="5.6" height="2.38"/>
		<rect x="39.72" y="56.6" width="2.05" height="1.61"/>
	</g>
</g>
<g id="Layer_2" class="st17">
	<path class="st18" d="M-97.28-706.28"/>
	<path class="st19" d="M5.38-586.82c0,0-1.32,2.69-1.7,3.44c0,0-1.34,2.63-4.26,5.96c-15.03,17.17-29.53,16.34-29.53,16.34
		c-14.12-0.81-27-13.61-27.83-26.04c-0.04-0.66-0.66-11.8,5.39-15.91c1.98-1.34,7.21-3.66,7.21-3.66l0,0
		C-45.34-606.7,5.38-586.82,5.38-586.82L5.38-586.82z"/>
	<path class="st19" d="M47.52-587.01c0,0,1.32,2.69,1.7,3.44c0,0,1.34,2.63,4.26,5.96C68.5-560.44,83-561.28,83-561.28
		c14.12-0.81,27-13.61,27.83-26.04c0.04-0.66,0.66-11.8-5.39-15.91c-1.98-1.34-7.21-3.66-7.21-3.66l0,0
		C98.24-606.89,47.52-587.01,47.52-587.01L47.52-587.01z"/>
	<g class="st20">
		<path class="st21" d="M211.74-652.04c-0.5-11.56-0.99-23.12-1.49-34.68c-10.06-1.14-17.45-2.18-19.87-2.59
			c-0.92-0.16-2.4-0.42-3.94-1.36c-3.48-2.13-2.83-3.24-6.25-4.91c-5.4-2.63-7.84-0.28-13.09-2.11c-5.67-1.97-4.44-5.27-11.56-9.36
			c-5.46-3.14-6.93-1.62-12.84-5.1c-3.77-2.22-6.12-4.58-8.89-7.36c-7.12-7.14-6.21-9.42-11.54-13.05c-4.16-2.84-5.68-2.1-8.61-5.19
			c-3.22-3.4-2.32-5.27-5.53-8.2c-2.77-2.53-4.27-1.89-9.05-4.88c-2.9-1.81-4.76-3.55-6.5-5.18c-7.94-7.43-6.45-10.85-12.57-15.69
			c-4.1-3.24-4.96-1.87-11.63-6.31c-6.41-4.27-5.92-5.75-9.85-8.17c-3.5-2.16-5.19-1.78-30.32-1.68c-5.28,0.02-9.05,0.02-12.74,2.5
			c-2.94,1.98-3.4,3.91-6.62,7.07c-3.82,3.76-6.88,4.68-11.49,7.14c-3.45,1.84-13.29,7.09-20.4,16.47
			c-5.49,7.25-8.55,14.5-8.55,14.5c-1.26,3-2.11,5.72-4.7,9c-0.99,1.26-3.3,4.12-7.18,6.3c-4.93,2.77-7.29,1.57-12.95,3.99
			c-1.24,0.53-1.91,0.93-8.34,5.45c-11.2,7.89-13.67,9.84-18.28,11.13c-3.33,0.93-6.25,1.06-8.26,1.01
			c-3.33,0.19-5.53,1.19-6.95,2.09c-2.81,1.8-3.86,4.1-8.73,7.92c-1.03,0.81-1.49,1.12-1.7,1.24c-1.85,1.01-3.72,1.03-7.67,2.48
			c-13.47,4.95-23.16,16.33-23.16,16.33c0.01,4.29-0.08,11.23-0.74,19.83c-0.84,10.95-1.78,13.9,0.39,16.63
			c0.9,1.13,3.74,4.01,24.06,2.4c8.21-0.65,14.97-1.69,19.66-2.54c7.21-0.89,11.41-3.45,13.95-5.71c2.78-2.48,3.03-4.14,6.39-6.04
			c2.75-1.56,4.88-1.75,8.77-4.33c2.13-1.42,1.67-1.48,2.81-2.04c3.36-1.67,5.35-0.15,11.87-0.26c2.62-0.04,2.79-0.3,6.77-0.38
			c3.38-0.07,5.1-0.1,6.13,0.38c3.18,1.48,2.61,4.73,5.49,7.15c2.37,1.99,5.19,1.85,9.83,1.79c5.7-0.07,11.42,0.69,17.11,0.26
			c11.72-0.89,11.08,0.73,47.87,1.15c21.97,0.25,14.08-0.42,20.68-0.13c13.14,0.58,19.96,2.16,24.9-2.29
			c2.11-1.9,6.38-7.16,6.38-7.16c0,0,24.64,0,24.64,0c0,0,8.81,7.79,8.81,7.79c0,0,7.66,7.02,7.66,7.02c0,0,54.89,0,54.89,0
			C188.81-639.74,197.78-644.55,211.74-652.04z"/>
		<path class="st22" d="M-82.18-642.64c0.96,2.74,2.73,6.8,6.03,10.92c2.64,3.28,5.18,5.32,6.98,6.64
			c9.22,6.79,17.35,11.89,23.46,15.48c28.65,16.83,39.39,16.02,62.33,25.88c2,0.86,6.94,3.04,13.27,2.44
			c3.51-0.33,6.31-1.37,8.19-2.26c10.21-2.91,21.38-6.72,33.18-11.76c19.68-8.41,36.01-18.08,49.02-27.06
			c2.1-1.45,5.39-4.18,8.61-8.48c2.66-3.55,4.19-6.85,5.03-8.9c-5.7-11.9-12.8-14.45-15.34-15.13c-1.02-0.27-4.31-0.35-10.89-0.51
			c-13.18-0.32-14.51,0.14-15.68,1.16c-3.83,3.33-3.4,10.4-6.35,10.63c-0.29,0.02-0.51-0.03-0.61-0.05
			c-6.26-1.28-119.26-1.62-119.29-1.62l0,0c0,0-1.89-5.97-3.94-8.43c-5.18-6.19-21.2-1.73-29.79,2.05
			C-74.62-648.72-79.37-645.07-82.18-642.64z"/>
	</g>
</g>
</svg>
