<?xml version="1.0" encoding="UTF-8" standalone="no"?>
<svg
   xmlns:dc="http://purl.org/dc/elements/1.1/"
   xmlns:cc="http://creativecommons.org/ns#"
   xmlns:rdf="http://www.w3.org/1999/02/22-rdf-syntax-ns#"
   xmlns:svg="http://www.w3.org/2000/svg"
   xmlns="http://www.w3.org/2000/svg"
   xmlns:xlink="http://www.w3.org/1999/xlink"
   xmlns:sodipodi="http://sodipodi.sourceforge.net/DTD/sodipodi-0.dtd"
   xmlns:inkscape="http://www.inkscape.org/namespaces/inkscape"
   height="1000"
   width="1000"
   inkscape:version="1.0 (4035a4fb49, 2020-05-01)"
   sodipodi:docname="chai.svg"
   xml:space="preserve"
   viewBox="0 0 1000 1000"
   y="0px"
   x="0px"
   id="Layer_1"
   version="1.1"><metadata
   id="metadata111"><rdf:RDF><cc:Work
       rdf:about=""><dc:format>image/svg+xml</dc:format><dc:type
         rdf:resource="http://purl.org/dc/dcmitype/StillImage" /><dc:title></dc:title></cc:Work></rdf:RDF></metadata><defs
   id="defs109" /><sodipodi:namedview
   inkscape:current-layer="Layer_1"
   inkscape:window-maximized="1"
   inkscape:window-y="-9"
   inkscape:window-x="-9"
   inkscape:cy="439.55115"
   inkscape:cx="103.26702"
   inkscape:zoom="0.51875"
   showgrid="false"
   id="namedview107"
   inkscape:window-height="1001"
   inkscape:window-width="1920"
   inkscape:pageshadow="2"
   inkscape:pageopacity="0"
   guidetolerance="10"
   gridtolerance="10"
   objecttolerance="10"
   borderopacity="1"
   bordercolor="#666666"
   pagecolor="#ffffff" />
<style
   id="style2"
   type="text/css">
	.st0{fill:#FFFFFF;}
	.st1{fill:#EC8626;}
	.st2{fill:none;stroke:#000000;stroke-width:0.5;stroke-miterlimit:10;}
	.st3{fill:none;stroke:#000000;stroke-width:0.25;stroke-miterlimit:10;}
	.st4{fill:#110E0F;}
	.st5{fill:#CCCCCC;}
	.st6{clip-path:url(#SVGID_2_);fill:#110E0F;}
	.st7{fill:none;stroke:#000000;stroke-width:0.75;stroke-miterlimit:10;}
	.st8{clip-path:url(#SVGID_4_);fill:#FFFFFF;stroke:#FFFFFF;stroke-width:0.75;stroke-miterlimit:10;}
</style>





<g
   transform="matrix(9.9016815,0,0,9.9016815,-50.18864,18.57844)"
   id="g1128"><path
     class="st0"
     d="m 67.92,93.23 c -0.21,1.8 -2.1,3.14 -4.04,3.13 -3.15,0.51 -6.95,0.9 -11.28,0.88 -4.51,-0.02 -8.46,-0.47 -11.7,-1.04 -0.38,0.02 -1.21,0.02 -2.03,-0.44 -1,-0.56 -1.62,-1.6 -1.75,-2.88 L 30.17,30.57 c 5.75,-1 11.14,-1.93 15.09,-2.16 3.3,-0.19 6.19,-0.22 8.53,-0.19 3.04,0.03 8.1,0.11 14.14,0.95 1.82,0.25 7.18,1.4 7.18,1.4 -0.36,-0.08 -0.31,1.17 -0.7,4.43 -0.99,6.6 -5.01,45.39 -6.49,58.23 z"
     id="path4" /><path
     class="st0"
     d="m 90.43,91.27 -2.89,2.89 c -2.14,2.14 -5.6,2.14 -7.74,0 L 21.18,35.56 c -2.14,-2.14 -2.14,-5.6 0,-7.74 l 2.89,-2.89 c 2.14,-2.14 5.6,-2.14 7.74,0 l 58.61,58.61 c 2.14,2.13 2.14,5.6 0.01,7.73 z"
     id="path6" /><g
     id="g64">
	<path
   class="st1"
   d="m 63.6,94.68 -20.23,0.34 c -1.92,0.03 -3.55,-1.27 -3.76,-3 L 35.66,55.53 c 0.73,-0.19 1.45,-0.36 2.75,-0.63 8.97,-1.83 19.62,-0.93 19.62,-0.93 3.25,0.26 5.25,0.62 6.56,0.89 2.21,0.46 4.05,1.01 5.39,1.47 -1.2,11.65 -3.74,36.37 -3.74,36.37 v 0 c 0,0 -0.35,0.26 -2.64,1.98 z"
   id="path8" />
	<path
   class="st2"
   d="m 64.89,94.07 c -3.07,0.6 -6.66,1.08 -10.68,1.18 -4.93,0.13 -9.27,-0.33 -12.85,-0.96 -0.25,-0.09 -0.76,-0.31 -1.22,-0.85 -0.51,-0.6 -0.66,-1.24 -0.72,-1.52 l -6.1,-61.28 c 5.27,1.08 11.69,1.94 18.99,1.99 7.83,0.05 14.67,-0.85 20.21,-1.99 -2.03,20.4 -4.06,40.8 -6.09,61.21 -0.06,0.32 -0.23,0.98 -0.74,1.58 -0.29,0.32 -0.58,0.52 -0.8,0.64 z"
   id="path10" />
	<path
   class="st3"
   d="M 33.08,30.18 C 38.52,29.16 45,28.37 52.3,28.32 c 7.95,-0.06 14.95,0.77 20.74,1.86"
   id="path12" />
	<polygon
   class="st4"
   points="57.42,58.34 57.62,57.44 57.66,54.38 57.7,51.31 58,51.31 58.3,51.31 58.3,52.44 58.3,53.58 58.8,53.58 59.3,53.58 59.11,52.54 58.93,51.5 59.94,50.42 60.94,49.34 62.15,49.79 63.36,50.24 63.36,50.44 63.36,50.64 62.86,50.42 62.37,50.21 61.34,50.61 60.32,51.01 60.14,51.84 59.95,52.67 60.09,53.59 60.24,54.52 59.97,55.28 59.7,56.03 59.68,55.54 59.65,55.04 59.31,55.28 58.98,55.51 58.94,54.64 58.9,53.77 58.73,54.52 58.57,55.28 58.3,55.65 58.03,56.03 57.92,57.54 57.8,59.05 58.98,58.98 60.16,58.9 63.02,58.67 65.88,58.43 66.39,58.21 66.89,57.99 67.15,58.05 67.41,58.11 68.64,57.54 69.88,56.96 69.51,56.55 69.14,56.14 68.16,56.05 67.17,55.96 66.84,55.73 66.5,55.5 64.18,55.23 61.86,54.97 62.55,54.62 63.24,54.28 65.15,54.83 67.06,55.39 67.07,54.96 67.07,54.52 67.32,54.95 67.57,55.38 68.95,55.84 70.32,56.3 70.34,57.87 70.35,59.43 70.14,58.43 69.93,57.43 68.34,58.29 66.76,59.15 66.6,58.97 66.43,58.79 64.14,59.2 61.84,59.61 59.76,59.7 57.68,59.79 57.53,60.93 57.37,62.07 57.52,62.25 57.67,62.43 57.94,61.94 58.21,61.45 58.42,63.24 58.64,65.02 59.03,65.54 59.42,66.06 59.05,66.9 58.68,67.74 58.18,70.76 57.68,73.78 57.45,77.69 57.22,81.6 56.95,82.6 56.68,83.6 56.61,82.09 56.54,80.58 56.31,79.44 56.08,78.31 55.86,80.05 55.64,81.79 55.81,83.26 55.99,84.73 55.59,84.02 55.19,83.3 55.43,79.3 55.67,75.29 55.94,74.91 56.22,74.53 56.59,69.44 56.97,64.34 57.14,62 57.31,59.66 51.88,59.54 46.45,59.43 46.37,59.62 46.3,59.81 46.57,64.91 46.85,70 46.84,71.14 46.82,72.27 46.8,74.35 46.77,76.42 47.27,79.07 47.77,81.71 47.92,79.44 48.07,77.18 48.13,81.03 48.2,84.87 48.54,85.11 48.87,85.34 48.87,86.26 48.87,87.18 48.61,87.18 48.35,87.18 47.9,85.51 47.46,83.84 46.99,84.04 46.51,84.24 46.48,81.28 46.45,78.31 46.2,79.25 45.96,80.2 45.7,69.82 45.44,59.43 45.05,59.15 44.66,58.88 45.13,58.87 45.59,58.86 45.38,57.07 45.17,55.28 45.46,53.3 45.74,51.33 45.12,50.69 44.49,50.06 44.49,50.37 44.49,50.67 43.9,50.11 43.31,49.55 41.8,48.69 40.28,47.83 38.49,48.03 36.7,48.24 36.22,48.69 35.74,49.14 35.74,50.23 35.74,51.31 35.92,51.31 36.11,51.31 37.1,50.74 38.09,50.16 38.09,49.79 38.09,49.42 38.94,49.42 39.78,49.42 39.78,49.8 39.78,50.18 40.54,50.21 41.29,50.24 40.87,50.43 40.46,50.62 40.8,51.34 41.15,52.07 41.87,52.07 42.58,52.07 42.33,52.35 42.08,52.63 40.52,52.63 38.97,52.63 38.73,53.9 38.5,55.16 38.77,56.35 39.05,57.54 39.28,65.28 39.51,73.02 39.77,73.21 40.03,73.4 40.24,77.56 40.45,81.71 40.77,84.35 41.1,87 41.11,87.28 41.13,87.56 41.5,87.56 41.87,87.56 41.67,86.15 41.47,84.73 41.82,85.66 42.17,86.59 42.31,86.75 42.46,86.91 42.98,86.43 43.5,85.95 43.27,86.61 43.04,87.27 43.85,87 44.66,86.74 43.9,87.36 43.15,87.98 43.15,88.34 43.15,88.7 43.46,88.7 43.77,88.7 44.28,88.13 44.78,87.56 44.97,87.56 45.16,87.56 45.08,88.4 45,89.25 45.67,89.31 46.35,89.38 48.37,89.62 50.39,89.86 51.23,90.02 52.07,90.18 54.7,90.28 57.33,90.37 57.62,90.76 57.91,91.15 53.81,90.9 49.72,90.65 48.12,90.38 46.52,90.1 46.52,90.5 46.52,90.9 46.3,91.53 46.08,92.16 46.72,92.05 47.36,91.94 48.27,92.21 49.19,92.48 48.99,93.04 48.8,93.6 49.34,93.6 49.88,93.6 49.8,93.13 49.72,92.66 51.4,92.64 53.09,92.63 53.51,92.33 53.94,92.04 53.7,91.6 53.46,91.15 53.96,91.6 54.45,92.05 56.63,91.93 58.81,91.8 60.3,91.35 61.79,90.9 63.21,91.13 64.62,91.37 64.82,90.79 65.02,90.21 65.4,90.21 65.77,90.21 65.66,90.54 65.55,90.88 64.08,92.24 62.62,93.6 63.12,93.6 63.61,93.6 64.03,93.04 64.45,92.47 64.75,92.47 65.04,92.47 65.04,92.94 65.04,93.42 62.43,94.31 59.82,95.2 56.62,95.52 53.42,95.84 52.24,95.8 51.06,95.76 49.04,95.43 47.02,95.1 45.29,94.76 43.56,94.42 42.09,93.59 40.62,92.76 39.9,92.34 39.17,91.92 38.97,89.84 38.77,87.75 38.26,81.33 37.76,74.91 37.43,71.51 37.1,68.11 36.41,62.07 35.71,56.03 35.21,50.78 34.7,45.54 34.85,45.12 35.01,44.7 35.03,46.16 35.06,47.62 35.82,47.36 36.58,47.11 37.85,46.75 39.12,46.39 40.04,46.64 40.96,46.9 42.13,47.59 43.3,48.29 43.9,48.29 44.49,48.29 44.49,48.62 44.49,48.94 45.22,49.98 45.95,51.02 47.23,49.42 48.5,47.82 50.01,47.63 51.52,47.44 53.1,47.71 54.68,47.97 54.34,48.36 54,48.74 53.26,48.3 52.53,47.86 51.21,48.1 49.9,48.35 49.01,49.14 48.13,49.92 47.15,51.43 46.18,52.94 46.18,55.9 46.18,58.86 46.65,58.86 47.11,58.86 47.34,57.51 47.57,56.16 47.37,55.15 47.18,54.14 47.84,52.94 48.5,51.73 49.34,51.11 50.18,50.5 50.75,50.85 51.31,51.21 50.47,51.44 49.62,51.68 48.87,53.09 48.13,54.51 48.04,55.08 47.94,55.65 47.71,57.21 47.48,58.76 48.77,58.99 50.05,59.23 53.64,59.24 57.22,59.24 "
   id="polygon14" />
	<polygon
   class="st4"
   points="43.19,90.32 43.85,90.32 43.85,89.95 43.85,89.57 42.99,89.57 42.12,89.57 42.33,89.95 42.54,90.32 "
   id="polygon16" />
	<polygon
   class="st4"
   points="39.75,90.79 39.38,91.05 40.17,91.51 40.96,91.97 41.71,91.94 42.47,91.9 42.36,91.53 42.24,91.15 41.6,91.13 40.96,91.12 40.53,90.83 40.11,90.54 "
   id="polygon18" />
	<polygon
   class="st4"
   points="41.29,91.72 41.12,91.72 41.12,91.53 41.12,91.34 41.29,91.34 41.46,91.34 41.46,91.53 41.46,91.72 "
   id="polygon20" />
	<polygon
   class="st4"
   points="45,90.58 45.5,90.58 45.5,90.21 45.5,89.83 45,89.83 44.49,89.83 44.49,90.21 44.49,90.58 "
   id="polygon22" />
	<polygon
   class="st4"
   points="37.23,57.97 37.43,59.43 37.11,58.67 36.79,57.92 36.77,58.81 36.75,59.7 37.43,66.17 38.11,72.65 38.5,74.53 38.89,76.42 38.84,80.35 38.78,84.28 39.12,86.91 39.45,89.54 39.66,89.92 39.87,90.3 40.2,89.64 40.53,88.98 40.32,87.05 40.11,85.11 39.8,79.49 39.5,73.86 39.09,73.58 38.67,73.29 38.85,72.24 39.03,71.19 38.7,67.39 38.38,63.58 38.15,60.22 37.92,56.85 37.48,56.68 37.04,56.52 "
   id="polygon24" />
	<polygon
   class="st4"
   points="56.82,88.81 56.65,88.81 56.65,88.63 56.65,88.44 56.82,88.44 56.98,88.44 56.98,88.63 56.98,88.81 "
   id="polygon26" />
	<polygon
   class="st4"
   points="57.45,88.44 57.28,88.44 57.49,88.06 57.7,87.68 57.87,87.68 58.03,87.68 57.83,88.06 57.62,88.44 "
   id="polygon28" />
	<polygon
   class="st4"
   points="56.35,85.48 56.36,84.35 56.52,85.02 56.67,85.69 56.5,86.15 56.34,86.62 "
   id="polygon30" />
	<polygon
   class="st4"
   points="41.15,82.81 41.18,82.09 41.35,82.58 41.53,83.08 41.33,83.31 41.12,83.53 "
   id="polygon32" />
	<polygon
   class="st4"
   points="46.01,81.52 45.84,81.52 45.84,81.33 45.84,81.14 46.01,81.14 46.18,81.14 46.18,81.33 46.18,81.52 "
   id="polygon34" />
	<polygon
   class="st4"
   points="48.2,76.61 47.87,77.18 47.87,75.36 47.86,73.55 48.2,73.78 48.54,74.01 48.53,75.03 48.53,76.04 "
   id="polygon36" />
	<polygon
   class="st4"
   points="41.97,58.49 41.8,58.49 41.8,58.3 41.8,58.11 41.97,58.11 42.14,58.11 42.14,58.3 42.14,58.49 "
   id="polygon38" />
	<polygon
   class="st4"
   points="40.96,58.11 40.79,58.11 40.79,57.92 40.79,57.73 40.96,57.73 41.12,57.73 41.12,57.92 41.12,58.11 "
   id="polygon40" />
	<polygon
   class="st4"
   points="59.7,56.98 59.7,56.03 59.87,56.5 60.04,56.98 59.87,57.45 59.7,57.92 "
   id="polygon42" />
	<polygon
   class="st4"
   points="55.53,54.08 55.95,53.89 56.37,54.08 56.79,54.27 55.95,54.27 55.1,54.27 "
   id="polygon44" />
	<polygon
   class="st4"
   points="61.25,54.08 61.67,53.89 62.09,54.08 62.51,54.27 61.67,54.27 60.83,54.27 "
   id="polygon46" />
	<polygon
   class="st4"
   points="57.46,50.93 57.29,50.93 57.29,50.75 57.29,50.56 57.46,50.56 57.63,50.56 57.63,50.75 57.63,50.93 "
   id="polygon48" />
	<polygon
   class="st4"
   points="58.66,50.48 58.32,51.12 58.31,50.34 58.3,49.56 59.06,48.78 59.82,48 60.66,47.73 61.5,47.46 60.25,48.65 58.99,49.85 "
   id="polygon50" />
	<polygon
   class="st4"
   points="56.96,49.8 56.96,49.3 57.18,49.55 57.41,49.8 57.18,50.05 56.96,50.3 "
   id="polygon52" />
	<polygon
   class="st4"
   points="56.37,49.18 56.11,49.36 55.46,48.82 54.81,48.29 55.52,48.29 56.24,48.29 56.44,48.64 56.63,48.99 "
   id="polygon54" />
	<polygon
   class="st4"
   points="63.06,48.28 62.85,48.26 62.42,47.71 61.98,47.16 63.05,47.16 64.11,47.16 63.69,47.72 63.27,48.29 "
   id="polygon56" />
	<polygon
   class="st4"
   points="64.82,47.66 65.04,47.41 65.27,47.66 65.49,47.91 65.04,47.91 64.59,47.91 "
   id="polygon58" />
	<polygon
   class="st4"
   points="34.62,44.38 34.46,44.56 34.22,41.49 33.98,38.43 34.14,38.25 34.3,38.07 34.54,41.14 34.78,44.21 "
   id="polygon60" />
	<path
   class="st4"
   d="M 46.45,47.46"
   id="path62" />
</g><g
     id="g93">
	<g
   id="g81">
		<g
   id="g70">
			<path
   class="st1"
   d="M 89.83,87.39 30.32,27.43 c -0.48,-0.48 -1.3,-0.46 -1.84,0.05 l -4.45,4.25 c -0.54,0.51 -0.58,1.32 -0.1,1.8 l 59.52,59.96 c 0.4,0.41 1.06,0.47 1.59,0.14 0.87,-0.54 1.89,-1.29 2.92,-2.3 0.84,-0.83 1.49,-1.65 1.99,-2.38 0.34,-0.51 0.29,-1.15 -0.12,-1.56 z"
   id="path66" />
			<path
   class="st5"
   d="M 73.66,71.18 30.06,27.25 C 29.71,26.9 28.99,27.02 28.45,27.54 L 24,31.78 c -0.54,0.51 -0.69,1.21 -0.34,1.57 l 43.6,43.93 c 0.29,0.3 0.86,0.27 1.36,-0.08 0.83,-0.58 1.82,-1.36 2.85,-2.36 0.85,-0.84 1.53,-1.64 2.06,-2.33 0.38,-0.49 0.43,-1.04 0.13,-1.33 z"
   id="path68" />
		</g>
		<g
   id="g79">
			<defs
   id="defs73">
				<polygon
   id="SVGID_3_"
   points="25.97,44.83 18.22,33.67 30.33,25.11 38.08,36.26 " />
			</defs>
			<clipPath
   id="SVGID_2_">
				<use
   height="100%"
   width="100%"
   y="0"
   x="0"
   xlink:href="#SVGID_3_"
   style="overflow:visible"
   id="use75" />
			</clipPath>
			<path
   id="path849"
   class="st6"
   d="m -10.57,105.96 -0.78,-1.21 -1.07,-2.25 -1.07,-2.25 -0.86,-1.97 -0.86,-1.97 -0.2,-2.05 -0.2,-2.05 -0.09,-1.01 -0.09,-1.01 1.93,-1.67 1.93,-1.67 6.02,-5.01 6.02,-5.01 3.15,-2.71 3.15,-2.71 5.51,-4.94 5.51,-4.94 4.86,-4.19 4.86,-4.19 0.52,-0.14 0.52,-0.14 -1.43,1.05 -1.43,1.05 0.78,0.58 0.78,0.58 1.24,1.02 1.24,1.02 0.39,1.09 0.39,1.09 0.12,1.66 0.12,1.66 0.41,0.59 0.41,0.59 -0.32,0.23 -0.32,0.23 -0.52,1.46 -0.52,1.46 2.47,0.15 2.47,0.15 1.24,1.37 1.24,1.37 0.83,1.76 0.83,1.76 -0.62,-0.07 -0.62,-0.07 -0.07,-1.04 -0.07,-1.04 -1.16,-1.14 -1.16,-1.14 -1.39,-0.34 -1.39,-0.34 -2.17,0.09 -2.17,0.09 -2.94,2.08 -2.94,2.08 0.32,0.47 0.32,0.47 1.5,-0.72 1.5,-0.72 0.87,-0.9 0.87,-0.9 1.66,-0.19 1.66,-0.19 1.2,0.41 1.2,0.41 0.04,0.81 0.04,0.81 -0.83,-0.68 -0.83,-0.68 -1.92,0.25 -1.92,0.25 -0.64,0.31 -0.64,0.31 -1.7,0.86 -1.7,0.86 0.66,1.45 0.66,1.45 2.48,3.58 2.48,3.58 1.03,-0.43 1.03,-0.43 3.07,-2.11 3.07,-2.11 0.21,0.3 0.21,0.3 -1.12,0.79 -1.12,0.79 0.34,0.5 0.34,0.5 0.9,-0.91 0.9,-0.91 1.77,0.25 1.77,0.25 0.39,1.52 0.39,1.52 -0.2,0.14 -0.2,0.14 -0.13,-0.64 -0.13,-0.64 -1.11,-0.74 -1.11,-0.74 -0.95,0.4 -0.95,0.4 -0.82,0.79 -0.82,0.79 -0.94,0.26 -0.94,0.26 0.47,-0.37 0.47,-0.37 -0.47,-0.17 -0.47,-0.17 0.84,-0.65 0.84,-0.65 -0.86,0.36 -0.86,0.36 h -0.56 -0.56 l -1.58,0.95 -1.58,0.95 0.89,1.12 0.89,1.12 2.22,2.69 2.22,2.69 0.57,0.35 0.57,0.35 0.12,0.3 0.12,0.3 1.43,0.83 1.43,0.83 0.15,-0.65 0.15,-0.65 -0.6,-1.05 -0.6,-1.05 v -0.5 -0.5 l -1.35,-2.51 -1.35,-2.51 0.82,0.45 0.82,0.45 0.77,2.3 0.77,2.3 0.44,-0.3 0.44,-0.3 -0.26,0.55 -0.26,0.55 0.5,1.7 0.5,1.7 -1.54,1.11 -1.54,1.11 0.84,-0.91 0.84,-0.91 -1.95,-0.98 -1.95,-0.98 0.07,-0.29 0.07,-0.29 -2,-2 -2,-2 -1.53,-2.01 -1.53,-2.01 -1.24,0.64 -1.24,0.64 -0.07,0.27 -0.07,0.27 0.67,-0.07 0.67,-0.07 -1.62,1.47 -1.62,1.47 -0.25,0.75 -0.25,0.75 -1.08,0.22 -1.08,0.22 -3.35,1.62 -3.35,1.62 -4.04,2.51 -4.04,2.51 -1.18,0.43 -1.18,0.43 1.45,-1.13 1.45,-1.13 0.97,-1.02 0.97,-1.02 -1.88,1 -1.88,1 -1.34,1.21 -1.34,1.21 0.43,-0.9 0.43,-0.9 4.14,-2.57 4.14,-2.57 0.57,0.01 h 0.58 l 5.32,-3.2 5.32,-3.2 2.44,-1.47 2.44,-1.47 -3.66,-5.5 -3.66,-5.5 -0.24,0.06 -0.24,0.06 -4.87,3.85 -4.87,3.85 -1.13,0.78 -1.13,0.78 -2.08,1.43 -2.07,1.43 -2.28,2.35 -2.28,2.35 2.35,-1.44 2.35,-1.44 -3.78,2.76 -3.78,2.76 v 0.5 0.5 l -0.91,0.65 -0.91,0.65 -0.18,-0.26 -0.18,-0.26 1.36,-1.62 1.36,-1.62 -0.53,-0.33 -0.53,-0.33 2.92,-2.12 2.92,-2.12 -1.11,0.42 -1.11,0.42 10.13,-7.55 10.13,-7.55 0.01,-0.58 0.01,-0.58 0.33,0.46 0.33,0.46 1.64,-1.47 1.64,-1.47 2.16,-1.1 2.16,-1.1 0.19,-1.06 0.19,-1.06 -0.3,0.21 -0.3,0.21 0.15,-0.98 0.15,-0.98 -0.2,-2.12 -0.2,-2.12 -1.45,-1.64 -1.45,-1.64 -0.78,-0.17 -0.78,-0.17 -1.08,0.76 -1.08,0.76 0.13,0.18 0.13,0.18 1.26,0.59 1.26,0.59 0.37,-0.26 0.37,-0.26 0.58,0.84 0.58,0.84 -0.37,0.26 -0.37,0.26 0.5,0.78 0.5,0.78 -0.48,-0.28 -0.48,-0.28 -0.48,0.85 -0.48,0.85 0.5,0.72 0.5,0.72 -0.46,-0.05 -0.46,-0.05 -1.08,-1.55 -1.08,-1.55 -1.41,0.66 -1.41,0.66 -0.99,1.11 -0.99,1.11 -7.52,5.66 -7.57,5.66 v 0.4 0.4 l -3.98,3.12 -3.98,3.12 -2.4,2.18 -2.4,2.18 -0.27,0.21 -0.27,0.21 0.26,0.37 0.26,0.37 1.27,-1.19 1.27,-1.19 -0.68,1 -0.68,1 -0.06,0.26 -0.06,0.26 0.84,0.18 0.84,0.18 -0.82,0.24 -0.82,0.24 0.83,0.62 0.83,0.62 -1.14,-0.32 -1.14,-0.32 -0.35,0.25 -0.35,0.25 0.22,0.31 0.22,0.31 0.91,0.11 0.91,0.11 0.13,0.19 0.13,0.19 -0.89,0.51 -0.89,0.51 0.4,0.72 0.4,0.72 1.17,2.19 1.17,2.19 0.42,0.96 0.42,0.96 1.73,2.69 1.73,2.69 -0.19,0.56 -0.19,0.56 -2.6,-4.27 -2.6,-4.27 -0.84,-1.79 -0.84,-1.79 -0.4,0.28 -0.4,0.28 -0.77,0.23 -0.77,0.23 0.55,0.56 0.55,0.56 0.37,1.1 0.37,1.1 -0.69,0.2 -0.69,0.2 0.38,0.54 0.38,0.54 0.41,-0.42 0.41,-0.42 1.19,1.67 1.19,1.67 0.58,0.22 0.58,0.22 0.28,-0.55 0.28,-0.55 -0.1,0.81 -0.1,0.81 1.63,2.09 1.63,2.09 1.49,1.17 1.49,1.17 0.75,1.58 0.75,1.58 0.67,-0.22 0.72,-0.21 0.26,0.37 0.26,0.38 -0.41,0.12 -0.41,0.12 -2.37,-0.5 -2.37,-0.5 0.34,0.5 0.34,0.5 0.85,0.02 0.85,0.02 0.21,0.3 0.21,0.3 -0.47,0.33 -0.47,0.33 -2.69,-1.98 -2.69,-1.98 -2.54,-2.97 -2.54,-2.97 z m 0.84,-1.07 0.45,0.65 0.37,-0.26 0.37,-0.26 -0.6,-0.86 -0.6,-0.86 -0.23,0.47 -0.23,0.47 z m -4.31,-12.16 0.56,0.73 0.3,-0.38 0.3,-0.38 -0.43,-0.65 -0.43,-0.65 v -0.62 -0.62 l -0.51,-0.19 -0.51,-0.19 0.09,1.11 0.07,1.11 z m -0.07,-0.57 -0.12,-0.17 0.19,-0.13 0.19,-0.13 0.12,0.17 0.12,0.17 -0.19,0.13 -0.19,0.13 z m 3.69,2.9 0.35,0.5 0.37,-0.26 0.37,-0.26 -0.35,-0.5 -0.35,-0.5 -0.37,0.26 -0.37,0.26 z m -2.39,-5.45 0.88,-0.13 1.78,-1.57 1.78,-1.57 5.37,-4.25 5.37,-4.25 v -0.61 -0.61 l 1.17,-0.56 1.17,-0.56 3.55,-3 3.55,-3 3.19,-2.59 3.19,-2.59 -0.14,-0.56 -0.14,-0.56 -1.31,1.22 -1.31,1.22 0.53,-0.85 0.53,-0.85 -0.9,0.6 -0.9,0.6 -5.95,5.22 -5.95,5.22 -1.65,1.73 -1.6,1.72 -3.94,2.7 -3.94,2.7 -2.38,2.18 -2.38,2.18 -0.23,0.48 -0.23,0.48 z m 14.03,27.83 -0.12,-0.17 0.19,-0.13 0.19,-0.13 0.12,0.17 0.12,0.17 -0.19,0.13 -0.19,0.13 z m 0.81,0.37 -0.12,-0.17 0.52,-0.06 0.52,-0.06 0.12,0.17 0.12,0.17 -0.52,0.06 -0.52,0.06 z m 3.52,-0.84 -0.41,-0.05 0.5,-0.35 0.5,-0.35 -0.09,0.4 -0.09,0.4 z m -3.59,-13.53 -0.58,0.16 1.13,-0.78 1.13,-0.78 -0.56,0.62 -0.56,0.62 z m -7.7,-17.15 -0.37,-0.04 0.74,-0.48 0.74,-0.48 -0.37,0.52 -0.37,0.52 z m 5.02,3.42 -0.12,-0.17 0.19,-0.13 0.19,-0.13 0.12,0.17 0.12,0.17 -0.19,0.13 -0.19,0.13 z m 6.39,-1.26 -0.79,0.07 1.8,-1.28 1.8,-1.28 v 0.5 0.5 l -1.01,0.71 -1.01,0.71 z m 14.65,20.09 -0.76,0.31 1.31,-0.93 1.31,-0.93 -0.55,0.62 -0.55,0.62 z m 0.24,-4.93 -0.73,-0.09 0.9,-0.64 0.9,-0.64 -0.17,0.72 -0.17,0.72 z m 2.8,3.27 -0.59,0.16 0.94,-0.66 0.94,-0.66 -0.35,0.5 -0.35,0.5 z m 8.16,-4.75 -0.76,0.31 1.31,-0.93 1.31,-0.93 -0.55,0.62 -0.55,0.62 z m -2.16,-4 -0.41,-0.05 2.37,-1.68 2.37,-1.68 -0.06,0.26 -0.06,0.26 -1.9,1.46 -1.9,1.46 z m 6.32,1.54 -0.59,0.16 0.94,-0.66 0.94,-0.66 -0.35,0.5 -0.35,0.5 z m -16.34,-30.16 -0.12,-0.17 0.19,-0.13 0.19,-0.13 0.12,0.17 0.12,0.17 -0.19,0.13 -0.19,0.13 z m -0.33,-1.27 -0.12,-0.17 0.19,-0.13 0.19,-0.13 0.12,0.17 0.12,0.17 -0.19,0.13 -0.19,0.13 z m 13.78,18.43 -0.59,0.16 0.94,-0.66 0.94,-0.66 -0.35,0.49 -0.35,0.5 z m 9.92,9.05 -0.76,0.31 1.5,-1.05 1.5,-1.05 -0.75,0.75 -0.75,0.75 z m -9.49,-15.2 -0.58,-0.84 0.48,0.29 0.48,0.29 0.1,0.55 0.1,0.55 z m 3.97,5.71 -0.58,-0.84 0.48,0.29 0.48,0.29 0.1,0.55 0.1,0.55 z m 5.1,5.05 -0.18,-0.25 1.75,-1.06 1.75,-1.06 0.31,-1.6 0.31,-1.6 0.22,0.32 0.22,0.32 -0.08,1.01 -0.08,1.01 2.51,-0.11 2.51,-0.11 0.25,0.61 0.25,0.61 0.78,0.17 0.78,0.17 -0.59,0.4 -0.61,0.43 -0.43,-0.62 -0.43,-0.62 -1.56,-0.24 -1.57,-0.26 -1.89,0.61 -1.89,0.61 -1.08,0.76 -1.08,0.76 z m 3.85,2.53 -0.94,0.45 1.69,-1.19 1.69,-1.19 -0.74,0.74 -0.74,0.74 z m -8.56,-14.12 -0.12,-0.17 0.19,-0.13 0.19,-0.13 0.12,0.17 0.12,0.17 -0.19,0.13 -0.19,0.13 z m 1.28,0.87 -0.86,0.12 0.77,-0.56 0.77,-0.56 1.3,0.21 1.3,0.21 0.85,0.65 0.85,0.65 -2.06,-0.42 -2.06,-0.42 z m -0.6,-1.77 -0.41,-0.05 0.5,-0.35 0.5,-0.35 -0.09,0.4 -0.09,0.4 z m 0.31,-1.43 -0.36,-0.13 0.08,-1.02 0.08,-1.02 0.5,0.72 0.5,0.72 -0.21,0.44 -0.21,0.44 z m 10.97,14.49 -0.37,-0.04 0.74,-0.48 0.74,-0.48 -0.37,0.52 -0.37,0.52 z m -5.43,-8.44 -0.13,-0.22 0.25,-0.82 0.25,-0.82 0.74,1.06 0.74,1.06 -0.85,-0.02 -0.85,-0.02 z m 1.73,1.72 -0.31,-0.45 0.41,0.05 0.41,0.05 -0.09,0.4 -0.09,0.4 z m -17.5,-30.01 -0.12,-0.17 0.19,-0.13 0.19,-0.13 0.12,0.17 0.12,0.17 -0.19,0.13 -0.19,0.13 z m -0.1,-2.85 -0.28,-0.03 2.87,-2.39 2.87,-2.39 0.29,0.03 0.29,0.03 -2.88,2.39 -2.88,2.39 z m 1,0.93 -0.25,-0.36 0.52,-0.06 0.52,-0.06 0.1,0.15 0.1,0.15 -0.37,0.26 -0.37,0.26 z m 9.63,13.75 -2.52,-3.53 0.06,-0.25 0.06,-0.25 -1.93,-3.65 -1.93,-3.65 -0.18,-1.38 -0.18,-1.38 -0.24,-1.21 -0.24,-1.21 1.39,-1.04 1.39,-1.04 0.95,-1.04 0.95,-1.04 -1.19,0.3 -1.19,0.3 0.61,-0.47 0.61,-0.47 -0.24,-0.71 -0.24,-0.71 0.45,0.56 0.45,0.56 0.34,-0.24 0.34,-0.24 -1.22,-0.89 -1.22,-0.89 -0.26,0.19 -0.26,0.19 -1.24,-1.26 -1.24,-1.26 -2.41,-1.81 -2.41,-1.81 -0.75,-0.34 -0.75,-0.34 -0.35,-0.51 -0.35,-0.51 0.37,-0.26 0.37,-0.26 -0.63,-0.93 -0.63,-0.93 0.15,-1.36 0.15,-1.36 -0.33,-0.52 -0.33,-0.52 0.09,-0.94 0.09,-0.94 0.45,-0.32 0.45,-0.32 v 0.43 0.43 l 0.78,-0.77 0.78,-0.77 0.51,0.19 0.51,0.19 -1.12,0.79 -1.12,0.79 v 0.54 0.54 l 2.05,-1.58 2.05,-1.58 0.69,0.08 0.69,0.08 -1.02,0.46 -1.02,0.46 1.35,0.02 1.35,0.02 0.38,1.1 0.38,1.1 0.22,-0.46 0.22,-0.46 1.61,1.51 1.61,1.51 1.91,1.91 1.91,1.91 5.91,5.35 5.91,5.35 7.75,7.06 7.75,7.06 2.46,2.27 2.46,2.27 4.99,4.5 4.99,4.5 5.41,4.91 5.41,4.91 0.78,1.12 0.78,1.12 -0.27,1.14 -0.27,1.14 -2.1,1.84 -2.1,1.84 -0.92,0.32 -0.92,0.32 -1.41,-1.11 -1.41,-1.11 -2.68,-2.37 -2.68,-2.37 -2.35,-2.1 -2.35,-2.1 -1.6,-1.48 -1.6,-1.48 -0.65,0.89 -0.65,0.89 -4.7,2.42 -4.7,2.42 1.19,-0.9 1.19,-0.9 -0.22,-0.31 -0.22,-0.31 -1.27,0.57 -1.27,0.57 -1.18,0.92 -1.18,0.92 -0.74,0.47 -0.74,0.47 0.09,-0.37 0.09,-0.37 4.64,-3.35 4.64,-3.35 v 0.37 0.37 l 0.42,-0.3 0.42,-0.3 v 0.47 0.47 l -1.32,0.7 -1.32,0.7 -0.32,0.72 -0.32,0.72 0.28,0.03 0.28,0.03 2.71,-1.74 2.71,-1.74 -0.51,-0.64 -0.51,-0.64 -0.75,-0.48 -0.75,-0.48 1.49,0.52 1.49,0.52 0.56,-0.06 0.56,-0.06 -0.25,-0.35 -0.25,-0.35 -4.06,-3.78 -4.06,-3.78 -2.94,-2.7 -2.94,-2.7 -1.65,-1.83 -1.65,-1.83 -0.7,-0.26 -0.7,-0.26 4.27,5.76 4.27,5.76 L 58.31,71.02 57.05,69.9 52.81,63.85 48.57,57.8 46.62,56.22 44.67,54.64 44.56,53.93 44.45,53.22 43.91,52.6 43.37,51.98 41.05,49.91 38.73,47.84 v 0.63 0.63 l -0.52,-0.19 -0.52,-0.19 -0.19,0.4 -0.19,0.4 -1.61,1.38 -1.67,1.41 -0.01,0.66 -0.01,0.66 0.18,0.28 0.18,0.28 0.23,-0.47 0.23,-0.47 0.28,0.4 0.28,0.4 0.26,-0.77 0.26,-0.77 0.44,0.16 0.44,0.16 -0.48,0.72 -0.48,0.72 -0.3,0.14 -0.3,0.14 0.07,0.94 0.07,0.94 2.69,4.76 2.69,4.76 1.03,2.53 1.03,2.53 -1.25,-1.63 -1.25,-1.63 0.54,1.37 0.54,1.37 z m -13.33,-30.71 0.43,0.16 1.5,-1.22 1.5,-1.22 -0.12,-0.47 -0.12,-0.47 -1.09,0.3 -1.09,0.3 0.75,-0.56 0.75,-0.56 0.14,-0.56 0.14,-0.56 1.23,-1.03 1.23,-1.03 -0.3,-0.72 -0.3,-0.72 -0.23,0.47 -0.23,0.47 -0.59,-0.37 -0.59,-0.37 -0.23,0.48 -0.23,0.48 -0.25,-0.36 -0.25,-0.36 -1.47,1.04 -1.47,1.04 -0.45,0.62 -0.45,0.62 0.21,0.3 0.21,0.3 0.75,-0.53 0.75,-0.53 0.33,0.48 0.33,0.48 -0.6,0.74 -0.6,0.74 0.33,0.48 0.33,0.48 0.4,-0.28 0.4,-0.28 v 0.5 0.5 l -0.75,0.53 -0.75,0.53 z m 0.56,-5.54 -0.41,-0.05 0.5,-0.35 0.5,-0.35 -0.09,0.4 -0.09,0.4 z m 0.43,0.67 -0.37,-0.04 0.74,-0.48 0.74,-0.48 -0.37,0.52 -0.37,0.52 z m 0.71,5.86 0.36,0.25 1.48,-0.85 1.48,-0.85 -0.33,-0.47 -0.33,-0.47 -1.51,1.07 -1.51,1.07 z m 4.82,3.49 1.49,1.91 1.3,0.85 1.3,0.85 0.24,-0.17 0.24,-0.17 0.38,0.61 0.38,0.61 4.23,4.16 4.23,4.16 0.23,-0.16 0.23,-0.16 0.74,1.1 0.74,1.1 1.14,0.95 1.14,0.95 1.63,2.11 1.63,2.11 0.8,0.57 0.8,0.57 0.21,-0.44 0.21,-0.44 0.2,0.29 0.2,0.29 -0.15,0.64 -0.15,0.64 1.1,1.04 1.1,1.04 0.24,-0.49 0.24,-0.49 0.58,1.37 0.58,1.37 0.43,-0.13 0.43,-0.13 1.78,2.06 1.78,2.06 1.5,1.14 1.5,1.14 0.38,-0.22 0.38,-0.22 0.87,-0.21 0.87,-0.21 1.75,-1.54 1.75,-1.54 0.27,-0.82 0.27,-0.82 -1.41,-1.53 -1.43,-1.52 -2.23,-1.6 -2.23,-1.6 -0.61,-0.88 -0.61,-0.88 -5.01,-4.75 -5.01,-4.75 -2.58,-2.19 -2.58,-2.19 -4.01,-3.69 -4.01,-3.69 -2.81,-2.4 -2.81,-2.4 -0.71,0.5 -0.71,0.5 -0.15,-0.71 -0.15,-0.71 -0.57,1.02 -0.57,1.02 0.72,-0.07 0.72,-0.07 -1.56,1.11 -1.56,1.11 -0.41,0.57 -0.41,0.57 z m 2.1,-3.77 -0.12,-0.17 0.19,-0.13 0.19,-0.13 0.12,0.17 0.12,0.17 -0.19,0.13 -0.19,0.13 z m 1.43,-1.42 -0.41,-0.05 0.5,-0.35 0.5,-0.35 -0.09,0.4 -0.09,0.39 z m 22.02,28.74 -0.31,-0.45 0.41,0.05 0.41,0.05 -0.09,0.4 -0.09,0.4 z m 4.65,2.61 -0.03,-0.1 -0.15,-0.9 -0.15,-0.9 0.55,0.74 0.55,0.74 -0.37,0.26 -0.37,0.26 z m 3.71,4.91 -0.58,0.04 0.65,-0.47 0.65,-0.47 0.5,0.78 0.5,0.78 -0.56,-0.35 -0.56,-0.35 z m -29.29,-25.58 0.12,0.17 0.19,-0.13 0.19,-0.13 -0.12,-0.17 -0.12,-0.17 -0.19,0.13 -0.19,0.13 z m -6.07,-9.54 0.22,0.31 0.89,-0.32 0.89,-0.32 0.23,-0.48 0.23,-0.48 -0.22,-0.32 -0.22,-0.32 -1.12,0.79 -1.12,0.79 z m -0.82,-3.06 0.41,0.05 0.09,-0.4 0.09,-0.4 -0.5,0.35 -0.5,0.35 z m -0.37,-1.07 0.24,0.34 0.88,-0.95 0.88,-0.95 0.07,-0.23 0.07,-0.23 -1.19,0.84 -1.19,0.84 z m 2.22,1.56 0.16,0.26 0.86,-0.61 0.86,-0.61 0.17,-0.72 0.17,-0.72 -0.3,-0.44 -0.3,-0.44 -0.4,0.28 -0.4,0.28 -0.49,1.23 -0.49,1.23 z m 36.2,41.12 0.71,0.62 1.13,0.84 1.13,0.84 0.24,-0.49 0.24,-0.49 0.25,0.9 0.25,0.9 0.98,0.87 0.98,0.87 0.01,-0.7 0.01,-0.7 0.52,1.24 0.52,1.24 0.9,0.74 0.9,0.74 v -0.55 -0.55 l 1.44,2.07 1.44,2.07 1.45,0.68 1.45,0.68 0.8,1.16 0.8,1.16 1.89,1.43 1.89,1.43 0.85,-0.91 0.85,-0.91 1.35,-1.24 1.35,-1.24 0.18,-0.37 0.18,-0.37 -0.47,-0.67 -0.47,-0.67 0.47,-0.05 0.47,-0.05 -1.17,-1.31 -1.17,-1.31 -1.29,-1.09 -1.29,-1.09 -2.97,-2.66 -2.97,-2.66 -2.96,-2.67 -2.96,-2.67 -0.67,-0.57 -0.67,-0.57 -2.05,1.69 -2.05,1.69 -0.01,0.57 -0.01,0.57 -0.27,-0.38 -0.27,-0.38 -1.15,0.55 -1.15,0.55 -0.15,0.31 -0.15,0.31 z m 5.29,2.52 -0.04,-0.08 0.42,-1.37 0.42,-1.37 1.21,2.23 1.21,2.23 -0.07,0.4 -0.07,0.4 -1.06,-1.81 -1.06,-1.81 -0.46,0.63 -0.46,0.63 z m -2.02,-3.7 -0.12,-0.17 0.19,-0.13 0.19,-0.13 0.12,0.17 0.12,0.17 -0.19,0.13 -0.19,0.13 z m 9.05,9.66 -0.69,-1.02 0.59,0.47 0.59,0.47 0.1,0.55 0.1,0.55 z m 4.42,4.9 -0.12,-0.17 0.19,-0.13 0.19,-0.13 0.12,0.17 0.12,0.17 -0.19,0.13 -0.19,0.13 z m -5.59,-9.65 -0.12,-0.17 0.52,-0.06 0.52,-0.06 0.12,0.17 0.11,0.17 -0.52,0.06 -0.52,0.06 z m 8.09,11.64 -0.31,-0.45 0.41,0.05 0.41,0.05 -0.09,0.4 -0.09,0.4 z m -9.24,-15.54 -0.87,-0.89 0.31,-0.22 0.31,-0.22 0.7,1.01 0.7,1.01 -0.14,0.1 -0.14,0.1 z m 5.71,7.25 -0.12,-0.17 0.19,-0.13 0.19,-0.13 0.12,0.17 0.12,0.17 -0.19,0.13 -0.19,0.13 z m -2.58,-4.54 -0.17,-0.23 0.23,-0.47 0.23,-0.47 0.65,0.95 0.65,0.95 -0.71,-0.25 -0.71,-0.25 z m -31.47,2.99 -1.03,-1.49 0.16,-0.11 0.16,-0.11 1.76,1.64 1.76,1.64 0.84,0.78 0.85,0.78 -0.31,0.22 -0.31,0.22 -0.98,-1.19 -0.98,-1.19 -0.45,0.15 -0.45,0.15 z m 4.46,6.42 -0.12,-0.17 0.19,-0.13 0.19,-0.13 0.12,0.17 0.12,0.17 -0.19,0.13 -0.19,0.13 z m -22.61,-34.22 -0.42,-0.67 0.5,0.3 0.5,0.3 -0.09,0.36 -0.09,0.36 z m 25.42,34.85 -1.13,0.59 2.06,-1.46 2.06,-1.46 -0.93,0.87 -0.93,0.87 z M 48.26,74.05 47,72.33 l 0.18,-0.36 0.18,-0.36 0.85,1.49 0.85,1.49 0.23,0.59 0.23,0.59 z m 4.73,5.28 -0.12,-0.17 0.19,-0.13 0.19,-0.13 0.12,0.17 0.12,0.17 -0.19,0.13 -0.2,0.13 z M 37.61,51.57 37.5,51.4 l 0.19,-0.13 0.19,-0.13 0.12,0.17 0.12,0.17 -0.19,0.13 -0.19,0.13 z m 2.37,-1.42 -0.31,-0.45 0.41,0.05 0.41,0.05 -0.09,0.4 -0.09,0.4 z m 1.66,1.59 -0.12,-0.17 0.19,-0.13 0.19,-0.13 0.12,0.17 0.12,0.17 -0.19,0.13 -0.19,0.13 z m 1.43,1.24 -0.31,-0.45 0.41,0.05 0.41,0.05 -0.09,0.4 -0.09,0.4 z m 20.06,22.44 -0.31,-0.45 0.41,0.05 0.41,0.05 -0.09,0.4 -0.09,0.4 z M 33.54,23.98 33.42,23.8 l 1.83,-1.63 1.83,-1.63 1.32,-2.09 1.32,-2.09 0.93,-3.47 0.93,-3.47 1.57,-1.7 1.57,-1.7 2.11,-1.45 2.11,-1.45 1.19,-0.3 1.19,-0.3 -1.23,0.58 -1.23,0.58 -2.36,1.67 -2.36,1.67 -1.15,1.78 -1.15,1.79 -0.94,3.06 -0.94,3.06 -1.38,2.17 -1.38,2.17 -1.76,1.55 -1.76,1.55 z m 0.87,1.19 -0.37,-0.06 1.65,-0.85 1.65,-0.85 1.7,-1.17 1.7,-1.17 -0.67,0.96 -0.68,0.97 -2.3,1.12 -2.3,1.12 z m 5.29,-0.56 -0.76,0.31 1.31,-0.93 1.31,-0.93 -0.55,0.62 -0.55,0.62 z m -2.99,-6.51 -0.12,-0.17 0.19,-0.13 0.19,-0.13 0.12,0.17 0.11,0.16 -0.19,0.13 -0.19,0.13 z m 0.58,-0.79 -0.06,-0.09 0.26,-1.69 0.26,-1.69 -0.05,1.66 -0.05,1.66 -0.16,0.11 -0.16,0.11 z m 5.41,4.58 -0.12,-0.17 0.19,-0.13 0.19,-0.13 0.12,0.17 0.12,0.17 -0.19,0.13 -0.19,0.13 z m -5.17,-8.25 -0.09,-0.14 0.39,-1.45 0.39,-1.45 0.24,0.04 0.24,0.04 -0.53,1.54 -0.53,1.54 z m 6.09,7.15 -0.11,-0.16 0.69,-1.62 0.69,-1.62 0.75,-2.7 0.76,-2.69 1.82,-1.23 1.82,-1.23 -0.49,0.5 -0.49,0.5 -1.31,1.24 -1.31,1.24 -0.78,2.98 -0.8,2.97 -0.57,0.99 -0.57,0.99 z m -2.18,-3.94 -0.12,-0.17 0.78,-2.57 0.78,-2.57 1.04,-1.31 1.04,-1.31 0.32,0.04 0.32,0.04 -1.27,1.44 -1.27,1.44 v 0.45 0.45 l -0.76,2.12 -0.76,2.12 z m -2.35,-6.87 -0.41,-0.05 0.5,-0.35 0.5,-0.35 -0.09,0.4 -0.09,0.4 z m 9.17,-1.8 -1.53,0.61 2.21,-1.25 2.21,-1.25 2.62,-1.46 2.62,-1.46 -3.3,2.09 -3.3,2.09 z"
   clip-path="url(#SVGID_2_)" />
		</g>
	</g>
	<g
   id="g91">
		<line
   class="st7"
   x1="30.32"
   y1="27.43"
   x2="90.160004"
   y2="87.879997"
   id="line83" />
		<g
   id="g89">
			<line
   class="st7"
   x1="26.870001"
   y1="36.98"
   x2="84.07"
   y2="93.809998"
   id="line85" />
			<path
   class="st7"
   d="m 89.83,87.39 c 0.04,0.49 0.04,1.37 -0.44,2.3 -0.31,0.61 -0.74,1.05 -1.45,1.65 -0.82,0.68 -2.09,1.6 -3.88,2.47"
   id="path87" />
		</g>
	</g>
</g><g
     id="g102"
     transform="translate(0,6)">
	<defs
   id="defs96">
		<rect
   id="SVGID_1_"
   x="15.1"
   y="-7.8899999"
   width="20.98"
   height="33.41" />
	</defs>
	<clipPath
   id="SVGID_4_">
		<use
   height="100%"
   width="100%"
   y="0"
   x="0"
   xlink:href="#SVGID_1_"
   style="overflow:visible"
   id="use98" />
	</clipPath>
	<path
   id="path849_1_"
   class="st8"
   d="m 67.73,111.6 -1.45,-0.12 -2.47,-0.53 -2.47,-0.53 -2.11,-0.53 -2.11,-0.53 -1.76,-1.11 -1.76,-1.11 -0.87,-0.56 -0.87,-0.56 -0.14,-2.58 -0.14,-2.58 L 51.29,92.93 51.01,85 50.79,80.8 50.57,76.6 50.03,69.13 49.49,61.66 49.14,55.18 48.79,48.7 49,48.2 l 0.21,-0.5 -0.04,1.8 -0.04,1.8 0.93,-0.3 0.94,-0.27 1.58,-0.36 1.58,-0.36 1.11,0.37 1.11,0.37 1.41,0.93 1.41,0.93 0.73,0.04 0.73,0.04 -0.02,0.4 -0.02,0.4 0.84,1.32 0.84,1.32 1.65,-1.89 1.65,-1.89 1.87,-0.14 1.87,-0.14 1.93,0.42 1.93,0.42 -0.44,0.45 -0.44,0.45 -0.88,-0.59 -0.88,-0.59 -1.63,0.22 -1.63,0.22 -1.11,0.93 -1.13,0.91 -1.28,1.79 -1.28,1.79 -0.15,3.65 -0.15,3.65 0.58,0.03 0.58,0.03 0.35,-1.65 0.35,-1.65 -0.18,-1.25 -0.18,-1.25 0.88,-1.44 0.88,-1.44 1.07,-0.71 1.07,-0.71 0.68,0.47 0.68,0.47 -1.06,0.24 -1.06,0.24 -0.99,1.69 -0.99,1.69 -0.15,0.7 -0.15,0.7 -0.36,1.89 -0.36,1.89 1.57,0.37 1.57,0.37 4.41,0.23 4.41,0.23 0.29,-1.09 0.29,-1.09 0.21,-3.77 0.21,-3.77 0.37,0.02 0.37,0.02 -0.06,1.39 -0.06,1.39 0.58,0.05 0.61,0.03 -0.17,-1.29 -0.17,-1.29 1.29,-1.26 1.29,-1.27 1.46,0.62 1.46,0.62 -0.01,0.25 -0.01,0.25 -0.6,-0.29 -0.6,-0.29 -1.28,0.43 -1.27,0.42 -0.27,1.01 -0.27,1.01 0.13,1.15 0.13,1.15 -0.37,0.91 -0.37,0.91 v -0.61 -0.61 l -0.43,0.27 -0.43,0.27 V 61.4 60.33 l -0.24,0.92 -0.24,0.92 -0.35,0.45 -0.35,0.45 -0.24,1.83 -0.22,1.85 1.45,-0.02 1.45,-0.02 3.53,-0.11 3.53,-0.11 0.63,-0.24 0.63,-0.24 0.31,0.09 0.31,0.09 1.55,-0.63 1.55,-0.63 -0.43,-0.53 -0.43,-0.53 -1.21,-0.17 -1.21,-0.17 -0.4,-0.31 -0.4,-0.31 -2.84,-0.47 -2.84,-0.47 0.87,-0.38 0.87,-0.38 2.32,0.81 2.32,0.81 0.03,-0.54 0.03,-0.54 0.28,0.54 0.28,0.54 1.67,0.65 1.67,0.65 -0.06,1.92 -0.06,1.92 -0.21,-1.24 -0.21,-1.24 -1.99,0.96 -1.99,0.96 -0.19,-0.24 -0.19,-0.24 -2.84,0.36 -2.84,0.36 -2.56,-0.02 -2.56,-0.02 -0.25,1.39 -0.25,1.39 0.17,0.23 0.17,0.23 0.36,-0.58 0.36,-0.58 0.18,2.21 0.18,2.21 0.45,0.67 0.45,0.67 -0.49,1.01 -0.49,1.01 -0.77,3.68 -0.77,3.68 -0.49,4.8 -0.49,4.8 -0.38,1.21 -0.38,1.21 L 73.82,95 73.81,93.14 73.59,91.73 73.37,90.32 73,92.45 l -0.37,2.12 0.14,1.82 0.14,1.82 -0.46,-0.9 -0.45,-0.9 0.5,-4.91 0.5,-4.91 0.36,-0.45 0.36,-0.45 0.73,-6.25 0.73,-6.25 0.33,-2.87 0.33,-2.87 -6.67,-0.48 -6.67,-0.47 -0.1,0.23 -0.1,0.23 0.07,6.29 0.07,6.29 -0.07,1.39 -0.07,1.39 -0.14,2.55 -0.14,2.55 0.47,3.28 0.47,3.28 0.31,-2.78 0.31,-2.78 -0.12,4.74 -0.12,4.74 0.4,0.31 0.4,0.31 -0.05,1.13 -0.05,1.13 -0.32,-0.02 -0.32,-0.02 -0.45,-2.09 -0.45,-2.09 -0.59,0.22 -0.59,0.22 0.11,-3.65 0.11,-3.65 -0.35,1.15 -0.35,1.15 0.22,-12.79 0.22,-12.79 -0.46,-0.37 -0.46,-0.37 0.57,0.02 0.57,0.02 -0.16,-2.22 -0.16,-2.22 0.45,-2.41 0.45,-2.41 -0.73,-0.82 -0.73,-0.82 -0.02,0.38 -0.02,0.38 -0.7,-0.73 -0.7,-0.73 -1.84,-1.12 -1.82,-1.15 -2.21,0.14 -2.21,0.14 -0.62,0.52 -0.62,0.52 -0.06,1.34 -0.06,1.34 0.23,0.01 0.23,0.01 1.25,-0.65 1.25,-0.65 0.02,-0.45 0.02,-0.45 1.04,0.05 1.04,0.05 -0.02,0.46 -0.02,0.46 0.93,0.08 0.93,0.08 -0.52,0.21 -0.52,0.21 0.39,0.91 0.39,0.91 0.88,0.04 0.88,0.04 -0.33,0.33 -0.33,0.33 -1.91,-0.1 -1.91,-0.1 -0.35,1.54 -0.35,1.54 0.27,1.48 0.27,1.48 -0.12,9.53 -0.12,9.53 0.31,0.25 0.31,0.25 0.04,5.12 0.04,5.12 0.27,3.27 0.27,3.27 v 0.35 0.35 l 0.46,0.02 0.46,0.02 -0.17,-1.75 -0.17,-1.75 0.38,1.17 0.38,1.17 0.17,0.21 0.17,0.21 0.67,-0.56 0.67,-0.56 -0.31,0.8 -0.31,0.8 1.01,-0.28 1.01,-0.28 -0.96,0.72 -0.96,0.72 -0.02,0.44 -0.02,0.44 0.38,0.02 0.38,0.02 0.65,-0.67 0.65,-0.67 0.23,0.01 0.23,0.01 -0.14,1.03 -0.14,1.03 0.83,0.12 0.83,0.12 2.47,0.42 2.47,0.42 1.03,0.25 1.03,0.25 3.23,0.28 3.23,0.28 0.34,0.5 0.34,0.5 -5.03,-0.56 -5.03,-0.56 -1.95,-0.44 -1.95,-0.44 -0.02,0.49 -0.02,0.49 -0.3,0.76 -0.3,0.76 0.79,-0.09 0.79,-0.09 1.11,0.39 1.11,0.39 -0.32,0.73 -0.27,0.68 0.67,0.03 0.67,0.03 -0.08,-0.59 -0.08,-0.59 2.08,0.09 2.08,0.09 0.54,-0.33 0.54,-0.33 -0.27,-0.56 -0.27,-0.56 0.59,0.58 0.59,0.58 2.69,-0.02 2.69,-0.02 1.86,-0.46 1.86,-0.46 1.73,0.38 1.73,0.38 0.28,-0.7 0.28,-0.7 0.46,0.02 0.46,0.02 -0.16,0.41 -0.16,0.41 -1.87,1.59 -1.87,1.59 0.61,0.03 0.61,0.03 0.55,-0.67 0.55,-0.67 0.36,0.02 0.36,0.02 -0.03,0.58 -0.03,0.58 -3.25,0.93 -3.25,0.93 -3.95,0.2 -3.95,0.2 z m -0.34,-1.33 0.8,0.04 0.02,-0.46 0.02,-0.46 -1.06,-0.05 -1.06,-0.05 0.24,0.48 0.24,0.48 z m -12.41,-4.08 0.93,0.01 -0.12,-0.47 -0.12,-0.47 -0.79,-0.06 -0.79,-0.06 -0.5,-0.38 -0.5,-0.38 -0.46,0.29 -0.46,0.29 0.94,0.62 0.94,0.62 z m -0.5,-0.3 -0.21,-0.01 0.01,-0.23 0.01,-0.23 0.21,0.01 0.21,0.01 -0.01,0.23 -0.01,0.23 z m 4.61,-1.16 0.62,0.03 0.02,-0.46 0.02,-0.46 -0.62,-0.03 -0.62,-0.03 -0.02,0.46 -0.02,0.46 z m -5.85,-1.46 0.44,-0.79 -0.16,-2.4 -0.16,-2.4 -0.08,-6.93 -0.08,-6.93 -0.49,-0.38 -0.49,-0.38 0.28,-1.28 0.28,-1.28 -0.21,-4.7 -0.21,-4.7 -0.1,-4.16 -0.1,-4.16 -0.54,-0.23 -0.54,-0.23 0.16,1.8 0.16,1.8 -0.35,-0.95 -0.35,-0.95 -0.08,1.09 -0.08,1.09 0.5,8 0.5,8 0.38,2.35 0.38,2.35 -0.27,4.83 -0.27,4.83 0.27,3.26 0.27,3.26 0.24,0.48 0.24,0.48 z m 30.99,5.99 -0.21,-0.01 0.01,-0.23 0.01,-0.23 0.21,0.01 0.21,0.01 -0.01,0.23 -0.01,0.23 z m 0.8,-0.43 -0.21,-0.01 0.28,-0.45 0.28,-0.45 0.21,0.01 0.21,0.01 -0.28,0.45 -0.28,0.45 z m 1.5,-3.33 -0.29,0.3 0.03,-0.62 0.03,-0.62 0.26,0.32 0.26,0.32 z m -13.06,-5.5 -0.23,0.56 0.07,-1.39 0.07,-1.39 0.16,0.83 0.16,0.83 z m -18.51,-4.45 -0.26,0.27 0.07,-0.89 0.07,-0.89 0.19,0.62 0.19,0.62 z m 5.85,-1.91 -0.21,-0.01 0.01,-0.23 0.01,-0.23 0.21,0.01 0.21,0.01 -0.01,0.23 -0.01,0.23 z m 2.95,-5.9 -0.43,0.68 0.09,-2.23 0.09,-2.23 0.4,0.31 0.4,0.31 -0.06,1.25 -0.06,1.25 z m 25.16,0.7 -0.22,0.8 0.07,-1.63 0.07,-1.63 0.15,0.82 0.15,0.82 z m -3.8,-3.24 -0.52,0.53 0.05,-1.11 0.05,-1.11 0.47,0.58 0.47,0.58 z m 4.36,-0.22 -0.23,0.57 0.05,-1.16 0.05,-1.16 0.18,0.59 0.18,0.59 z m 1.24,-9.48 -0.22,0.8 0.07,-1.63 0.07,-1.63 0.15,0.82 0.15,0.82 z m -4.54,-0.74 -0.29,0.3 0.12,-2.94 0.12,-2.94 0.17,0.21 0.17,0.21 v 2.43 2.43 z m 5.15,-4.12 -0.23,0.57 0.05,-1.16 0.05,-1.16 0.18,0.59 0.18,0.59 z m -34.29,-5.58 -0.21,-0.01 0.01,-0.23 0.01,-0.23 0.21,0.01 0.21,0.01 -0.01,0.23 -0.01,0.23 z m -1.22,-0.52 -0.21,-0.01 0.01,-0.23 0.01,-0.23 0.21,0.01 0.21,0.01 -0.01,0.23 -0.01,0.23 z m 23.3,0.36 -0.23,0.57 0.05,-1.16 0.05,-1.16 0.18,0.59 0.18,0.59 z m 13.39,-2.34 -0.22,0.8 0.09,-1.86 0.09,-1.86 0.14,1.06 0.14,1.06 z m -18.06,-1.81 -1.04,-0.05 0.53,-0.21 0.53,-0.21 0.51,0.26 0.51,0.26 z m 7.04,0.36 -1.04,-0.05 0.53,-0.21 0.53,-0.21 0.51,0.26 0.51,0.26 z m 7.2,-0.96 -0.31,-0.02 0.23,-2.06 0.23,-2.06 -1.09,-1.24 -1.09,-1.24 0.4,0.02 0.4,0.02 0.76,0.68 0.76,0.68 1.46,-2.08 1.46,-2.08 0.64,0.18 0.64,0.18 0.61,-0.52 0.61,-0.52 -0.03,0.75 -0.03,0.75 -0.77,-0.04 -0.77,-0.04 -1.16,1.1 -1.16,1.1 -0.69,1.89 -0.69,1.89 -0.06,1.33 -0.06,1.33 z m 4.41,-1.52 -0.22,1.04 0.09,-2.09 0.09,-2.09 0.14,1.05 0.14,1.05 z m -16.61,-1.89 -0.21,-0.01 0.01,-0.23 0.01,-0.23 0.21,0.01 0.21,0.01 -0.01,0.23 -0.01,0.23 z m 1.49,-0.48 -0.44,0.76 0.03,-0.96 0.03,-0.96 0.97,-0.91 0.97,-0.91 1.05,-0.28 1.05,-0.28 -1.61,1.39 -1.61,1.39 z m -1.79,-0.62 -0.29,0.3 0.03,-0.62 0.03,-0.62 0.26,0.32 0.26,0.32 z m -0.95,-1.13 -0.33,0.21 -0.77,-0.7 -0.77,-0.7 0.88,0.04 0.88,0.04 0.22,0.44 0.22,0.44 z m 18.4,0.18 -0.26,0.27 0.07,-0.89 0.07,-0.89 0.19,0.62 0.19,0.62 z m -10.12,-0.87 -0.26,-0.03 -0.51,-0.71 -0.51,-0.71 1.31,0.07 1.31,0.07 -0.55,0.67 -0.55,0.67 z m 2.45,-0.32 -0.55,-0.03 0.29,-0.3 0.29,-0.3 0.26,0.32 0.26,0.32 z m -34.89,-4.56 -0.21,-0.01 0.01,-0.23 0.01,-0.23 0.21,0.01 0.21,0.01 -0.01,0.23 -0.01,0.23 z m -2.34,-1.68 -0.2,0.21 -0.14,-3.78 -0.14,-3.78 0.21,-0.21 0.21,-0.21 0.13,3.79 0.13,3.79 z M 50.1,47.03 49.66,47 l 0.28,-0.45 0.28,-0.45 0.18,0.01 0.18,0.01 -0.02,0.46 -0.02,0.46 z m 16.98,0.8 -4.39,-0.16 -0.16,-0.2 -0.16,-0.2 -4.12,-0.72 -4.12,-0.72 -1.22,-0.71 -1.22,-0.71 -1.12,-0.56 -1.12,-0.56 0.03,-1.75 0.03,-1.75 -0.24,-1.41 -0.24,-1.41 -0.5,1.14 -0.5,1.14 0.01,-0.78 0.01,-0.78 -0.72,-0.25 -0.72,-0.25 0.73,-0.02 0.73,-0.02 0.02,-0.42 0.02,-0.42 -1.47,0.43 -1.47,0.43 -0.01,0.33 -0.01,0.33 -1.77,0.22 -1.77,0.22 -2.94,0.81 -2.94,0.81 -0.74,0.39 -0.74,0.39 -0.63,-0.03 -0.63,-0.03 0.02,-0.46 -0.01,-0.51 -1.14,-0.07 -1.14,-0.07 -1,-0.96 -1,-0.96 -0.62,-0.06 -0.62,-0.06 -0.7,-0.65 -0.7,-0.65 0.02,-0.56 0.02,-0.56 0.34,0.26 0.34,0.26 -0.14,-1.1 -0.14,-1.1 0.47,-0.29 0.47,-0.29 -0.06,1.39 -0.06,1.39 0.43,0.33 0.43,0.33 V 33.6 30.98 l 0.49,-0.5 0.49,-0.5 -0.27,1.1 -0.27,1.1 0.85,-1.07 0.85,-1.07 1.11,0.37 1.11,0.37 -0.23,-0.46 -0.23,-0.46 2.2,-0.35 2.2,-0.35 2.71,-0.35 2.71,-0.35 7.95,-1.43 7.95,-1.43 10.46,-1.84 10.46,-1.84 3.35,-0.57 3.35,-0.57 6.69,-1.22 6.69,-1.22 7.28,-1.3 7.28,-1.3 1.38,0.07 1.38,0.07 0.75,0.92 0.75,0.92 0.17,2.82 0.17,2.82 -0.31,0.94 -0.31,0.94 -1.76,0.44 -1.76,0.44 -3.56,0.68 -3.56,0.68 -3.14,0.58 -3.14,0.58 -2.18,0.37 -2.18,0.37 0.31,1.07 0.31,1.07 -0.97,5.27 -0.97,5.27 0.02,-1.51 0.02,-1.51 -0.38,-0.02 -0.38,-0.02 -0.33,1.38 -0.33,1.38 0.01,1.52 0.01,1.52 -0.08,0.89 -0.08,0.89 -0.24,-0.3 -0.24,-0.3 0.19,-5.79 0.19,-5.79 0.3,0.23 0.3,0.23 0.02,-0.52 0.02,-0.52 0.38,0.29 0.38,0.29 -0.26,1.49 -0.26,1.49 0.38,0.7 0.38,0.7 0.2,-0.21 0.2,-0.21 0.28,-3.24 0.28,-3.24 -0.83,0.01 -0.83,0.01 -0.84,0.3 -0.84,0.3 1.34,-0.87 1.34,-0.87 0.3,-0.49 0.3,-0.49 -0.44,-0.02 -0.44,-0.02 -5.54,0.91 -5.54,0.91 -3.98,0.69 -3.98,0.69 -2.49,0.19 -2.49,0.19 -0.64,0.4 -0.64,0.4 7.26,0.14 7.26,0.14 -1.67,0.32 -1.67,0.32 -7.47,-0.35 -7.47,-0.35 -2.47,0.59 -2.47,0.59 -0.63,-0.35 -0.63,-0.35 -0.83,0.04 -0.83,0.04 -3.1,0.57 -3.1,0.57 0.5,0.39 0.5,0.39 -0.48,0.3 -0.48,0.3 0.2,0.4 0.2,0.4 0.09,2.21 0.09,2.21 0.52,0.41 0.52,0.41 0.33,0.02 0.33,0.02 -0.24,-0.48 -0.24,-0.48 0.49,0.02 0.49,0.02 -0.46,-0.68 -0.46,-0.68 0.4,-0.25 0.4,-0.25 0.28,0.83 0.28,0.83 -0.08,0.33 -0.08,0.33 0.79,0.53 0.79,0.53 5.48,0.79 5.48,0.79 2.67,0.74 2.67,0.74 -2.08,-0.01 -2.08,-0.01 1.44,0.42 1.44,0.42 z m -32.86,-8.33 0.39,-0.24 -0.05,-1.96 -0.05,-1.96 -0.45,-0.19 -0.45,-0.19 -0.43,1.06 -0.43,1.06 0.01,-0.95 0.01,-0.95 -0.37,-0.46 -0.37,-0.46 -0.06,-1.63 -0.06,-1.63 -0.77,-0.2 -0.77,-0.2 0.23,0.47 0.23,0.47 -0.66,0.24 -0.66,0.24 0.24,0.48 0.24,0.48 -0.44,-0.02 -0.44,-0.02 -0.08,1.82 -0.08,1.82 0.22,0.75 0.22,0.75 0.37,0.02 0.37,0.02 0.04,-0.93 0.04,-0.93 0.59,0.03 0.59,0.03 0.22,0.94 0.22,0.94 0.59,0.03 0.59,0.03 0.02,-0.49 0.02,-0.49 0.4,0.31 0.4,0.31 -0.04,0.93 -0.04,0.93 z m -4.09,-3.88 -0.29,0.3 0.03,-0.62 0.03,-0.62 0.25,0.32 0.26,0.32 z m 0.8,0.07 -0.26,0.27 0.07,-0.89 0.07,-0.89 0.19,0.62 0.19,0.62 z m 5.13,3.06 0.43,-0.14 0.23,-1.71 0.23,-1.71 -0.58,-0.03 -0.58,-0.03 -0.08,1.88 -0.08,1.88 z m 5.78,-1.71 2.46,-0.01 1.49,-0.52 1.49,-0.52 0.01,-0.29 0.01,-0.29 0.72,0.07 0.72,0.07 5.95,-0.81 5.95,-0.81 0.01,-0.28 0.01,-0.28 1.35,0.09 1.35,0.09 1.47,-0.32 1.47,-0.32 h 2.7 2.7 l 0.95,-0.29 0.95,-0.29 -0.22,-0.44 -0.22,-0.44 0.36,0.02 0.36,0.02 0.41,0.51 0.42,0.52 1.51,-0.24 1.51,-0.24 -0.24,-0.49 -0.24,-0.49 1.46,0.38 1.46,0.38 0.16,-0.42 0.16,-0.42 2.75,-0.15 2.75,-0.15 1.84,-0.5 1.84,-0.5 0.05,-0.44 0.05,-0.44 0.37,-0.83 0.37,-0.83 -0.15,-2.35 -0.15,-2.35 -0.49,-0.73 -0.49,-0.73 -2.1,0.18 -2.1,0.18 -2.67,0.79 -2.67,0.79 -1.09,-0.06 -1.09,-0.06 -6.91,1.07 -6.91,1.07 -3.35,0.72 -3.35,0.72 -5.44,0.93 -5.44,0.93 -3.67,0.76 -3.67,0.76 -0.04,0.88 -0.04,0.88 -0.66,-0.32 -0.66,-0.32 0.46,1.09 0.46,1.09 0.39,-0.62 0.39,-0.62 -0.08,1.94 -0.08,1.94 0.2,0.69 0.2,0.69 z m -1.71,-4.02 -0.21,-0.01 0.01,-0.23 0.01,-0.23 0.21,0.01 0.21,0.01 -0.01,0.23 -0.01,0.23 z m -0.26,-2.03 -0.29,0.3 0.03,-0.62 0.03,-0.62 0.26,0.32 0.26,0.32 z m 36.67,0.16 -0.55,-0.03 0.29,-0.3 0.29,-0.3 0.26,0.32 0.26,0.32 z M 81.51,29.04 81.4,29 l -0.81,-0.44 -0.81,-0.44 0.93,0.01 0.93,0.01 -0.02,0.46 -0.02,0.46 z m 6.23,0.07 -0.33,0.5 0.03,-0.81 0.03,-0.81 0.93,0.08 0.93,0.08 -0.63,0.23 -0.63,0.23 z m -38.63,7.63 0.21,0.01 0.01,-0.23 0.01,-0.23 -0.21,-0.01 -0.21,-0.01 -0.01,0.23 -0.01,0.23 z m -11.4,-1.05 0.39,0.02 0.3,-0.91 0.3,-0.91 -0.24,-0.48 -0.24,-0.48 -0.39,-0.02 -0.39,-0.02 -0.06,1.39 -0.06,1.39 z m -2.97,-1.23 0.29,-0.3 -0.26,-0.32 -0.26,-0.32 -0.03,0.62 -0.03,0.62 z m -1.08,-0.37 0.42,0.02 -0.22,-1.29 -0.22,-1.29 -0.14,-0.2 -0.14,-0.2 -0.06,1.47 -0.06,1.47 z m 2.62,-0.81 0.31,0.03 0.05,-1.07 0.05,-1.07 -0.47,-0.58 -0.47,-0.58 -0.54,-0.03 -0.54,-0.03 -0.02,0.49 -0.02,0.49 0.68,1.15 0.68,1.15 z m 55.37,-3.55 0.94,-0.19 1.37,-0.39 1.37,-0.39 -0.24,-0.49 -0.24,-0.49 0.88,0.36 0.88,0.36 1.3,-0.25 1.29,-0.25 -0.56,-0.44 -0.56,-0.44 1.32,0.35 1.32,0.35 1.15,-0.26 1.15,-0.26 -0.44,-0.34 -0.44,-0.34 2.55,0.13 2.55,0.13 1.44,-0.74 1.44,-0.74 1.43,0.07 1.43,0.07 2.31,-0.63 2.31,-0.63 -0.2,-1.24 -0.2,-1.24 -0.15,-1.85 -0.15,-1.85 -0.19,-0.38 -0.19,-0.38 -0.83,-0.04 -0.83,-0.04 0.25,-0.41 0.25,-0.41 -1.77,0.12 -1.77,0.12 -1.68,0.36 -1.68,0.36 -3.98,0.73 -3.98,0.73 -3.97,0.72 -3.97,0.72 -0.86,0.2 -0.87,0.18 0.08,2.69 0.08,2.69 0.45,0.36 0.45,0.36 -0.47,-0.02 -0.47,-0.02 -0.27,1.26 -0.27,1.26 0.16,0.32 0.16,0.32 z m 5.29,-2.68 -0.09,-0.01 -0.84,-1.19 -0.84,-1.19 2.54,0.41 2.54,0.41 0.28,0.3 0.28,0.3 -2.11,-0.27 -2.11,-0.27 0.22,0.76 0.22,0.76 z m -4.21,-0.67 -0.21,-0.01 0.01,-0.23 0.01,-0.23 0.21,0.01 0.21,0.01 -0.01,0.23 -0.01,0.23 z m 13.34,-1.27 -1.24,-0.08 0.74,-0.18 0.74,-0.18 0.5,0.26 0.5,0.26 z m 6.66,-0.51 -0.21,-0.01 0.01,-0.23 0.01,-0.23 0.21,0.01 0.21,0.01 -0.01,0.23 -0.01,0.23 z m -11.2,-1.5 -0.21,-0.01 0.28,-0.45 0.28,-0.45 0.21,0.01 0.21,0.01 -0.28,0.45 -0.28,0.45 z m 14.35,0.73 -0.55,-0.03 0.29,-0.3 0.29,-0.3 0.26,0.32 0.26,0.32 z m -18.18,-2.22 -1.25,0.14 0.02,-0.38 0.02,-0.38 1.24,0.06 1.24,0.06 -0.01,0.18 -0.01,0.18 z m 9.35,-0.09 -0.21,-0.01 0.01,-0.23 0.01,-0.23 0.21,0.01 0.21,0.01 -0.01,0.23 -0.01,0.23 z m -5.24,-0.74 -0.29,-0.01 -0.24,-0.48 -0.24,-0.48 1.16,0.07 1.16,0.07 -0.64,0.42 -0.64,0.42 z m -17.09,27.07 -1.83,-0.09 0.01,-0.2 0.01,-0.2 2.4,-0.4 2.4,-0.4 1.15,-0.19 1.15,-0.19 -0.01,0.39 -0.02,0.39 -1.56,0.04 -1.56,0.05 -0.16,0.45 -0.16,0.45 z m 7.91,0.4 -0.21,-0.01 0.01,-0.23 0.01,-0.23 0.21,0.01 0.21,0.01 -0.01,0.23 -0.01,0.23 z m -41.42,-3.07 -0.79,-0.08 0.55,-0.22 0.55,-0.22 0.24,0.29 0.24,0.31 z m 43.66,1.21 -0.23,1.27 0.11,-2.55 0.11,-2.55 0.12,1.29 0.12,1.29 z m -16.29,-1.7 -2.15,-0.06 -0.18,-0.37 -0.18,-0.37 1.72,0.24 1.72,0.24 0.61,0.19 0.61,0.19 z m 7.16,-0.51 -0.21,-0.01 0.01,-0.23 0.01,-0.23 0.21,0.01 0.21,0.01 -0.01,0.23 -0.01,0.23 z m -31.76,-4.87 -0.21,-0.01 0.01,-0.23 0.01,-0.23 0.21,0.01 0.21,0.01 -0.01,0.23 -0.01,0.23 z m 0.33,-2.78 -0.55,-0.03 0.29,-0.3 0.29,-0.3 0.26,0.32 0.26,0.32 z m 2.29,-0.34 -0.21,-0.01 0.01,-0.23 0.01,-0.23 0.21,0.01 0.21,0.01 -0.01,0.23 -0.01,0.23 z m 1.89,-0.37 -0.55,-0.03 0.29,-0.3 0.29,-0.3 0.26,0.32 0.26,0.32 z m 30.4,-2.19 -0.55,-0.03 0.29,-0.3 0.29,-0.3 0.26,0.32 0.26,0.32 z m -59.54,-8.13 -0.22,-0.01 -0.17,-2.48 -0.17,-2.48 -0.85,-2.35 -0.85,-2.35 -2.21,-2.9 -2.21,-2.9 -0.39,-2.31 -0.39,-2.31 0.14,-2.59 0.14,-2.59 0.5,-1.14 0.5,-1.14 -0.3,1.35 -0.3,1.35 -0.12,2.92 -0.12,2.92 0.72,2.03 0.72,2.03 1.87,2.65 1.87,2.65 0.88,2.45 0.88,2.45 0.15,2.37 0.15,2.37 z m 1.49,0.03 -0.28,0.26 0.34,-1.84 0.34,-1.84 0.12,-2.09 0.12,-2.09 0.35,1.13 0.35,1.13 -0.53,2.54 -0.53,2.54 z m 2.82,-4.59 -0.22,0.8 0.07,-1.63 0.07,-1.63 0.15,0.82 0.15,0.82 z m -7.06,-1.63 -0.21,-0.01 0.01,-0.23 0.01,-0.23 0.21,0.01 0.21,0.01 -0.01,0.23 -0.01,0.23 z m -0.27,-0.95 -0.1,-0.01 -1.19,-1.26 -1.19,-1.26 1.3,1.07 1.3,1.07 -0.01,0.2 -0.01,0.2 z m 7.01,-1.5 -0.21,-0.01 0.01,-0.23 0.01,-0.23 0.21,0.01 0.21,0.01 -0.01,0.23 -0.01,0.23 z m -9.82,-0.97 -0.17,-0.01 -0.92,-1.21 -0.92,-1.21 0.18,-0.16 0.18,-0.16 0.91,1.38 0.91,1.38 z m 9.51,-0.45 -0.19,-0.01 -0.87,-1.56 -0.87,-1.56 -1.7,-2.28 -1.7,-2.28 0.14,-2.22 0.14,-2.22 0.1,0.7 0.1,0.7 0.19,1.82 0.19,1.82 1.88,2.48 1.88,2.48 0.44,1.07 0.44,1.07 z M 28.52,14.75 28.31,14.74 26.73,12.53 25.15,10.32 24.74,8.68 24.33,7.04 24.56,6.8 l 0.23,-0.24 0.37,1.91 0.37,1.91 0.36,0.28 0.36,0.28 1.23,1.92 1.23,1.92 z m -6.96,-2.37 -0.29,0.3 0.03,-0.62 0.03,-0.62 0.26,0.32 0.26,0.32 z m 4.24,-8.47 -0.45,1.61 0.37,-2.54 0.37,-2.54 0.45,-3 0.45,-3 -0.36,3.94 -0.37,3.92 z"
   clip-path="url(#SVGID_4_)" />
</g><path
     class="st0"
     d="M 52.72,83.47"
     id="path104" /></g>
</svg>
