<?xml version="1.0" encoding="utf-8"?>
<!-- Generator: Adobe Illustrator 23.0.1, SVG Export Plug-In . SVG Version: 6.00 Build 0)  -->
<svg version="1.1" id="Layer_1" xmlns="http://www.w3.org/2000/svg" xmlns:xlink="http://www.w3.org/1999/xlink" x="0px" y="0px"
	 viewBox="0 0 100 100" style="enable-background:new 0 0 100 100;" xml:space="preserve">
<style type="text/css">
	.st0{fill:#FFFFFF;}
	.st1{fill:#EC8626;}
	.st2{fill:none;stroke:#000000;stroke-width:0.5;stroke-miterlimit:10;}
	.st3{fill:none;stroke:#000000;stroke-width:0.25;stroke-miterlimit:10;}
	.st4{fill:#110E0F;}
	.st5{fill:#CCCCCC;}
	.st6{clip-path:url(#SVGID_2_);fill:#110E0F;}
	.st7{fill:none;stroke:#000000;stroke-width:0.75;stroke-miterlimit:10;}
	.st8{clip-path:url(#SVGID_4_);fill:#FFFFFF;stroke:#FFFFFF;stroke-width:0.75;stroke-miterlimit:10;}
</style>
<path class="st0" d="M67.92,93.23c-0.21,1.8-2.1,3.14-4.04,3.13c-3.15,0.51-6.95,0.9-11.28,0.88c-4.51-0.02-8.46-0.47-11.7-1.04
	c-0.38,0.02-1.21,0.02-2.03-0.44c-1-0.56-1.62-1.6-1.75-2.88l-6.95-62.31c5.75-1,11.14-1.93,15.09-2.16
	c3.3-0.19,6.19-0.22,8.53-0.19c3.04,0.03,8.1,0.11,14.14,0.95c1.82,0.25,7.18,1.4,7.18,1.4c-0.36-0.08-0.31,1.17-0.7,4.43
	C73.42,41.6,69.4,80.39,67.92,93.23z"/>
<path class="st0" d="M90.43,91.27l-2.89,2.89c-2.14,2.14-5.6,2.14-7.74,0L21.18,35.56c-2.14-2.14-2.14-5.6,0-7.74l2.89-2.89
	c2.14-2.14,5.6-2.14,7.74,0l58.61,58.61C92.56,85.67,92.56,89.14,90.43,91.27z"/>
<g>
	<path class="st1" d="M63.6,94.68l-20.23,0.34c-1.92,0.03-3.55-1.27-3.76-3l-3.95-36.49c0.73-0.19,1.45-0.36,2.75-0.63
		c8.97-1.83,19.62-0.93,19.62-0.93c3.25,0.26,5.25,0.62,6.56,0.89c2.21,0.46,4.05,1.01,5.39,1.47c-1.2,11.65-3.74,36.37-3.74,36.37
		l0,0C66.24,92.7,65.89,92.96,63.6,94.68z"/>
	<path class="st2" d="M64.89,94.07c-3.07,0.6-6.66,1.08-10.68,1.18c-4.93,0.13-9.27-0.33-12.85-0.96c-0.25-0.09-0.76-0.31-1.22-0.85
		c-0.51-0.6-0.66-1.24-0.72-1.52l-6.1-61.28c5.27,1.08,11.69,1.94,18.99,1.99c7.83,0.05,14.67-0.85,20.21-1.99
		c-2.03,20.4-4.06,40.8-6.09,61.21c-0.06,0.32-0.23,0.98-0.74,1.58C65.4,93.75,65.11,93.95,64.89,94.07z"/>
	<path class="st3" d="M33.08,30.18c5.44-1.02,11.92-1.81,19.22-1.86c7.95-0.06,14.95,0.77,20.74,1.86"/>
	<polygon class="st4" points="52.24,95.8 51.06,95.76 49.04,95.43 47.02,95.1 45.29,94.76 43.56,94.42 42.09,93.59 40.62,92.76 
		39.9,92.34 39.17,91.92 38.97,89.84 38.77,87.75 38.26,81.33 37.76,74.91 37.43,71.51 37.1,68.11 36.41,62.07 35.71,56.03 
		35.21,50.78 34.7,45.54 34.85,45.12 35.01,44.7 35.03,46.16 35.06,47.62 35.82,47.36 36.58,47.11 37.85,46.75 39.12,46.39 
		40.04,46.64 40.96,46.9 42.13,47.59 43.3,48.29 43.9,48.29 44.49,48.29 44.49,48.62 44.49,48.94 45.22,49.98 45.95,51.02 
		47.23,49.42 48.5,47.82 50.01,47.63 51.52,47.44 53.1,47.71 54.68,47.97 54.34,48.36 54,48.74 53.26,48.3 52.53,47.86 51.21,48.1 
		49.9,48.35 49.01,49.14 48.13,49.92 47.15,51.43 46.18,52.94 46.18,55.9 46.18,58.86 46.65,58.86 47.11,58.86 47.34,57.51 
		47.57,56.16 47.37,55.15 47.18,54.14 47.84,52.94 48.5,51.73 49.34,51.11 50.18,50.5 50.75,50.85 51.31,51.21 50.47,51.44 
		49.62,51.68 48.87,53.09 48.13,54.51 48.04,55.08 47.94,55.65 47.71,57.21 47.48,58.76 48.77,58.99 50.05,59.23 53.64,59.24 
		57.22,59.24 57.42,58.34 57.62,57.44 57.66,54.38 57.7,51.31 58,51.31 58.3,51.31 58.3,52.44 58.3,53.58 58.8,53.58 59.3,53.58 
		59.11,52.54 58.93,51.5 59.94,50.42 60.94,49.34 62.15,49.79 63.36,50.24 63.36,50.44 63.36,50.64 62.86,50.42 62.37,50.21 
		61.34,50.61 60.32,51.01 60.14,51.84 59.95,52.67 60.09,53.59 60.24,54.52 59.97,55.28 59.7,56.03 59.68,55.54 59.65,55.04 
		59.31,55.28 58.98,55.51 58.94,54.64 58.9,53.77 58.73,54.52 58.57,55.28 58.3,55.65 58.03,56.03 57.92,57.54 57.8,59.05 
		58.98,58.98 60.16,58.9 63.02,58.67 65.88,58.43 66.39,58.21 66.89,57.99 67.15,58.05 67.41,58.11 68.64,57.54 69.88,56.96 
		69.51,56.55 69.14,56.14 68.16,56.05 67.17,55.96 66.84,55.73 66.5,55.5 64.18,55.23 61.86,54.97 62.55,54.62 63.24,54.28 
		65.15,54.83 67.06,55.39 67.07,54.96 67.07,54.52 67.32,54.95 67.57,55.38 68.95,55.84 70.32,56.3 70.34,57.87 70.35,59.43 
		70.14,58.43 69.93,57.43 68.34,58.29 66.76,59.15 66.6,58.97 66.43,58.79 64.14,59.2 61.84,59.61 59.76,59.7 57.68,59.79 
		57.53,60.93 57.37,62.07 57.52,62.25 57.67,62.43 57.94,61.94 58.21,61.45 58.42,63.24 58.64,65.02 59.03,65.54 59.42,66.06 
		59.05,66.9 58.68,67.74 58.18,70.76 57.68,73.78 57.45,77.69 57.22,81.6 56.95,82.6 56.68,83.6 56.61,82.09 56.54,80.58 
		56.31,79.44 56.08,78.31 55.86,80.05 55.64,81.79 55.81,83.26 55.99,84.73 55.59,84.02 55.19,83.3 55.43,79.3 55.67,75.29 
		55.94,74.91 56.22,74.53 56.59,69.44 56.97,64.34 57.14,62 57.31,59.66 51.88,59.54 46.45,59.43 46.37,59.62 46.3,59.81 
		46.57,64.91 46.85,70 46.84,71.14 46.82,72.27 46.8,74.35 46.77,76.42 47.27,79.07 47.77,81.71 47.92,79.44 48.07,77.18 
		48.13,81.03 48.2,84.87 48.54,85.11 48.87,85.34 48.87,86.26 48.87,87.18 48.61,87.18 48.35,87.18 47.9,85.51 47.46,83.84 
		46.99,84.04 46.51,84.24 46.48,81.28 46.45,78.31 46.2,79.25 45.96,80.2 45.7,69.82 45.44,59.43 45.05,59.15 44.66,58.88 
		45.13,58.87 45.59,58.86 45.38,57.07 45.17,55.28 45.46,53.3 45.74,51.33 45.12,50.69 44.49,50.06 44.49,50.37 44.49,50.67 
		43.9,50.11 43.31,49.55 41.8,48.69 40.28,47.83 38.49,48.03 36.7,48.24 36.22,48.69 35.74,49.14 35.74,50.23 35.74,51.31 
		35.92,51.31 36.11,51.31 37.1,50.74 38.09,50.16 38.09,49.79 38.09,49.42 38.94,49.42 39.78,49.42 39.78,49.8 39.78,50.18 
		40.54,50.21 41.29,50.24 40.87,50.43 40.46,50.62 40.8,51.34 41.15,52.07 41.87,52.07 42.58,52.07 42.33,52.35 42.08,52.63 
		40.52,52.63 38.97,52.63 38.73,53.9 38.5,55.16 38.77,56.35 39.05,57.54 39.28,65.28 39.51,73.02 39.77,73.21 40.03,73.4 
		40.24,77.56 40.45,81.71 40.77,84.35 41.1,87 41.11,87.28 41.13,87.56 41.5,87.56 41.87,87.56 41.67,86.15 41.47,84.73 
		41.82,85.66 42.17,86.59 42.31,86.75 42.46,86.91 42.98,86.43 43.5,85.95 43.27,86.61 43.04,87.27 43.85,87 44.66,86.74 
		43.9,87.36 43.15,87.98 43.15,88.34 43.15,88.7 43.46,88.7 43.77,88.7 44.28,88.13 44.78,87.56 44.97,87.56 45.16,87.56 
		45.08,88.4 45,89.25 45.67,89.31 46.35,89.38 48.37,89.62 50.39,89.86 51.23,90.02 52.07,90.18 54.7,90.28 57.33,90.37 
		57.62,90.76 57.91,91.15 53.81,90.9 49.72,90.65 48.12,90.38 46.52,90.1 46.52,90.5 46.52,90.9 46.3,91.53 46.08,92.16 
		46.72,92.05 47.36,91.94 48.27,92.21 49.19,92.48 48.99,93.04 48.8,93.6 49.34,93.6 49.88,93.6 49.8,93.13 49.72,92.66 51.4,92.64 
		53.09,92.63 53.51,92.33 53.94,92.04 53.7,91.6 53.46,91.15 53.96,91.6 54.45,92.05 56.63,91.93 58.81,91.8 60.3,91.35 61.79,90.9 
		63.21,91.13 64.62,91.37 64.82,90.79 65.02,90.21 65.4,90.21 65.77,90.21 65.66,90.54 65.55,90.88 64.08,92.24 62.62,93.6 
		63.12,93.6 63.61,93.6 64.03,93.04 64.45,92.47 64.75,92.47 65.04,92.47 65.04,92.94 65.04,93.42 62.43,94.31 59.82,95.2 
		56.62,95.52 53.42,95.84 52.24,95.8 	"/>
	<polygon class="st4" points="43.19,90.32 43.85,90.32 43.85,89.95 43.85,89.57 42.99,89.57 42.12,89.57 42.33,89.95 42.54,90.32 	
		"/>
	<polygon class="st4" points="41.71,91.94 42.47,91.9 42.36,91.53 42.24,91.15 41.6,91.13 40.96,91.12 40.53,90.83 40.11,90.54 
		39.75,90.79 39.38,91.05 40.17,91.51 40.96,91.97 41.71,91.94 	"/>
	<polygon class="st4" points="41.29,91.72 41.12,91.72 41.12,91.53 41.12,91.34 41.29,91.34 41.46,91.34 41.46,91.53 41.46,91.72 	
		"/>
	<polygon class="st4" points="45,90.58 45.5,90.58 45.5,90.21 45.5,89.83 45,89.83 44.49,89.83 44.49,90.21 44.49,90.58 	"/>
	<polygon class="st4" points="40.2,89.64 40.53,88.98 40.32,87.05 40.11,85.11 39.8,79.49 39.5,73.86 39.09,73.58 38.67,73.29 
		38.85,72.24 39.03,71.19 38.7,67.39 38.38,63.58 38.15,60.22 37.92,56.85 37.48,56.68 37.04,56.52 37.23,57.97 37.43,59.43 
		37.11,58.67 36.79,57.92 36.77,58.81 36.75,59.7 37.43,66.17 38.11,72.65 38.5,74.53 38.89,76.42 38.84,80.35 38.78,84.28 
		39.12,86.91 39.45,89.54 39.66,89.92 39.87,90.3 	"/>
	<polygon class="st4" points="56.82,88.81 56.65,88.81 56.65,88.63 56.65,88.44 56.82,88.44 56.98,88.44 56.98,88.63 56.98,88.81 	
		"/>
	<polygon class="st4" points="57.45,88.44 57.28,88.44 57.49,88.06 57.7,87.68 57.87,87.68 58.03,87.68 57.83,88.06 57.62,88.44 	
		"/>
	<polygon class="st4" points="56.5,86.15 56.34,86.62 56.35,85.48 56.36,84.35 56.52,85.02 56.67,85.69 56.5,86.15 	"/>
	<polygon class="st4" points="41.33,83.31 41.12,83.53 41.15,82.81 41.18,82.09 41.35,82.58 41.53,83.08 41.33,83.31 	"/>
	<polygon class="st4" points="46.01,81.52 45.84,81.52 45.84,81.33 45.84,81.14 46.01,81.14 46.18,81.14 46.18,81.33 46.18,81.52 	
		"/>
	<polygon class="st4" points="48.2,76.61 47.87,77.18 47.87,75.36 47.86,73.55 48.2,73.78 48.54,74.01 48.53,75.03 48.53,76.04 	"/>
	<polygon class="st4" points="41.97,58.49 41.8,58.49 41.8,58.3 41.8,58.11 41.97,58.11 42.14,58.11 42.14,58.3 42.14,58.49 	"/>
	<polygon class="st4" points="40.96,58.11 40.79,58.11 40.79,57.92 40.79,57.73 40.96,57.73 41.12,57.73 41.12,57.92 41.12,58.11 	
		"/>
	<polygon class="st4" points="59.87,57.45 59.7,57.92 59.7,56.98 59.7,56.03 59.87,56.5 60.04,56.98 	"/>
	<polygon class="st4" points="55.95,54.27 55.1,54.27 55.53,54.08 55.95,53.89 56.37,54.08 56.79,54.27 	"/>
	<polygon class="st4" points="61.67,54.27 60.83,54.27 61.25,54.08 61.67,53.89 62.09,54.08 62.51,54.27 	"/>
	<polygon class="st4" points="57.46,50.93 57.29,50.93 57.29,50.75 57.29,50.56 57.46,50.56 57.63,50.56 57.63,50.75 57.63,50.93 	
		"/>
	<polygon class="st4" points="58.66,50.48 58.32,51.12 58.31,50.34 58.3,49.56 59.06,48.78 59.82,48 60.66,47.73 61.5,47.46 
		60.25,48.65 58.99,49.85 58.66,50.48 	"/>
	<polygon class="st4" points="57.18,50.05 56.96,50.3 56.96,49.8 56.96,49.3 57.18,49.55 57.41,49.8 	"/>
	<polygon class="st4" points="56.37,49.18 56.11,49.36 55.46,48.82 54.81,48.29 55.52,48.29 56.24,48.29 56.44,48.64 56.63,48.99 	
		"/>
	<polygon class="st4" points="63.06,48.28 62.85,48.26 62.42,47.71 61.98,47.16 63.05,47.16 64.11,47.16 63.69,47.72 63.27,48.29 
		63.06,48.28 	"/>
	<polygon class="st4" points="65.04,47.91 64.59,47.91 64.82,47.66 65.04,47.41 65.27,47.66 65.49,47.91 	"/>
	<polygon class="st4" points="34.62,44.38 34.46,44.56 34.22,41.49 33.98,38.43 34.14,38.25 34.3,38.07 34.54,41.14 34.78,44.21 	
		"/>
	<path class="st4" d="M46.45,47.46"/>
</g>
<g>
	<g>
		<g>
			<path class="st1" d="M89.83,87.39L30.32,27.43c-0.48-0.48-1.3-0.46-1.84,0.05l-4.45,4.25c-0.54,0.51-0.58,1.32-0.1,1.8
				l59.52,59.96c0.4,0.41,1.06,0.47,1.59,0.14c0.87-0.54,1.89-1.29,2.92-2.3c0.84-0.83,1.49-1.65,1.99-2.38
				C90.29,88.44,90.24,87.8,89.83,87.39z"/>
			<path class="st5" d="M73.66,71.18l-43.6-43.93c-0.35-0.35-1.07-0.23-1.61,0.29L24,31.78c-0.54,0.51-0.69,1.21-0.34,1.57
				l43.6,43.93c0.29,0.3,0.86,0.27,1.36-0.08c0.83-0.58,1.82-1.36,2.85-2.36C72.32,74,73,73.2,73.53,72.51
				C73.91,72.02,73.96,71.47,73.66,71.18z"/>
		</g>
		<g>
			<defs>
				<polygon id="SVGID_3_" points="25.97,44.83 18.22,33.67 30.33,25.11 38.08,36.26 				"/>
			</defs>
			<clipPath id="SVGID_2_">
				<use xlink:href="#SVGID_3_"  style="overflow:visible;"/>
			</clipPath>
			<path id="path849" class="st6" d="M-10.57,105.96l-0.78-1.21l-1.07-2.25l-1.07-2.25l-0.86-1.97l-0.86-1.97l-0.2-2.05l-0.2-2.05
				l-0.09-1.01l-0.09-1.01l1.93-1.67l1.93-1.67l6.02-5.01l6.02-5.01l3.15-2.71l3.15-2.71l5.51-4.94l5.51-4.94l4.86-4.19l4.86-4.19
				l0.52-0.14l0.52-0.14l-1.43,1.05l-1.43,1.05l0.78,0.58l0.78,0.58l1.24,1.02l1.24,1.02l0.39,1.09l0.39,1.09l0.12,1.66l0.12,1.66
				l0.41,0.59l0.41,0.59l-0.32,0.23l-0.32,0.23l-0.52,1.46l-0.52,1.46l2.47,0.15l2.47,0.15l1.24,1.37l1.24,1.37l0.83,1.76l0.83,1.76
				l-0.62-0.07l-0.62-0.07l-0.07-1.04l-0.07-1.04l-1.16-1.14l-1.16-1.14l-1.39-0.34l-1.39-0.34l-2.17,0.09l-2.17,0.09l-2.94,2.08
				l-2.94,2.08l0.32,0.47l0.32,0.47l1.5-0.72l1.5-0.72l0.87-0.9l0.87-0.9l1.66-0.19l1.66-0.19l1.2,0.41l1.2,0.41l0.04,0.81
				l0.04,0.81l-0.83-0.68l-0.83-0.68l-1.92,0.25l-1.92,0.25l-0.64,0.31l-0.64,0.31l-1.7,0.86l-1.7,0.86l0.66,1.45l0.66,1.45
				l2.48,3.58l2.48,3.58l1.03-0.43l1.03-0.43l3.07-2.11l3.07-2.11l0.21,0.3l0.21,0.3l-1.12,0.79l-1.12,0.79l0.34,0.5l0.34,0.5
				l0.9-0.91l0.9-0.91l1.77,0.25l1.77,0.25l0.39,1.52l0.39,1.52l-0.2,0.14l-0.2,0.14l-0.13-0.64l-0.13-0.64l-1.11-0.74l-1.11-0.74
				l-0.95,0.4l-0.95,0.4l-0.82,0.79l-0.82,0.79l-0.94,0.26l-0.94,0.26l0.47-0.37l0.47-0.37l-0.47-0.17l-0.47-0.17l0.84-0.65
				l0.84-0.65l-0.86,0.36l-0.86,0.36l-0.56,0l-0.56,0l-1.58,0.95l-1.58,0.95l0.89,1.12l0.89,1.12l2.22,2.69l2.22,2.69l0.57,0.35
				l0.57,0.35l0.12,0.3l0.12,0.3l1.43,0.83l1.43,0.83l0.15-0.65l0.15-0.65l-0.6-1.05l-0.6-1.05l0-0.5l0-0.5l-1.35-2.51l-1.35-2.51
				l0.82,0.45l0.82,0.45l0.77,2.3l0.77,2.3l0.44-0.3l0.44-0.3l-0.26,0.55l-0.26,0.55l0.5,1.7l0.5,1.7l-1.54,1.11l-1.54,1.11
				l0.84-0.91l0.84-0.91l-1.95-0.98l-1.95-0.98l0.07-0.29l0.07-0.29l-2-2l-2-2l-1.53-2.01l-1.53-2.01l-1.24,0.64l-1.24,0.64
				l-0.07,0.27l-0.07,0.27l0.67-0.07l0.67-0.07l-1.62,1.47l-1.62,1.47l-0.25,0.75l-0.25,0.75l-1.08,0.22l-1.08,0.22l-3.35,1.62
				l-3.35,1.62l-4.04,2.51l-4.04,2.51l-1.18,0.43l-1.18,0.43l1.45-1.13l1.45-1.13l0.97-1.02l0.97-1.02l-1.88,1l-1.88,1l-1.34,1.21
				l-1.34,1.21l0.43-0.9l0.43-0.9l4.14-2.57l4.14-2.57l0.57,0.01L13.3,95l5.32-3.2l5.32-3.2l2.44-1.47l2.44-1.47l-3.66-5.5
				l-3.66-5.5l-0.24,0.06l-0.24,0.06l-4.87,3.85l-4.87,3.85l-1.13,0.78l-1.13,0.78l-2.08,1.43L4.87,86.9l-2.28,2.35L0.31,91.6
				l2.35-1.44l2.35-1.44l-3.78,2.76l-3.78,2.76l0,0.5l0,0.5l-0.91,0.65l-0.91,0.65l-0.18-0.26l-0.18-0.26l1.36-1.62l1.36-1.62
				l-0.53-0.33l-0.53-0.33l2.92-2.12l2.92-2.12l-1.11,0.42l-1.11,0.42l10.13-7.55l10.13-7.55l0.01-0.58l0.01-0.58l0.33,0.46
				l0.33,0.46l1.64-1.47l1.64-1.47l2.16-1.1l2.16-1.1l0.19-1.06l0.19-1.06l-0.3,0.21l-0.3,0.21l0.15-0.98l0.15-0.98l-0.2-2.12
				l-0.2-2.12l-1.45-1.64l-1.45-1.64l-0.78-0.17l-0.78-0.17l-1.08,0.76l-1.08,0.76l0.13,0.18l0.13,0.18l1.26,0.59l1.26,0.59
				l0.37-0.26l0.37-0.26l0.58,0.84l0.58,0.84l-0.37,0.26l-0.37,0.26l0.5,0.78l0.5,0.78l-0.48-0.28l-0.48-0.28l-0.48,0.85l-0.48,0.85
				l0.5,0.72l0.5,0.72l-0.46-0.05l-0.46-0.05l-1.08-1.55l-1.08-1.55l-1.41,0.66l-1.41,0.66l-0.99,1.11l-0.99,1.11l-7.52,5.66
				L3.2,77.26l0,0.4l0,0.4l-3.98,3.12l-3.98,3.12l-2.4,2.18l-2.4,2.18l-0.27,0.21l-0.27,0.21l0.26,0.37l0.26,0.37l1.27-1.19
				l1.27-1.19l-0.68,1l-0.68,1l-0.06,0.26l-0.06,0.26l0.84,0.18l0.84,0.18l-0.82,0.24l-0.82,0.24l0.83,0.62l0.83,0.62l-1.14-0.32
				l-1.14-0.32l-0.35,0.25l-0.35,0.25l0.22,0.31l0.22,0.31l0.91,0.11l0.91,0.11l0.13,0.19l0.13,0.19l-0.89,0.51l-0.89,0.51l0.4,0.72
				l0.4,0.72l1.17,2.19l1.17,2.19l0.42,0.96l0.42,0.96l1.73,2.69l1.73,2.69l-0.19,0.56l-0.19,0.56l-2.6-4.27l-2.6-4.27l-0.84-1.79
				l-0.84-1.79l-0.4,0.28l-0.4,0.28l-0.77,0.23l-0.77,0.23l0.55,0.56l0.55,0.56l0.37,1.1l0.37,1.1l-0.69,0.2l-0.69,0.2l0.38,0.54
				l0.38,0.54l0.41-0.42l0.41-0.42l1.19,1.67l1.19,1.67l0.58,0.22l0.58,0.22l0.28-0.55l0.28-0.55l-0.1,0.81l-0.1,0.81l1.63,2.09
				l1.63,2.09l1.49,1.17l1.49,1.17l0.75,1.58l0.75,1.58L3.13,115l0.72-0.21l0.26,0.37l0.26,0.38l-0.41,0.12l-0.41,0.12l-2.37-0.5
				l-2.37-0.5l0.34,0.5l0.34,0.5l0.85,0.02l0.85,0.02l0.21,0.3l0.21,0.3l-0.47,0.33l-0.47,0.33l-2.69-1.98l-2.69-1.98l-2.54-2.97
				l-2.54-2.97L-10.57,105.96L-10.57,105.96z M-9.73,104.89l0.45,0.65l0.37-0.26l0.37-0.26l-0.6-0.86l-0.6-0.86l-0.23,0.47
				l-0.23,0.47L-9.73,104.89z M-14.04,92.73l0.56,0.73l0.3-0.38l0.3-0.38l-0.43-0.65l-0.43-0.65l0-0.62l0-0.62l-0.51-0.19
				l-0.51-0.19l0.09,1.11L-14.6,92L-14.04,92.73L-14.04,92.73z M-14.11,92.16l-0.12-0.17l0.19-0.13l0.19-0.13l0.12,0.17l0.12,0.17
				l-0.19,0.13l-0.19,0.13L-14.11,92.16z M-10.42,95.06l0.35,0.5l0.37-0.26l0.37-0.26l-0.35-0.5l-0.35-0.5l-0.37,0.26l-0.37,0.26
				L-10.42,95.06z M-12.81,89.61l0.88-0.13l1.78-1.57l1.78-1.57l5.37-4.25l5.37-4.25l0-0.61l0-0.61l1.17-0.56l1.17-0.56l3.55-3
				l3.55-3l3.19-2.59l3.19-2.59l-0.14-0.56l-0.14-0.56l-1.31,1.22l-1.31,1.22l0.53-0.85l0.53-0.85l-0.9,0.6l-0.9,0.6l-5.95,5.22
				l-5.95,5.22L1,77.31l-1.6,1.72l-3.94,2.7l-3.94,2.7l-2.38,2.18l-2.38,2.18l-0.23,0.48l-0.23,0.48L-12.81,89.61z M1.22,117.44
				l-0.12-0.17l0.19-0.13l0.19-0.13l0.12,0.17l0.12,0.17l-0.19,0.13l-0.19,0.13L1.22,117.44z M2.03,117.81l-0.12-0.17l0.52-0.06
				l0.52-0.06l0.12,0.17l0.12,0.17l-0.52,0.06l-0.52,0.06L2.03,117.81z M5.55,116.97l-0.41-0.05l0.5-0.35l0.5-0.35l-0.09,0.4
				l-0.09,0.4L5.55,116.97z M1.96,103.44l-0.58,0.16l1.13-0.78l1.13-0.78l-0.56,0.62l-0.56,0.62L1.96,103.44L1.96,103.44z
				 M-5.74,86.29l-0.37-0.04l0.74-0.48l0.74-0.48L-5,85.81l-0.37,0.52L-5.74,86.29L-5.74,86.29z M-0.72,89.71l-0.12-0.17l0.19-0.13
				l0.19-0.13l0.12,0.17l0.12,0.17l-0.19,0.13l-0.19,0.13L-0.72,89.71z M5.67,88.45l-0.79,0.07l1.8-1.28l1.8-1.28l0,0.5l0,0.5
				l-1.01,0.71l-1.01,0.71L5.67,88.45z M20.32,108.54l-0.76,0.31l1.31-0.93l1.31-0.93l-0.55,0.62l-0.55,0.62L20.32,108.54z
				 M20.56,103.61l-0.73-0.09l0.9-0.64l0.9-0.64l-0.17,0.72l-0.17,0.72L20.56,103.61z M23.36,106.88l-0.59,0.16l0.94-0.66l0.94-0.66
				l-0.35,0.5l-0.35,0.5L23.36,106.88z M31.52,102.13l-0.76,0.31l1.31-0.93l1.31-0.93l-0.55,0.62l-0.55,0.62L31.52,102.13z
				 M29.36,98.13l-0.41-0.05l2.37-1.68l2.37-1.68l-0.06,0.26l-0.06,0.26l-1.9,1.46l-1.9,1.46L29.36,98.13z M35.68,99.67l-0.59,0.16
				l0.94-0.66l0.94-0.66l-0.35,0.5l-0.35,0.5L35.68,99.67z M19.34,69.51l-0.12-0.17l0.19-0.13l0.19-0.13l0.12,0.17l0.12,0.17
				l-0.19,0.13l-0.19,0.13L19.34,69.51z M19.01,68.24l-0.12-0.17l0.19-0.13l0.19-0.13l0.12,0.17l0.12,0.17l-0.19,0.13l-0.19,0.13
				L19.01,68.24z M32.79,86.67l-0.59,0.16l0.94-0.66l0.94-0.66L33.73,86l-0.35,0.5L32.79,86.67z M42.71,95.72l-0.76,0.31l1.5-1.05
				l1.5-1.05l-0.75,0.75l-0.75,0.75L42.71,95.72L42.71,95.72z M33.22,80.52l-0.58-0.84l0.48,0.29l0.48,0.29l0.1,0.55l0.1,0.55
				L33.22,80.52z M37.19,86.23l-0.58-0.84l0.48,0.29l0.48,0.29l0.1,0.55l0.1,0.55L37.19,86.23z M42.29,91.28l-0.18-0.25l1.75-1.06
				l1.75-1.06l0.31-1.6l0.31-1.6l0.22,0.32l0.22,0.32l-0.08,1.01l-0.08,1.01l2.51-0.11l2.51-0.11l0.25,0.61l0.25,0.61l0.78,0.17
				l0.78,0.17L53,90.11l-0.61,0.43l-0.43-0.62l-0.43-0.62l-1.56-0.24L48.4,88.8l-1.89,0.61l-1.89,0.61l-1.08,0.76l-1.08,0.76
				L42.29,91.28z M46.14,93.81l-0.94,0.45l1.69-1.19l1.69-1.19l-0.74,0.74l-0.74,0.74L46.14,93.81z M37.58,79.69l-0.12-0.17
				l0.19-0.13l0.19-0.13l0.12,0.17l0.12,0.17l-0.19,0.13l-0.19,0.13L37.58,79.69z M38.86,80.56L38,80.68l0.77-0.56l0.77-0.56
				l1.3,0.21l1.3,0.21l0.85,0.65l0.85,0.65l-2.06-0.42l-2.06-0.42L38.86,80.56L38.86,80.56z M38.26,78.79l-0.41-0.05l0.5-0.35
				l0.5-0.35l-0.09,0.4l-0.09,0.4L38.26,78.79z M38.57,77.36l-0.36-0.13l0.08-1.02l0.08-1.02l0.5,0.72l0.5,0.72l-0.21,0.44
				l-0.21,0.44L38.57,77.36z M49.54,91.85l-0.37-0.04l0.74-0.48l0.74-0.48l-0.37,0.52l-0.37,0.52L49.54,91.85L49.54,91.85z
				 M44.11,83.41l-0.13-0.22l0.25-0.82l0.25-0.82l0.74,1.06l0.74,1.06l-0.85-0.02l-0.85-0.02L44.11,83.41L44.11,83.41z M45.84,85.13
				l-0.31-0.45l0.41,0.05l0.41,0.05l-0.09,0.4l-0.09,0.4L45.84,85.13z M28.34,55.12l-0.12-0.17l0.19-0.13l0.19-0.13l0.12,0.17
				l0.12,0.17l-0.19,0.13l-0.19,0.13L28.34,55.12z M28.24,52.27l-0.28-0.03l2.87-2.39l2.87-2.39l0.29,0.03l0.29,0.03l-2.88,2.39
				l-2.88,2.39L28.24,52.27z M29.24,53.2l-0.25-0.36l0.52-0.06l0.52-0.06l0.1,0.15l0.1,0.15l-0.37,0.26l-0.37,0.26L29.24,53.2z
				 M38.87,66.95l-2.52-3.53l0.06-0.25l0.06-0.25l-1.93-3.65l-1.93-3.65l-0.18-1.38l-0.18-1.38l-0.24-1.21l-0.24-1.21l1.39-1.04
				l1.39-1.04l0.95-1.04l0.95-1.04l-1.19,0.3l-1.19,0.3l0.61-0.47l0.61-0.47l-0.24-0.71l-0.24-0.71l0.45,0.56l0.45,0.56l0.34-0.24
				l0.34-0.24l-1.22-0.89l-1.22-0.89l-0.26,0.19l-0.26,0.19l-1.24-1.26l-1.24-1.26l-2.41-1.81l-2.41-1.81l-0.75-0.34l-0.75-0.34
				l-0.35-0.51l-0.35-0.51l0.37-0.26l0.37-0.26l-0.63-0.93l-0.63-0.93l0.15-1.36l0.15-1.36l-0.33-0.52l-0.33-0.52l0.09-0.94
				l0.09-0.94l0.45-0.32l0.45-0.32l0,0.43l0,0.43l0.78-0.77l0.78-0.77l0.51,0.19l0.51,0.19l-1.12,0.79l-1.12,0.79l0,0.54l0,0.54
				l2.05-1.58l2.05-1.58l0.69,0.08l0.69,0.08l-1.02,0.46l-1.02,0.46l1.35,0.02l1.35,0.02l0.38,1.1l0.38,1.1l0.22-0.46l0.22-0.46
				l1.61,1.51l1.61,1.51l1.91,1.91l1.91,1.91l5.91,5.35l5.91,5.35l7.75,7.06l7.75,7.06l2.46,2.27l2.46,2.27l4.99,4.5l4.99,4.5
				l5.41,4.91l5.41,4.91l0.78,1.12l0.78,1.12l-0.27,1.14l-0.27,1.14l-2.1,1.84l-2.1,1.84l-0.92,0.32l-0.92,0.32l-1.41-1.11
				l-1.41-1.11l-2.68-2.37l-2.68-2.37l-2.35-2.1l-2.35-2.1l-1.6-1.48l-1.6-1.48l-0.65,0.89l-0.65,0.89l-4.7,2.42l-4.7,2.42l1.19-0.9
				l1.19-0.9l-0.22-0.31l-0.22-0.31l-1.27,0.57l-1.27,0.57l-1.18,0.92l-1.18,0.92l-0.74,0.47l-0.74,0.47l0.09-0.37l0.09-0.37
				l4.64-3.35l4.64-3.35l0,0.37l0,0.37l0.42-0.3l0.42-0.3l0,0.47l0,0.47l-1.32,0.7l-1.32,0.7l-0.32,0.72l-0.32,0.72l0.28,0.03
				l0.28,0.03l2.71-1.74l2.71-1.74l-0.51-0.64l-0.51-0.64l-0.75-0.48l-0.75-0.48l1.49,0.52l1.49,0.52l0.56-0.06l0.56-0.06
				l-0.25-0.35l-0.25-0.35l-4.06-3.78l-4.06-3.78l-2.94-2.7l-2.94-2.7l-1.65-1.83l-1.65-1.83l-0.7-0.26l-0.7-0.26l4.27,5.76
				l4.27,5.76l-1.26-1.12l-1.26-1.12l-4.24-6.05l-4.24-6.05l-1.95-1.58l-1.95-1.58l-0.11-0.71l-0.11-0.71l-0.54-0.62l-0.54-0.62
				l-2.32-2.07l-2.32-2.07l0,0.63l0,0.63l-0.52-0.19l-0.52-0.19l-0.19,0.4l-0.19,0.4L35.7,50.9l-1.67,1.41l-0.01,0.66l-0.01,0.66
				l0.18,0.28l0.18,0.28l0.23-0.47l0.23-0.47l0.28,0.4l0.28,0.4l0.26-0.77l0.26-0.77l0.44,0.16l0.44,0.16l-0.48,0.72l-0.48,0.72
				l-0.3,0.14l-0.3,0.14l0.07,0.94l0.07,0.94l2.69,4.76l2.69,4.76l1.03,2.53l1.03,2.53l-1.25-1.63l-1.25-1.63l0.54,1.37l0.54,1.37
				L38.87,66.95z M25.54,36.24l0.43,0.16l1.5-1.22l1.5-1.22l-0.12-0.47l-0.12-0.47l-1.09,0.3l-1.09,0.3l0.75-0.56l0.75-0.56
				l0.14-0.56l0.14-0.56l1.23-1.03l1.23-1.03l-0.3-0.72l-0.3-0.72l-0.23,0.47l-0.23,0.47l-0.59-0.37l-0.59-0.37l-0.23,0.48
				l-0.23,0.48l-0.25-0.36l-0.25-0.36l-1.47,1.04l-1.47,1.04l-0.45,0.62l-0.45,0.62l0.21,0.3l0.21,0.3l0.75-0.53l0.75-0.53
				l0.33,0.48l0.33,0.48l-0.6,0.74l-0.6,0.74l0.33,0.48l0.33,0.48l0.4-0.28l0.4-0.28l0,0.5l0,0.5l-0.75,0.53l-0.75,0.53L25.54,36.24
				z M26.1,30.7l-0.41-0.05l0.5-0.35l0.5-0.35l-0.09,0.4l-0.09,0.4L26.1,30.7z M26.53,31.37l-0.37-0.04l0.74-0.48l0.74-0.48
				l-0.37,0.52l-0.37,0.52L26.53,31.37L26.53,31.37z M27.24,37.23l0.36,0.25l1.48-0.85l1.48-0.85l-0.33-0.47l-0.33-0.47l-1.51,1.07
				l-1.51,1.07L27.24,37.23z M32.06,40.72l1.49,1.91l1.3,0.85l1.3,0.85l0.24-0.17l0.24-0.17l0.38,0.61l0.38,0.61l4.23,4.16
				l4.23,4.16l0.23-0.16l0.23-0.16l0.74,1.1l0.74,1.1l1.14,0.95l1.14,0.95l1.63,2.11l1.63,2.11l0.8,0.57l0.8,0.57l0.21-0.44
				l0.21-0.44l0.2,0.29l0.2,0.29l-0.15,0.64l-0.15,0.64l1.1,1.04l1.1,1.04l0.24-0.49l0.24-0.49l0.58,1.37l0.58,1.37l0.43-0.13
				l0.43-0.13l1.78,2.06l1.78,2.06l1.5,1.14l1.5,1.14l0.38-0.22l0.38-0.22l0.87-0.21l0.87-0.21l1.75-1.54l1.75-1.54l0.27-0.82
				l0.27-0.82l-1.41-1.53L70.41,65l-2.23-1.6l-2.23-1.6l-0.61-0.88l-0.61-0.88l-5.01-4.75l-5.01-4.75l-2.58-2.19l-2.58-2.19
				l-4.01-3.69l-4.01-3.69l-2.81-2.4l-2.81-2.4l-0.71,0.5l-0.71,0.5l-0.15-0.71l-0.15-0.71l-0.57,1.02l-0.57,1.02l0.72-0.07
				l0.72-0.07l-1.56,1.11l-1.56,1.11l-0.41,0.57l-0.41,0.57L32.06,40.72L32.06,40.72z M34.16,36.95l-0.12-0.17l0.19-0.13l0.19-0.13
				l0.12,0.17l0.12,0.17l-0.19,0.13l-0.19,0.13L34.16,36.95z M35.59,35.53l-0.41-0.05l0.5-0.35l0.5-0.35l-0.09,0.4L36,35.57
				L35.59,35.53z M57.61,64.27l-0.31-0.45l0.41,0.05l0.41,0.05l-0.09,0.4l-0.09,0.4L57.61,64.27z M62.26,66.88l-0.03-0.1l-0.15-0.9
				l-0.15-0.9l0.55,0.74l0.55,0.74l-0.37,0.26l-0.37,0.26L62.26,66.88L62.26,66.88z M65.97,71.79l-0.58,0.04l0.65-0.47l0.65-0.47
				l0.5,0.78l0.5,0.78l-0.56-0.35l-0.56-0.35L65.97,71.79L65.97,71.79z M36.68,46.21l0.12,0.17l0.19-0.13l0.19-0.13l-0.12-0.17
				l-0.12-0.17l-0.19,0.13l-0.19,0.13L36.68,46.21z M30.61,36.67l0.22,0.31l0.89-0.32l0.89-0.32l0.23-0.48l0.23-0.48l-0.22-0.32
				l-0.22-0.32l-1.12,0.79l-1.12,0.79L30.61,36.67z M29.79,33.61l0.41,0.05l0.09-0.4l0.09-0.4l-0.5,0.35l-0.5,0.35L29.79,33.61z
				 M29.42,32.54l0.24,0.34l0.88-0.95l0.88-0.95l0.07-0.23l0.07-0.23l-1.19,0.84l-1.19,0.84L29.42,32.54z M31.64,34.1l0.16,0.26
				l0.86-0.61l0.86-0.61l0.17-0.72l0.17-0.72l-0.3-0.44l-0.3-0.44l-0.4,0.28l-0.4,0.28l-0.49,1.23l-0.49,1.23L31.64,34.1L31.64,34.1
				z M67.84,75.22l0.71,0.62l1.13,0.84l1.13,0.84l0.24-0.49l0.24-0.49l0.25,0.9l0.25,0.9l0.98,0.87l0.98,0.87l0.01-0.7l0.01-0.7
				l0.52,1.24l0.52,1.24l0.9,0.74l0.9,0.74l0-0.55l0-0.55l1.44,2.07l1.44,2.07l1.45,0.68l1.45,0.68l0.8,1.16l0.8,1.16l1.89,1.43
				l1.89,1.43l0.85-0.91l0.85-0.91l1.35-1.24l1.35-1.24l0.18-0.37l0.18-0.37l-0.47-0.67l-0.47-0.67l0.47-0.05l0.47-0.05l-1.17-1.31
				l-1.17-1.31l-1.29-1.09l-1.29-1.09l-2.97-2.66l-2.97-2.66l-2.96-2.67l-2.96-2.67l-0.67-0.57l-0.67-0.57l-2.05,1.69l-2.05,1.69
				l-0.01,0.57l-0.01,0.57l-0.27-0.38l-0.27-0.38l-1.15,0.55l-1.15,0.55l-0.15,0.31l-0.15,0.31L67.84,75.22L67.84,75.22z
				 M73.13,77.74l-0.04-0.08l0.42-1.37l0.42-1.37l1.21,2.23l1.21,2.23l-0.07,0.4l-0.07,0.4l-1.06-1.81l-1.06-1.81l-0.46,0.63
				l-0.46,0.63L73.13,77.74z M71.11,74.04l-0.12-0.17l0.19-0.13l0.19-0.13l0.12,0.17l0.12,0.17l-0.19,0.13l-0.19,0.13L71.11,74.04z
				 M80.16,83.7l-0.69-1.02l0.59,0.47l0.59,0.47l0.1,0.55l0.1,0.55L80.16,83.7L80.16,83.7z M84.58,88.6l-0.12-0.17l0.19-0.13
				l0.19-0.13l0.12,0.17l0.12,0.17l-0.19,0.13l-0.19,0.13L84.58,88.6z M78.99,78.95l-0.12-0.17l0.52-0.06l0.52-0.06l0.12,0.17
				L80.14,79l-0.52,0.06l-0.52,0.06L78.99,78.95z M87.08,90.59l-0.31-0.45l0.41,0.05l0.41,0.05l-0.09,0.4l-0.09,0.4L87.08,90.59z
				 M77.84,75.05l-0.87-0.89l0.31-0.22l0.31-0.22l0.7,1.01l0.7,1.01l-0.14,0.1l-0.14,0.1L77.84,75.05z M83.55,82.3l-0.12-0.17
				L83.62,82l0.19-0.13l0.12,0.17l0.12,0.17l-0.19,0.13l-0.19,0.13L83.55,82.3z M80.97,77.76l-0.17-0.23l0.23-0.47l0.23-0.47
				l0.65,0.95l0.65,0.95l-0.71-0.25l-0.71-0.25L80.97,77.76L80.97,77.76z M49.5,80.75l-1.03-1.49l0.16-0.11l0.16-0.11l1.76,1.64
				l1.76,1.64l0.84,0.78L54,83.88l-0.31,0.22l-0.31,0.22l-0.98-1.19l-0.98-1.19l-0.45,0.15l-0.45,0.15L49.5,80.75L49.5,80.75z
				 M53.96,87.17L53.84,87l0.19-0.13l0.19-0.13l0.12,0.17l0.12,0.17l-0.19,0.13l-0.19,0.13L53.96,87.17z M31.35,52.95l-0.42-0.67
				l0.5,0.3l0.5,0.3l-0.09,0.36l-0.09,0.36L31.35,52.95L31.35,52.95z M56.77,87.8l-1.13,0.59l2.06-1.46l2.06-1.46l-0.93,0.87
				l-0.93,0.87L56.77,87.8z M48.26,74.05l-1.26-1.72l0.18-0.36l0.18-0.36l0.85,1.49l0.85,1.49l0.23,0.59l0.23,0.59L48.26,74.05z
				 M52.99,79.33l-0.12-0.17l0.19-0.13l0.19-0.13l0.12,0.17l0.12,0.17l-0.19,0.13L53.1,79.5L52.99,79.33z M37.61,51.57L37.5,51.4
				l0.19-0.13l0.19-0.13l0.12,0.17l0.12,0.17l-0.19,0.13l-0.19,0.13L37.61,51.57z M39.98,50.15l-0.31-0.45l0.41,0.05l0.41,0.05
				l-0.09,0.4l-0.09,0.4L39.98,50.15z M41.64,51.74l-0.12-0.17l0.19-0.13l0.19-0.13l0.12,0.17l0.12,0.17l-0.19,0.13l-0.19,0.13
				L41.64,51.74z M43.07,52.98l-0.31-0.45l0.41,0.05l0.41,0.05l-0.09,0.4l-0.09,0.4L43.07,52.98z M63.13,75.42l-0.31-0.45l0.41,0.05
				l0.41,0.05l-0.09,0.4l-0.09,0.4L63.13,75.42z M33.54,23.98l-0.12-0.18l1.83-1.63l1.83-1.63l1.32-2.09l1.32-2.09l0.93-3.47
				l0.93-3.47l1.57-1.7l1.57-1.7l2.11-1.45l2.11-1.45l1.19-0.3l1.19-0.3L50.09,3.1l-1.23,0.58L46.5,5.35l-2.36,1.67L42.99,8.8
				l-1.15,1.79l-0.94,3.06l-0.94,3.06l-1.38,2.17l-1.38,2.17l-1.76,1.55l-1.76,1.55L33.54,23.98z M34.41,25.17l-0.37-0.06l1.65-0.85
				l1.65-0.85l1.7-1.17l1.7-1.17l-0.67,0.96L39.39,23l-2.3,1.12l-2.3,1.12L34.41,25.17L34.41,25.17z M39.7,24.61l-0.76,0.31
				l1.31-0.93l1.31-0.93l-0.55,0.62l-0.55,0.62L39.7,24.61z M36.71,18.1l-0.12-0.17l0.19-0.13l0.19-0.13l0.12,0.17L37.2,18
				l-0.19,0.13l-0.19,0.13L36.71,18.1z M37.29,17.31l-0.06-0.09l0.26-1.69l0.26-1.69l-0.05,1.66l-0.05,1.66l-0.16,0.11l-0.16,0.11
				L37.29,17.31L37.29,17.31z M42.7,21.89l-0.12-0.17l0.19-0.13l0.19-0.13l0.12,0.17l0.12,0.17l-0.19,0.13l-0.19,0.13L42.7,21.89z
				 M37.53,13.64l-0.09-0.14l0.39-1.45l0.39-1.45l0.24,0.04l0.24,0.04l-0.53,1.54l-0.53,1.54L37.53,13.64z M43.62,20.79l-0.11-0.16
				l0.69-1.62l0.69-1.62l0.75-2.7L46.4,12l1.82-1.23l1.82-1.23l-0.49,0.5l-0.49,0.5l-1.31,1.24l-1.31,1.24L45.66,16l-0.8,2.97
				l-0.57,0.99l-0.57,0.99L43.62,20.79z M41.44,16.85l-0.12-0.17l0.78-2.57l0.78-2.57l1.04-1.31l1.04-1.31l0.32,0.04l0.32,0.04
				l-1.27,1.44l-1.27,1.44l0,0.45l0,0.45l-0.76,2.12l-0.76,2.12L41.44,16.85z M39.09,9.98l-0.41-0.05l0.5-0.35l0.5-0.35l-0.09,0.4
				l-0.09,0.4L39.09,9.98z M48.26,8.18l-1.53,0.61l2.21-1.25l2.21-1.25l2.62-1.46l2.62-1.46l-3.3,2.09l-3.3,2.09L48.26,8.18z"/>
		</g>
	</g>
	<g>
		<line class="st7" x1="30.32" y1="27.43" x2="90.16" y2="87.88"/>
		<g>
			<line class="st7" x1="26.87" y1="36.98" x2="84.07" y2="93.81"/>
			<path class="st7" d="M89.83,87.39c0.04,0.49,0.04,1.37-0.44,2.3c-0.31,0.61-0.74,1.05-1.45,1.65c-0.82,0.68-2.09,1.6-3.88,2.47"
				/>
		</g>
	</g>
</g>
<g>
	<defs>
		<rect id="SVGID_1_" x="15.1" y="-7.89" width="20.98" height="33.41"/>
	</defs>
	<clipPath id="SVGID_4_">
		<use xlink:href="#SVGID_1_"  style="overflow:visible;"/>
	</clipPath>
	<path id="path849_1_" class="st8" d="M67.73,111.6l-1.45-0.12l-2.47-0.53l-2.47-0.53l-2.11-0.53l-2.11-0.53l-1.76-1.11l-1.76-1.11
		l-0.87-0.56l-0.87-0.56l-0.14-2.58l-0.14-2.58l-0.29-7.93L51.01,85l-0.22-4.2l-0.22-4.2l-0.54-7.47l-0.54-7.47l-0.35-6.48
		l-0.35-6.48l0.21-0.5l0.21-0.5l-0.04,1.8l-0.04,1.8L50.06,51L51,50.73l1.58-0.36l1.58-0.36l1.11,0.37l1.11,0.37l1.41,0.93
		l1.41,0.93l0.73,0.04l0.73,0.04l-0.02,0.4l-0.02,0.4l0.84,1.32l0.84,1.32l1.65-1.89l1.65-1.89l1.87-0.14l1.87-0.14l1.93,0.42
		l1.93,0.42l-0.44,0.45l-0.44,0.45l-0.88-0.59l-0.88-0.59l-1.63,0.22l-1.63,0.22L66.19,54l-1.13,0.91l-1.28,1.79l-1.28,1.79
		l-0.15,3.65l-0.15,3.65l0.58,0.03l0.58,0.03l0.35-1.65l0.35-1.65l-0.18-1.25l-0.18-1.25l0.88-1.44l0.88-1.44l1.07-0.71l1.07-0.71
		l0.68,0.47l0.68,0.47l-1.06,0.24l-1.06,0.24l-0.99,1.69l-0.99,1.69l-0.15,0.7l-0.15,0.7l-0.36,1.89l-0.36,1.89l1.57,0.37l1.57,0.37
		l4.41,0.23l4.41,0.23l0.29-1.09l0.29-1.09l0.21-3.77l0.21-3.77l0.37,0.02l0.37,0.02l-0.06,1.39l-0.06,1.39L78,60.08l0.61,0.03
		l-0.17-1.29l-0.17-1.29l1.29-1.26L80.85,55l1.46,0.62l1.46,0.62l-0.01,0.25l-0.01,0.25l-0.6-0.29l-0.6-0.29l-1.28,0.43L80,57.01
		l-0.27,1.01l-0.27,1.01l0.13,1.15l0.13,1.15l-0.37,0.91l-0.37,0.91l0-0.61l0-0.61l-0.43,0.27l-0.43,0.27l0-1.07l0-1.07l-0.24,0.92
		l-0.24,0.92l-0.35,0.45l-0.35,0.45L76.7,64.9l-0.22,1.85l1.45-0.02l1.45-0.02l3.53-0.11l3.53-0.11l0.63-0.24l0.63-0.24l0.31,0.09
		l0.31,0.09l1.55-0.63l1.55-0.63l-0.43-0.53l-0.43-0.53l-1.21-0.17l-1.21-0.17l-0.4-0.31l-0.4-0.31l-2.84-0.47l-2.84-0.47l0.87-0.38
		l0.87-0.38l2.32,0.81l2.32,0.81l0.03-0.54l0.03-0.54l0.28,0.54l0.28,0.54l1.67,0.65l1.67,0.65l-0.06,1.92l-0.06,1.92l-0.21-1.24
		l-0.21-1.24l-1.99,0.96l-1.99,0.96l-0.19-0.24l-0.19-0.24l-2.84,0.36l-2.84,0.36l-2.56-0.02l-2.56-0.02l-0.25,1.39l-0.25,1.39
		l0.17,0.23l0.17,0.23l0.36-0.58l0.36-0.58l0.18,2.21l0.18,2.21l0.45,0.67l0.45,0.67l-0.49,1.01l-0.49,1.01l-0.77,3.68l-0.77,3.68
		l-0.49,4.8l-0.49,4.8l-0.38,1.21l-0.38,1.21L73.82,95l-0.01-1.86l-0.22-1.41l-0.22-1.41L73,92.45l-0.37,2.12l0.14,1.82l0.14,1.82
		l-0.46-0.9L72,96.41l0.5-4.91l0.5-4.91l0.36-0.45l0.36-0.45l0.73-6.25l0.73-6.25l0.33-2.87l0.33-2.87l-6.67-0.48L62.5,66.5
		l-0.1,0.23l-0.1,0.23l0.07,6.29l0.07,6.29l-0.07,1.39l-0.07,1.39l-0.14,2.55l-0.14,2.55l0.47,3.28l0.47,3.28l0.31-2.78l0.31-2.78
		l-0.12,4.74l-0.12,4.74l0.4,0.31l0.4,0.31l-0.05,1.13l-0.05,1.13l-0.32-0.02l-0.32-0.02l-0.45-2.09l-0.45-2.09l-0.59,0.22
		l-0.59,0.22l0.11-3.65l0.11-3.65l-0.35,1.15l-0.35,1.15l0.22-12.79l0.22-12.79l-0.46-0.37l-0.46-0.37l0.57,0.02l0.57,0.02
		l-0.16-2.22l-0.16-2.22l0.45-2.41l0.45-2.41l-0.73-0.82l-0.73-0.82l-0.02,0.38l-0.02,0.38l-0.7-0.73l-0.7-0.73L57.34,53l-1.82-1.15
		l-2.21,0.14l-2.21,0.14l-0.62,0.52l-0.62,0.52l-0.06,1.34l-0.06,1.34l0.23,0.01l0.23,0.01l1.25-0.65l1.25-0.65l0.02-0.45l0.02-0.45
		l1.04,0.05l1.04,0.05l-0.02,0.46l-0.02,0.46l0.93,0.08l0.93,0.08l-0.52,0.21l-0.52,0.21l0.39,0.91l0.39,0.91l0.88,0.04l0.88,0.04
		l-0.33,0.33l-0.33,0.33l-1.91-0.1l-1.91-0.1l-0.35,1.54l-0.35,1.54l0.27,1.48l0.27,1.48l-0.12,9.53l-0.12,9.53l0.31,0.25l0.31,0.25
		l0.04,5.12l0.04,5.12l0.27,3.27l0.27,3.27l0,0.35l0,0.35l0.46,0.02l0.46,0.02l-0.17-1.75l-0.17-1.75l0.38,1.17l0.38,1.17l0.17,0.21
		l0.17,0.21l0.67-0.56l0.67-0.56l-0.31,0.8l-0.31,0.8l1.01-0.28l1.01-0.28l-0.96,0.72l-0.96,0.72l-0.02,0.44l-0.02,0.44l0.38,0.02
		l0.38,0.02l0.65-0.67l0.65-0.67l0.23,0.01l0.23,0.01l-0.14,1.03l-0.14,1.03l0.83,0.12l0.83,0.12l2.47,0.42l2.47,0.42l1.03,0.25
		l1.03,0.25l3.23,0.28l3.23,0.28l0.34,0.5l0.34,0.5l-5.03-0.56l-5.03-0.56l-1.95-0.44l-1.95-0.44l-0.02,0.49l-0.02,0.49l-0.3,0.76
		l-0.3,0.76l0.79-0.09l0.79-0.09l1.11,0.39l1.11,0.39L63.88,108l-0.27,0.68l0.67,0.03l0.67,0.03l-0.08-0.59l-0.08-0.59l2.08,0.09
		l2.08,0.09l0.54-0.33l0.54-0.33l-0.27-0.56l-0.27-0.56l0.59,0.58l0.59,0.58l2.69-0.02l2.69-0.02l1.86-0.46l1.86-0.46l1.73,0.38
		l1.73,0.38l0.28-0.7l0.28-0.7l0.46,0.02l0.46,0.02l-0.16,0.41l-0.16,0.41l-1.87,1.59l-1.87,1.59l0.61,0.03l0.61,0.03l0.55-0.67
		l0.55-0.67l0.36,0.02l0.36,0.02l-0.03,0.58l-0.03,0.58l-3.25,0.93l-3.25,0.93l-3.95,0.2l-3.95,0.2L67.73,111.6L67.73,111.6z
		 M67.39,110.27l0.8,0.04l0.02-0.46l0.02-0.46l-1.06-0.05l-1.06-0.05l0.24,0.48l0.24,0.48L67.39,110.27z M54.98,106.19l0.93,0.01
		l-0.12-0.47l-0.12-0.47l-0.79-0.06l-0.79-0.06l-0.5-0.38l-0.5-0.38l-0.46,0.29l-0.46,0.29l0.94,0.62l0.94,0.62L54.98,106.19
		L54.98,106.19z M54.48,105.89l-0.21-0.01l0.01-0.23l0.01-0.23l0.21,0.01l0.21,0.01l-0.01,0.23l-0.01,0.23L54.48,105.89z
		 M59.09,104.73l0.62,0.03l0.02-0.46l0.02-0.46l-0.62-0.03l-0.62-0.03l-0.02,0.46l-0.02,0.46L59.09,104.73z M53.24,103.27l0.44-0.79
		l-0.16-2.4l-0.16-2.4l-0.08-6.93l-0.08-6.93l-0.49-0.38l-0.49-0.38l0.28-1.28l0.28-1.28l-0.21-4.7l-0.21-4.7l-0.1-4.16l-0.1-4.16
		l-0.54-0.23l-0.54-0.23l0.16,1.8l0.16,1.8l-0.35-0.95l-0.35-0.95l-0.08,1.09l-0.08,1.09l0.5,8l0.5,8l0.38,2.35l0.38,2.35
		l-0.27,4.83l-0.27,4.83l0.27,3.26l0.27,3.26l0.24,0.48l0.24,0.48L53.24,103.27z M84.23,109.26l-0.21-0.01l0.01-0.23l0.01-0.23
		l0.21,0.01l0.21,0.01l-0.01,0.23l-0.01,0.23L84.23,109.26z M85.03,108.83l-0.21-0.01l0.28-0.45l0.28-0.45l0.21,0.01l0.21,0.01
		l-0.28,0.45l-0.28,0.45L85.03,108.83z M86.53,105.5l-0.29,0.3l0.03-0.62l0.03-0.62l0.26,0.32l0.26,0.32L86.53,105.5z M73.47,100
		l-0.23,0.56l0.07-1.39l0.07-1.39l0.16,0.83l0.16,0.83L73.47,100L73.47,100z M54.96,95.55l-0.26,0.27l0.07-0.89l0.07-0.89l0.19,0.62
		l0.19,0.62L54.96,95.55L54.96,95.55z M60.81,93.64l-0.21-0.01l0.01-0.23l0.01-0.23l0.21,0.01l0.21,0.01l-0.01,0.23l-0.01,0.23
		L60.81,93.64z M63.76,87.74l-0.43,0.68l0.09-2.23l0.09-2.23l0.4,0.31l0.4,0.31l-0.06,1.25l-0.06,1.25L63.76,87.74z M88.92,88.44
		l-0.22,0.8l0.07-1.63l0.07-1.63l0.15,0.82l0.15,0.82L88.92,88.44z M85.12,85.2l-0.52,0.53l0.05-1.11l0.05-1.11l0.47,0.58l0.47,0.58
		L85.12,85.2z M89.48,84.98l-0.23,0.57l0.05-1.16l0.05-1.16l0.18,0.59l0.18,0.59L89.48,84.98z M90.72,75.5l-0.22,0.8l0.07-1.63
		l0.07-1.63l0.15,0.82l0.15,0.82L90.72,75.5z M86.18,74.76l-0.29,0.3l0.12-2.94l0.12-2.94l0.17,0.21l0.17,0.21l0,2.43l0,2.43
		L86.18,74.76z M91.33,70.64l-0.23,0.57l0.05-1.16l0.05-1.16l0.18,0.59l0.18,0.59L91.33,70.64z M57.04,65.06l-0.21-0.01l0.01-0.23
		l0.01-0.23l0.21,0.01l0.21,0.01l-0.01,0.23l-0.01,0.23L57.04,65.06z M55.82,64.54l-0.21-0.01l0.01-0.23l0.01-0.23l0.21,0.01
		l0.21,0.01l-0.01,0.23l-0.01,0.23L55.82,64.54z M79.12,64.9l-0.23,0.57l0.05-1.16l0.05-1.16l0.18,0.59l0.18,0.59L79.12,64.9z
		 M92.51,62.56l-0.22,0.8l0.09-1.86l0.09-1.86l0.14,1.06l0.14,1.06L92.51,62.56L92.51,62.56z M74.45,60.75l-1.04-0.05l0.53-0.21
		l0.53-0.21l0.51,0.26l0.51,0.26L74.45,60.75z M81.49,61.11l-1.04-0.05l0.53-0.21l0.53-0.21l0.51,0.26l0.51,0.26L81.49,61.11z
		 M88.69,60.15l-0.31-0.02l0.23-2.06l0.23-2.06l-1.09-1.24l-1.09-1.24l0.4,0.02l0.4,0.02l0.76,0.68l0.76,0.68l1.46-2.08l1.46-2.08
		l0.64,0.18l0.64,0.18l0.61-0.52l0.61-0.52l-0.03,0.75l-0.03,0.75l-0.77-0.04l-0.77-0.04l-1.16,1.1l-1.16,1.1l-0.69,1.89l-0.69,1.89
		l-0.06,1.33l-0.06,1.33L88.69,60.15z M93.1,58.63l-0.22,1.04l0.09-2.09l0.09-2.09l0.14,1.05l0.14,1.05L93.1,58.63z M76.49,56.74
		l-0.21-0.01l0.01-0.23l0.01-0.23l0.21,0.01l0.21,0.01l-0.01,0.23l-0.01,0.23L76.49,56.74z M77.98,56.26l-0.44,0.76l0.03-0.96
		l0.03-0.96l0.97-0.91l0.97-0.91L80.59,53l1.05-0.28l-1.61,1.39l-1.61,1.39L77.98,56.26L77.98,56.26z M76.19,55.64l-0.29,0.3
		l0.03-0.62l0.03-0.62l0.26,0.32l0.26,0.32L76.19,55.64z M75.24,54.51l-0.33,0.21l-0.77-0.7l-0.77-0.7l0.88,0.04l0.88,0.04
		l0.22,0.44l0.22,0.44L75.24,54.51z M93.64,54.69l-0.26,0.27l0.07-0.89l0.07-0.89l0.19,0.62l0.19,0.62L93.64,54.69L93.64,54.69z
		 M83.52,53.82l-0.26-0.03l-0.51-0.71l-0.51-0.71l1.31,0.07l1.31,0.07l-0.55,0.67l-0.55,0.67L83.52,53.82L83.52,53.82z M85.97,53.5
		l-0.55-0.03l0.29-0.3l0.29-0.3l0.26,0.32l0.26,0.32L85.97,53.5z M51.08,48.94l-0.21-0.01l0.01-0.23l0.01-0.23l0.21,0.01l0.21,0.01
		l-0.01,0.23l-0.01,0.23L51.08,48.94z M48.74,47.26l-0.2,0.21l-0.14-3.78l-0.14-3.78l0.21-0.21l0.21-0.21l0.13,3.79l0.13,3.79
		L48.74,47.26z M50.1,47.03L49.66,47l0.28-0.45l0.28-0.45l0.18,0.01l0.18,0.01l-0.02,0.46l-0.02,0.46L50.1,47.03z M67.08,47.83
		l-4.39-0.16l-0.16-0.2l-0.16-0.2l-4.12-0.72l-4.12-0.72l-1.22-0.71l-1.22-0.71l-1.12-0.56l-1.12-0.56l0.03-1.75l0.03-1.75
		l-0.24-1.41l-0.24-1.41l-0.5,1.14l-0.5,1.14l0.01-0.78l0.01-0.78l-0.72-0.25l-0.72-0.25l0.73-0.02l0.73-0.02l0.02-0.42l0.02-0.42
		l-1.47,0.43l-1.47,0.43l-0.01,0.33l-0.01,0.33l-1.77,0.22l-1.77,0.22l-2.94,0.81l-2.94,0.81l-0.74,0.39l-0.74,0.39l-0.63-0.03
		l-0.63-0.03l0.02-0.46L33,39.64l-1.14-0.07l-1.14-0.07l-1-0.96l-1-0.96l-0.62-0.06l-0.62-0.06l-0.7-0.65l-0.7-0.65l0.02-0.56
		l0.02-0.56l0.34,0.26l0.34,0.26l-0.14-1.1l-0.14-1.1l0.47-0.29l0.47-0.29l-0.06,1.39l-0.06,1.39l0.43,0.33l0.43,0.33l0-2.62l0-2.62
		l0.49-0.5l0.49-0.5l-0.27,1.1l-0.27,1.1l0.85-1.07l0.85-1.07l1.11,0.37l1.11,0.37l-0.23-0.46l-0.23-0.46l2.2-0.35l2.2-0.35
		l2.71-0.35l2.71-0.35l7.95-1.43l7.95-1.43l10.46-1.84l10.46-1.84l3.35-0.57l3.35-0.57l6.69-1.22l6.69-1.22l7.28-1.3l7.28-1.3
		l1.38,0.07l1.38,0.07l0.75,0.92l0.75,0.92l0.17,2.82l0.17,2.82l-0.31,0.94l-0.31,0.94l-1.76,0.44l-1.76,0.44l-3.56,0.68l-3.56,0.68
		l-3.14,0.58l-3.14,0.58l-2.18,0.37l-2.18,0.37l0.31,1.07l0.31,1.07l-0.97,5.27l-0.97,5.27l0.02-1.51l0.02-1.51l-0.38-0.02
		l-0.38-0.02l-0.33,1.38l-0.33,1.38l0.01,1.52l0.01,1.52l-0.08,0.89l-0.08,0.89l-0.24-0.3l-0.24-0.3l0.19-5.79l0.19-5.79l0.3,0.23
		l0.3,0.23l0.02-0.52l0.02-0.52l0.38,0.29l0.38,0.29l-0.26,1.49l-0.26,1.49l0.38,0.7l0.38,0.7l0.2-0.21l0.2-0.21l0.28-3.24
		l0.28-3.24l-0.83,0.01l-0.83,0.01l-0.84,0.3l-0.84,0.3l1.34-0.87l1.34-0.87l0.3-0.49l0.3-0.49l-0.44-0.02l-0.44-0.02l-5.54,0.91
		l-5.54,0.91l-3.98,0.69l-3.98,0.69l-2.49,0.19l-2.49,0.19l-0.64,0.4l-0.64,0.4l7.26,0.14l7.26,0.14l-1.67,0.32l-1.67,0.32
		l-7.47-0.35l-7.47-0.35l-2.47,0.59l-2.47,0.59l-0.63-0.35l-0.63-0.35l-0.83,0.04l-0.83,0.04l-3.1,0.57l-3.1,0.57l0.5,0.39l0.5,0.39
		l-0.48,0.3l-0.48,0.3l0.2,0.4l0.2,0.4l0.09,2.21l0.09,2.21l0.52,0.41l0.52,0.41l0.33,0.02l0.33,0.02l-0.24-0.48l-0.24-0.48
		l0.49,0.02l0.49,0.02l-0.46-0.68l-0.46-0.68l0.4-0.25l0.4-0.25l0.28,0.83l0.28,0.83l-0.08,0.33l-0.08,0.33l0.79,0.53l0.79,0.53
		l5.48,0.79l5.48,0.79l2.67,0.74l2.67,0.74l-2.08-0.01l-2.08-0.01l1.44,0.42l1.44,0.42L67.08,47.83z M34.22,39.5l0.39-0.24
		l-0.05-1.96l-0.05-1.96l-0.45-0.19l-0.45-0.19l-0.43,1.06l-0.43,1.06l0.01-0.95l0.01-0.95l-0.37-0.46l-0.37-0.46l-0.06-1.63
		l-0.06-1.63l-0.77-0.2l-0.77-0.2l0.23,0.47l0.23,0.47l-0.66,0.24l-0.66,0.24l0.24,0.48l0.24,0.48l-0.44-0.02l-0.44-0.02l-0.08,1.82
		l-0.08,1.82l0.22,0.75l0.22,0.75l0.37,0.02l0.37,0.02l0.04-0.93l0.04-0.93l0.59,0.03l0.59,0.03l0.22,0.94l0.22,0.94l0.59,0.03
		l0.59,0.03l0.02-0.49l0.02-0.49l0.4,0.31l0.4,0.31l-0.04,0.93l-0.04,0.93L34.22,39.5z M30.13,35.62l-0.29,0.3l0.03-0.62l0.03-0.62
		L30.15,35l0.26,0.32L30.13,35.62z M30.93,35.69l-0.26,0.27l0.07-0.89l0.07-0.89L31,34.8l0.19,0.62L30.93,35.69L30.93,35.69z
		 M36.06,38.75l0.43-0.14l0.23-1.71l0.23-1.71l-0.58-0.03l-0.58-0.03l-0.08,1.88l-0.08,1.88L36.06,38.75z M41.84,37.04l2.46-0.01
		l1.49-0.52l1.49-0.52l0.01-0.29l0.01-0.29l0.72,0.07l0.72,0.07l5.95-0.81l5.95-0.81l0.01-0.28l0.01-0.28l1.35,0.09l1.35,0.09
		l1.47-0.32l1.47-0.32l2.7,0l2.7,0l0.95-0.29l0.95-0.29l-0.22-0.44l-0.22-0.44l0.36,0.02l0.36,0.02L74.29,32l0.42,0.52l1.51-0.24
		l1.51-0.24l-0.24-0.49l-0.24-0.49l1.46,0.38l1.46,0.38l0.16-0.42l0.16-0.42l2.75-0.15l2.75-0.15l1.84-0.5l1.84-0.5l0.05-0.44
		l0.05-0.44l0.37-0.83l0.37-0.83l-0.15-2.35l-0.15-2.35l-0.49-0.73l-0.49-0.73l-2.1,0.18l-2.1,0.18l-2.67,0.79l-2.67,0.79
		l-1.09-0.06l-1.09-0.06l-6.91,1.07l-6.91,1.07l-3.35,0.72l-3.35,0.72l-5.44,0.93l-5.44,0.93l-3.67,0.76l-3.67,0.76l-0.04,0.88
		l-0.04,0.88l-0.66-0.32l-0.66-0.32l0.46,1.09l0.46,1.09l0.39-0.62l0.39-0.62l-0.08,1.94l-0.08,1.94l0.2,0.69l0.2,0.69L41.84,37.04
		L41.84,37.04z M40.13,33.02l-0.21-0.01l0.01-0.23l0.01-0.23l0.21,0.01l0.21,0.01l-0.01,0.23l-0.01,0.23L40.13,33.02z M39.87,30.99
		l-0.29,0.3l0.03-0.62l0.03-0.62l0.26,0.32l0.26,0.32L39.87,30.99z M76.54,31.15l-0.55-0.03l0.29-0.3l0.29-0.3l0.26,0.32l0.26,0.32
		L76.54,31.15z M81.51,29.04L81.4,29l-0.81-0.44l-0.81-0.44l0.93,0.01l0.93,0.01l-0.02,0.46l-0.02,0.46L81.51,29.04L81.51,29.04z
		 M87.74,29.11l-0.33,0.5l0.03-0.81l0.03-0.81l0.93,0.08l0.93,0.08l-0.63,0.23l-0.63,0.23L87.74,29.11L87.74,29.11z M49.11,36.74
		l0.21,0.01l0.01-0.23l0.01-0.23l-0.21-0.01l-0.21-0.01l-0.01,0.23l-0.01,0.23L49.11,36.74z M37.71,35.69l0.39,0.02l0.3-0.91
		l0.3-0.91l-0.24-0.48l-0.24-0.48l-0.39-0.02l-0.39-0.02l-0.06,1.39l-0.06,1.39L37.71,35.69z M34.74,34.46l0.29-0.3l-0.26-0.32
		l-0.26-0.32l-0.03,0.62l-0.03,0.62L34.74,34.46z M33.66,34.09l0.42,0.02l-0.22-1.29l-0.22-1.29l-0.14-0.2l-0.14-0.2L33.3,32.6
		l-0.06,1.47L33.66,34.09z M36.28,33.28l0.31,0.03l0.05-1.07l0.05-1.07l-0.47-0.58l-0.47-0.58l-0.54-0.03l-0.54-0.03l-0.02,0.49
		l-0.02,0.49l0.68,1.15l0.68,1.15L36.28,33.28L36.28,33.28z M91.65,29.73l0.94-0.19l1.37-0.39l1.37-0.39l-0.24-0.49l-0.24-0.49
		l0.88,0.36l0.88,0.36l1.3-0.25L99.2,28l-0.56-0.44l-0.56-0.44l1.32,0.35l1.32,0.35l1.15-0.26l1.15-0.26l-0.44-0.34l-0.44-0.34
		l2.55,0.13l2.55,0.13l1.44-0.74l1.44-0.74l1.43,0.07l1.43,0.07l2.31-0.63l2.31-0.63l-0.2-1.24l-0.2-1.24l-0.15-1.85l-0.15-1.85
		l-0.19-0.38l-0.19-0.38l-0.83-0.04l-0.83-0.04l0.25-0.41l0.25-0.41l-1.77,0.12l-1.77,0.12l-1.68,0.36l-1.68,0.36l-3.98,0.73
		l-3.98,0.73l-3.97,0.72l-3.97,0.72L91.7,20.5l-0.87,0.18l0.08,2.69l0.08,2.69l0.45,0.36l0.45,0.36l-0.47-0.02l-0.47-0.02
		l-0.27,1.26l-0.27,1.26l0.16,0.32l0.16,0.32L91.65,29.73L91.65,29.73z M96.94,27.05l-0.09-0.01l-0.84-1.19l-0.84-1.19l2.54,0.41
		l2.54,0.41l0.28,0.3l0.28,0.3l-2.11-0.27l-2.11-0.27l0.22,0.76l0.22,0.76L96.94,27.05z M92.73,26.38l-0.21-0.01l0.01-0.23
		l0.01-0.23l0.21,0.01l0.21,0.01l-0.01,0.23l-0.01,0.23L92.73,26.38z M106.07,25.11l-1.24-0.08l0.74-0.18l0.74-0.18l0.5,0.26
		l0.5,0.26L106.07,25.11L106.07,25.11z M112.73,24.6l-0.21-0.01l0.01-0.23l0.01-0.23l0.21,0.01l0.21,0.01l-0.01,0.23l-0.01,0.23
		L112.73,24.6z M101.53,23.1l-0.21-0.01l0.28-0.45l0.28-0.45l0.21,0.01l0.21,0.01l-0.28,0.45l-0.28,0.45L101.53,23.1z M115.88,23.83
		l-0.55-0.03l0.29-0.3l0.29-0.3l0.26,0.32l0.26,0.32L115.88,23.83z M97.7,21.61l-1.25,0.14l0.02-0.38l0.02-0.38l1.24,0.06l1.24,0.06
		l-0.01,0.18l-0.01,0.18L97.7,21.61z M107.05,21.52l-0.21-0.01l0.01-0.23l0.01-0.23l0.21,0.01l0.21,0.01l-0.01,0.23l-0.01,0.23
		L107.05,21.52z M101.81,20.78l-0.29-0.01l-0.24-0.48l-0.24-0.48l1.16,0.07l1.16,0.07l-0.64,0.42l-0.64,0.42L101.81,20.78
		L101.81,20.78z M84.72,47.85l-1.83-0.09l0.01-0.2l0.01-0.2l2.4-0.4l2.4-0.4l1.15-0.19l1.15-0.19L90,46.57l-0.02,0.39L88.42,47
		l-1.56,0.05l-0.16,0.45l-0.16,0.45L84.72,47.85L84.72,47.85z M92.63,48.25l-0.21-0.01l0.01-0.23l0.01-0.23l0.21,0.01l0.21,0.01
		l-0.01,0.23l-0.01,0.23L92.63,48.25z M51.21,45.18l-0.79-0.08l0.55-0.22l0.55-0.22l0.24,0.29L52,45.26L51.21,45.18L51.21,45.18z
		 M94.87,46.39l-0.23,1.27l0.11-2.55l0.11-2.55l0.12,1.29l0.12,1.29L94.87,46.39z M78.58,44.69l-2.15-0.06l-0.18-0.37l-0.18-0.37
		l1.72,0.24l1.72,0.24l0.61,0.19l0.61,0.19L78.58,44.69z M85.74,44.18l-0.21-0.01l0.01-0.23l0.01-0.23l0.21,0.01l0.21,0.01
		l-0.01,0.23l-0.01,0.23L85.74,44.18z M53.98,39.31l-0.21-0.01l0.01-0.23l0.01-0.23L54,38.85l0.21,0.01l-0.01,0.23l-0.01,0.23
		L53.98,39.31z M54.31,36.53l-0.55-0.03l0.29-0.3l0.29-0.3l0.26,0.32l0.26,0.32L54.31,36.53z M56.6,36.19l-0.21-0.01l0.01-0.23
		l0.01-0.23l0.21,0.01l0.21,0.01l-0.01,0.23l-0.01,0.23L56.6,36.19z M58.49,35.82l-0.55-0.03l0.29-0.3l0.29-0.3l0.26,0.32l0.26,0.32
		L58.49,35.82z M88.89,33.63l-0.55-0.03l0.29-0.3l0.29-0.3l0.26,0.32l0.26,0.32L88.89,33.63z M29.35,25.5l-0.22-0.01l-0.17-2.48
		l-0.17-2.48l-0.85-2.35l-0.85-2.35l-2.21-2.9l-2.21-2.9l-0.39-2.31l-0.39-2.31l0.14-2.59l0.14-2.59l0.5-1.14l0.5-1.14l-0.3,1.35
		l-0.3,1.35l-0.12,2.92l-0.12,2.92l0.72,2.03l0.72,2.03l1.87,2.65l1.87,2.65l0.88,2.45l0.88,2.45l0.15,2.37l0.15,2.37L29.35,25.5z
		 M30.84,25.53l-0.28,0.26l0.34-1.84l0.34-1.84l0.12-2.09l0.12-2.09l0.35,1.13l0.35,1.13l-0.53,2.54l-0.53,2.54L30.84,25.53
		L30.84,25.53z M33.66,20.94l-0.22,0.8l0.07-1.63l0.07-1.63l0.15,0.82l0.15,0.82L33.66,20.94z M26.6,19.31l-0.21-0.01l0.01-0.23
		l0.01-0.23l0.21,0.01l0.21,0.01l-0.01,0.23l-0.01,0.23L26.6,19.31z M26.33,18.36l-0.1-0.01l-1.19-1.26l-1.19-1.26l1.3,1.07
		l1.3,1.07l-0.01,0.2l-0.01,0.2L26.33,18.36L26.33,18.36z M33.34,16.86l-0.21-0.01l0.01-0.23l0.01-0.23l0.21,0.01l0.21,0.01
		l-0.01,0.23l-0.01,0.23L33.34,16.86z M23.52,15.89l-0.17-0.01l-0.92-1.21l-0.92-1.21l0.18-0.16l0.18-0.16l0.91,1.38l0.91,1.38
		L23.52,15.89z M33.03,15.44l-0.19-0.01l-0.87-1.56l-0.87-1.56l-1.7-2.28l-1.7-2.28l0.14-2.22l0.14-2.22l0.1,0.7l0.1,0.7l0.19,1.82
		l0.19,1.82l1.88,2.48l1.88,2.48l0.44,1.07l0.44,1.07L33.03,15.44z M28.52,14.75l-0.21-0.01l-1.58-2.21l-1.58-2.21l-0.41-1.64
		l-0.41-1.64l0.23-0.24l0.23-0.24l0.37,1.91l0.37,1.91l0.36,0.28l0.36,0.28l1.23,1.92l1.23,1.92L28.52,14.75z M21.56,12.38
		l-0.29,0.3l0.03-0.62l0.03-0.62l0.26,0.32l0.26,0.32L21.56,12.38z M25.8,3.91l-0.45,1.61l0.37-2.54l0.37-2.54l0.45-3l0.45-3
		l-0.36,3.94L26.26,2.3L25.8,3.91z"/>
</g>
<path class="st0" d="M52.72,83.47"/>
</svg>
