<?xml version="1.0" encoding="UTF-8" standalone="no"?>
<svg
   xmlns:dc="http://purl.org/dc/elements/1.1/"
   xmlns:cc="http://creativecommons.org/ns#"
   xmlns:rdf="http://www.w3.org/1999/02/22-rdf-syntax-ns#"
   xmlns:svg="http://www.w3.org/2000/svg"
   xmlns="http://www.w3.org/2000/svg"
   xmlns:sodipodi="http://sodipodi.sourceforge.net/DTD/sodipodi-0.dtd"
   xmlns:inkscape="http://www.inkscape.org/namespaces/inkscape"
   inkscape:version="1.0 (4035a4fb49, 2020-05-01)"
   sodipodi:docname="coffee.svg"
   id="svg92"
   xml:space="preserve"
   style="enable-background:new 0 0 100 100;"
   viewBox="0 0 100 100"
   y="0px"
   x="0px"
   version="1.1"><metadata
   id="metadata98"><rdf:RDF><cc:Work
       rdf:about=""><dc:format>image/svg+xml</dc:format><dc:type
         rdf:resource="http://purl.org/dc/dcmitype/StillImage" /></cc:Work></rdf:RDF></metadata><defs
   id="defs96" /><sodipodi:namedview
   inkscape:current-layer="svg92"
   inkscape:window-maximized="1"
   inkscape:window-y="-9"
   inkscape:window-x="-9"
   inkscape:cy="37.119387"
   inkscape:cx="6.5773749"
   inkscape:zoom="2.9344931"
   showgrid="false"
   id="namedview94"
   inkscape:window-height="1001"
   inkscape:window-width="1920"
   inkscape:pageshadow="2"
   inkscape:pageopacity="0"
   guidetolerance="10"
   gridtolerance="10"
   objecttolerance="10"
   borderopacity="1"
   bordercolor="#666666"
   pagecolor="#ffffff" />
<style
   id="style2"
   type="text/css">
	.st0{display:none;}
	.st1{display:inline;opacity:0.77;}
	.st2{fill:#FDFDFD;}
	.st3{fill:#121212;}
	.st4{fill:#A3743A;}
	.st5{fill:#A27843;}
	.st6{fill:#151412;}
	.st7{fill:#FCFCFC;}
	.st8{fill:#F7F7F7;}
	.st9{fill:#DCDCDC;}
	.st10{fill:#F5F5F5;}
	.st11{fill:#6D3E02;}
	.st12{fill:#76480E;}
	.st13{fill:#1F1F1F;}
	.st14{fill:#9B6B2E;}
	.st15{fill:#222222;}
	.st16{fill:#1A1A1A;}
	.st17{fill:#FBFBFB;}
	.st18{fill:none;}
	.st19{fill:#FFFFFF;stroke:#000000;stroke-miterlimit:10;}
	.st20{fill:none;stroke:#FFFFFF;stroke-width:5;stroke-miterlimit:10;}
	.st21{fill:none;stroke:#000000;stroke-miterlimit:10;}
	.st22{fill:#B15341;}
	.st23{fill:none;stroke:#000000;stroke-width:0.5;stroke-miterlimit:10;}
	.st24{fill:none;stroke:#FF895B;stroke-width:2;stroke-miterlimit:10;}
</style>
<g
   class="st0"
   id="Layer_1">
	<g
   id="g54"
   class="st1">
		<g
   id="g52">
			<path
   id="path4"
   d="M0.42,50.42c0-16.18,0.02-32.36-0.03-48.54c0-1.24,0.25-1.49,1.49-1.49c32.36,0.04,64.72,0.04,97.08,0     c1.24,0,1.49,0.25,1.49,1.49c-0.04,32.36-0.04,64.72,0,97.08c0,1.24-0.25,1.49-1.49,1.49c-32.36-0.04-64.72-0.04-97.08,0     c-1.24,0-1.5-0.25-1.49-1.49C0.43,82.78,0.42,66.6,0.42,50.42z M48.37,24.72c0.5-3.87-0.6-7.1-3.68-9.61     c-1.7-1.39-1.99-3.21-1.37-5.27c0.27-0.89,0.84-1.71,0.78-2.77c-4.06,2.53-4.54,6.39-1.07,9.4c2.57,2.23,4.12,4.8,4.04,8.25     c-2.76,0.23-5.54,0.33-8.28,0.73c-6.04,0.88-11.99,2.12-17.37,5.26c-1.87,1.09-2.98,2.53-3.04,4.81     c-0.22,8.11,0.58,16.06,3.37,23.73c1.15,3.17,1.16,3.13-2.14,4.23c-4.35,1.46-8.67,3.02-11.93,6.46c-2.73,2.88-2.68,6.4,0.02,9.3     c1.93,2.07,4.33,3.43,6.89,4.54c8.12,3.52,16.72,4.91,25.46,5.53c13.07,0.93,26.06,0.41,38.78-3.1c4.88-1.35,9.69-3,13.45-6.65     c3.17-3.08,3.12-6.7,0.08-9.9c-1.68-1.76-3.85-2.8-6.12-4.19c6.93-3.62,8.67-9.77,8.72-16.68c0.03-3.63-2.24-5.76-5.9-5.83     c-2.36-0.04-4.72-0.07-7.08,0.02c-1.24,0.05-1.69-0.2-1.58-1.58c0.16-1.93-0.09-3.89,0.03-5.82c0.14-2.16-0.88-3.57-2.58-4.62     c-0.88-0.55-1.79-1.06-2.73-1.48c-6.54-2.93-13.49-4.1-20.58-4.59c-0.02-2.41,0.18-4.83-0.78-7.15c-1.77-4.27-3-8.61-0.89-13.11     c-0.78-0.29-0.97,0.16-1.23,0.45c-3.06,3.41-3.86,7.2-2,11.49c1.12,2.59,2.34,5.2,1.57,8.17C50.29,24.74,49.33,24.73,48.37,24.72     z M57.74,7.02c-3.41,2.17-4.03,5.23-1.62,8.01c1.19,1.38,1.22,2.85,0.96,4.48c-0.06,0.39-0.75,0.77-0.1,1.22     c2.47-1.9,2.92-4.17,1.03-6.56c-1.25-1.58-1.22-3.13-0.69-4.87C57.54,8.61,58.19,8,57.74,7.02z"
   class="st2" />
			<path
   id="path6"
   d="M54.58,24.9c7.09,0.49,14.03,1.66,20.58,4.59c0.94,0.42,1.85,0.94,2.73,1.48c1.7,1.06,2.71,2.46,2.58,4.62     c-0.12,1.93,0.13,3.89-0.03,5.82c-0.11,1.38,0.34,1.62,1.58,1.58c2.36-0.09,4.72-0.06,7.08-0.02c3.65,0.06,5.93,2.2,5.9,5.83     c-0.06,6.91-1.79,13.06-8.72,16.68c2.27,1.38,4.44,2.42,6.12,4.19c3.04,3.2,3.09,6.82-0.08,9.9c-3.75,3.65-8.56,5.3-13.45,6.65     c-12.72,3.51-25.71,4.03-38.78,3.1c-8.74-0.62-17.34-2.02-25.46-5.53c-2.56-1.11-4.96-2.46-6.89-4.54     c-2.7-2.9-2.75-6.42-0.02-9.3c3.26-3.45,7.58-5.01,11.93-6.46c3.3-1.1,3.29-1.07,2.14-4.23c-2.79-7.67-3.59-15.62-3.37-23.73     c0.06-2.28,1.17-3.72,3.04-4.81c5.37-3.14,11.33-4.38,17.37-5.26c2.74-0.4,5.52-0.5,8.28-0.73c0.33,0.49,0.35,0.98,0.01,1.48     c-4.31-0.01-8.56,0.57-12.76,1.43c-3.93,0.81-7.76,1.96-11.36,3.79c-2.19,1.11-3.22,2.68-3.2,5.24     c0.04,5.34,0.26,10.65,1.5,15.86c1.47,6.17,3.68,12,8.11,16.75c0.2,0.28,0.36,0.59,0.59,0.83c5.37,5.43,11.69,7.99,19.5,8     c8.99,0.02,15.92-3.36,21.4-10.19c0.63-0.79,1.27-1.08,2.26-1.09c4.04-0.04,7.97-0.69,11.75-2.19c4.84-1.92,7.26-5.63,8.09-10.58     c0.35-0.12,0.34-0.41,0.32-0.71c0.06-0.26,0.11-0.51,0.17-0.77c0.39-0.85,0.32-1.77,0.33-2.66c0.02-3.98-1.53-5.58-5.47-5.67     c-1.66-0.04-3.33-0.05-4.99-0.08c-2.85-0.68-5.12,0.18-6.78,3.04c-0.48-1.66-0.19-2.97,0.92-3.37c1.83-0.65,1.75-1.93,1.73-3.35     c-0.02-1.73-0.03-3.45-0.06-5.18c-0.02-1.24-0.37-2.31-1.64-2.84c-0.54-0.67-1.31-0.96-2.06-1.31     c-6.74-3.21-13.96-4.35-21.31-4.94C54.03,25.71,54.1,25.24,54.58,24.9z M21.1,84.67c0.68,0.46,1.47,0.57,2.26,0.69     c0.53,0.15,1.06,0.32,1.6,0.44c12.64,2.87,25.42,3.23,38.26,1.99c7.66-0.74,15.23-2.14,22.32-5.34c2.54-1.14,4.94-2.53,6.69-4.79     c1.25-1.63,1.62-3.4,0.58-5.23c-1.63-2.86-4.48-4.21-7.23-5.71c-1.57-0.85-2.78,0.31-4.16,0.44c-0.78,0.08-1.54,0.34-2.55,0.57     c0.66,0.42,1.12,0.7,1.57,0.99c3.93,2.54,3.91,5.54-0.07,8.01c-2.32,1.44-4.91,2.26-7.54,2.86c-14.12,3.22-28.31,3.22-42.52,0.64     c-3.88-0.7-7.75-1.67-11.05-3.99c-3.08-2.16-3.04-4.85-0.01-7.08c1.75-1.29,3.8-1.95,6.15-2.8c-1.04-0.76-0.74-2.86-2.38-2.44     c-5.04,1.28-10.02,2.88-13.96,6.52c-2.82,2.61-2.85,5.72,0.01,8.29C12.48,81.81,16.58,83.71,21.1,84.67z M50.05,80.79     c7.72-0.09,15.24-0.61,22.61-2.48c2.89-0.73,5.74-1.59,8.12-3.5c1.21-0.97,1.95-2.19,0.65-3.52c-1.83-1.87-4.07-3.1-6.74-3.27     c-1.46-0.09-2.64,0.25-3.7,1.6c-8.28,10.53-23.01,12.25-33.74,7.44c-4.18-1.87-7.57-4.82-10.38-8.44     c-0.38-0.49-0.57-1.24-1.59-0.86c-2.01,0.75-4.05,1.44-5.72,2.84c-1.77,1.48-1.76,2.79,0.04,4.26c1.92,1.56,4.21,2.38,6.54,3.04     C34.01,80.13,42.08,80.68,50.05,80.79z"
   class="st3" />
			<path
   id="path8"
   d="M54.58,24.9c-0.48,0.34-0.55,0.81-0.44,1.34c-0.93,1.76-1.86,3.52-2.8,5.29c-0.21,0.4-0.54,0.71-0.99,0.51     c-0.48-0.21-0.06-0.58-0.01-0.87c0.28-1.64,0.57-3.27,0.85-4.91c0.02-0.5,0.03-1,0.05-1.51c0.77-2.97-0.45-5.58-1.57-8.17     c-1.86-4.3-1.06-8.08,2-11.49c0.26-0.29,0.45-0.74,1.23-0.45c-2.11,4.51-0.87,8.84,0.89,13.11     C54.76,20.07,54.56,22.49,54.58,24.9z"
   class="st4" />
			<path
   id="path10"
   d="M47.09,26.2c0.34-0.49,0.32-0.99-0.01-1.48c0.07-3.45-1.48-6.02-4.04-8.25c-3.47-3.02-3-6.87,1.07-9.4     c0.07,1.06-0.51,1.88-0.78,2.77c-0.62,2.06-0.34,3.87,1.37,5.27c3.08,2.52,4.18,5.75,3.68,9.61c-0.01,0.49-0.03,0.98-0.04,1.47     c-0.67,0.53-0.2,1.68-1.06,2.03C47.22,27.56,47.15,26.88,47.09,26.2z"
   class="st5" />
			<path
   id="path12"
   d="M57.74,7.02C58.19,8,57.54,8.61,57.33,9.3c-0.53,1.74-0.56,3.29,0.69,4.87c1.89,2.39,1.44,4.66-1.03,6.56     c-0.65-0.45,0.03-0.83,0.1-1.22c0.26-1.62,0.23-3.1-0.96-4.48C53.72,12.25,54.33,9.2,57.74,7.02z"
   class="st5" />
			<path
   id="path14"
   d="M48.33,26.18c0.01-0.49,0.03-0.98,0.04-1.47c0.96,0.01,1.91,0.02,2.87,0.03c-0.02,0.5-0.03,1-0.05,1.51     C50.24,26.23,49.29,26.21,48.33,26.18z"
   class="st6" />
			<path
   id="path16"
   d="M48.33,26.18c0.95,0.02,1.91,0.05,2.86,0.07c-0.29,1.64-0.58,3.27-0.86,4.91c-0.05,0.29-0.47,0.66,0.01,0.87     c0.45,0.2,0.78-0.11,0.99-0.51c0.93-1.76,1.87-3.52,2.8-5.29c7.35,0.58,14.57,1.72,21.31,4.94c0.75,0.36,1.52,0.64,2.06,1.31     c-0.07,0.45,0.09,0.99-0.45,1.28c-1.23-0.77-2.28-2.02-4.24-1.57c1.62,0.96,3.58,1.52,3.49,3.38c-0.09,1.75-2,2.23-3.42,2.89     c-0.24,0.11-0.51,0.16-0.77,0.24c-0.62-0.9-1.56-1.18-2.58-1.29c-0.87-0.68-1.89-0.23-2.84-0.38c-3.43-1.2-7.01-1.07-10.55-1.21     c-8.43-0.34-16.84-0.32-25.17,1.28c-1.27,0.24-2.81,0.2-3.49,1.75c-1.37-0.08-2.5-0.77-3.58-1.5c-1.85-1.25-1.88-2.4-0.08-3.74     c1.01-0.76,2.16-1.34,3.25-2c-1.6,0.07-3.02,0.54-4.26,1.41c-2.21,1.54-2.25,3.6-0.08,5.26c1.73,1.32,3.77,2.02,5.86,2.55     c10.19,2.61,20.55,2.76,30.94,1.86c5.59-0.49,11.13-1.32,16.2-3.99c0.88,0.71,0.52,1.67,0.41,2.51     c-0.17,1.36-0.46,2.72-0.74,4.06c-1.91,9.28-5.8,17.42-13.46,23.39c-4.88,3.8-10.26,6.32-16.62,5.89     c-5.21-0.35-9.96-2.2-14.45-4.79c-0.48-0.28-0.89-0.68-1.51-0.51c-4.43-4.74-6.64-10.57-8.11-16.75     c-1.24-5.21-1.45-10.52-1.5-15.86c-0.02-2.56,1-4.13,3.2-5.24c3.61-1.83,7.43-2.99,11.36-3.79c4.2-0.86,8.45-1.44,12.76-1.43     c0.06,0.68,0.12,1.36,0.18,2.02C48.13,27.86,47.67,26.71,48.33,26.18z M65.14,43.4c-10.69,1.37-21.39,1.47-32.09,0.02     C43.76,46.5,54.45,46.64,65.14,43.4z"
   class="st7" />
			<path
   id="path18"
   d="M21.1,84.67c-4.52-0.96-8.61-2.86-12.04-5.93c-2.86-2.57-2.83-5.68-0.01-8.29     c3.94-3.64,8.92-5.24,13.96-6.52c1.64-0.41,1.34,1.68,2.38,2.44c-2.35,0.85-4.39,1.51-6.15,2.8c-3.03,2.23-3.06,4.92,0.01,7.08     c3.3,2.32,7.17,3.29,11.05,3.99c14.2,2.58,28.4,2.58,42.52-0.64c2.63-0.6,5.21-1.42,7.54-2.86c3.98-2.47,4-5.47,0.07-8.01     c-0.45-0.29-0.91-0.57-1.57-0.99c1.02-0.23,1.78-0.49,2.55-0.57c1.38-0.13,2.59-1.3,4.16-0.44c2.75,1.5,5.6,2.84,7.23,5.71     c1.04,1.83,0.67,3.61-0.58,5.23c-1.75,2.27-4.15,3.65-6.69,4.79c-7.09,3.2-14.65,4.6-22.32,5.34     c-12.84,1.24-25.62,0.88-38.26-1.99c-0.54-0.12-1.07-0.29-1.6-0.44c0.21-0.17,0.42-0.34,0.62-0.51     c18.21,3.67,36.36,3.54,54.57-0.69c-0.25-0.58-0.39-0.78-0.74-0.71c-7.9,1.69-15.9,2.33-23.96,2.47     c-10.07,0.18-20.1-0.15-30.02-2.05c-0.89-0.17-1.78-0.31-2.68-0.12c-0.19,0.04-0.36,0.23-0.1,0.39c0.16,0.1,0.4,0.07,0.6,0.11     C21.47,84.38,21.28,84.52,21.1,84.67z"
   class="st8" />
			<path
   id="path20"
   d="M77.06,33.76c0.54-0.29,0.38-0.82,0.45-1.28c1.27,0.53,1.61,1.59,1.64,2.84c0.03,1.73,0.04,3.45,0.06,5.18     c0.02,1.41,0.1,2.7-1.73,3.35c-1.11,0.39-1.4,1.7-0.92,3.37c1.66-2.86,3.92-3.72,6.78-3.04c0.04,0.36,0.17,0.71,0.56,0.76     c1.29,0.18,2.57,0.42,3.87,0.46c3.72,0.12,4.86,1.17,5.15,4.91c0.06,0.78-0.34,1.69,0.56,2.27c-0.06,0.26-0.11,0.51-0.17,0.77     c-0.11,0.24-0.22,0.47-0.32,0.71c-0.83,4.95-3.25,8.66-8.09,10.58c-3.79,1.5-7.71,2.15-11.75,2.19c-0.99,0.01-1.63,0.3-2.26,1.09     c-5.48,6.84-12.41,10.21-21.4,10.19c-7.81-0.01-14.14-2.57-19.5-8c-0.24-0.24-0.4-0.55-0.59-0.83c0.62-0.18,1.03,0.23,1.51,0.51     c4.49,2.58,9.24,4.44,14.45,4.79c6.36,0.42,11.73-2.09,16.62-5.89c7.66-5.97,11.55-14.11,13.46-23.39     c0.28-1.35,0.57-2.7,0.74-4.06c0.1-0.85,0.46-1.8-0.41-2.51C78.04,36.69,78.19,36.1,77.06,33.76z M71.06,65.03     c2.17-2.57,5.13-2.84,8.12-3.12c1.16-0.11,2.32-0.41,3.46-0.71c5.42-1.44,8.06-5.68,7.12-11.29c-0.29-1.72-1.16-2.56-2.94-2.52     c-2.15,0.05-4.31,0.09-6.45-0.02c-1.22-0.06-1.68,0.31-1.88,1.51c-0.62,3.69-1.69,7.27-3.04,10.76     c-0.37,0.95-0.78,1.61-1.89,1.89C71.94,61.94,71.04,63.1,71.06,65.03z"
   class="st9" />
			<path
   id="path22"
   d="M50.05,80.79c-7.97-0.1-16.04-0.66-23.9-2.89c-2.33-0.66-4.62-1.48-6.54-3.04     c-1.8-1.47-1.81-2.78-0.04-4.26c1.68-1.4,3.71-2.09,5.72-2.84c1.02-0.38,1.21,0.36,1.59,0.86c2.81,3.62,6.19,6.56,10.38,8.44     c10.73,4.8,25.45,3.08,33.74-7.44c1.06-1.35,2.24-1.69,3.7-1.6c2.68,0.17,4.91,1.4,6.74,3.27c1.3,1.33,0.56,2.55-0.65,3.52     c-2.38,1.91-5.24,2.77-8.12,3.5C65.3,80.17,57.78,80.7,50.05,80.79z"
   class="st10" />
			<path
   id="path24"
   d="M93.47,52.57c-0.89-0.58-0.5-1.49-0.56-2.27c-0.3-3.74-1.43-4.79-5.15-4.91c-1.29-0.04-2.58-0.28-3.87-0.46     c-0.39-0.06-0.52-0.4-0.56-0.76c1.66,0.02,3.33,0.04,4.99,0.08c3.94,0.09,5.49,1.68,5.47,5.67     C93.8,50.81,93.86,51.72,93.47,52.57z"
   class="st10" />
			<path
   id="path26"
   d="M21.1,84.67c0.19-0.14,0.37-0.28,0.56-0.42c0.77,0.2,1.55,0.4,2.32,0.6c-0.21,0.17-0.42,0.34-0.62,0.51     C22.57,85.24,21.78,85.13,21.1,84.67z"
   class="st9" />
			<path
   id="path28"
   d="M92.98,54.05c0.11-0.24,0.22-0.47,0.32-0.71C93.32,53.63,93.33,53.92,92.98,54.05z"
   class="st10" />
			<path
   id="path30"
   d="M77.06,33.76c1.13,2.34,0.98,2.93-1.32,4.94c-5.07,2.67-10.61,3.5-16.2,3.99     c-10.39,0.91-20.75,0.75-30.94-1.86c-2.08-0.53-4.12-1.23-5.86-2.55c-2.17-1.65-2.13-3.72,0.08-5.26     c1.24-0.87,2.67-1.34,4.26-1.41c-1.09,0.66-2.24,1.24-3.25,2c-1.79,1.34-1.76,2.48,0.08,3.74c1.08,0.73,2.21,1.41,3.58,1.5     c0.98,0.6,2.09,0.73,3.2,0.86c1.13,0.95,2.53,0.62,3.81,0.8c3.07,0.86,6.25,0.98,9.39,1.09c5.44,0.2,10.91,0.31,16.34-0.38     c4.02-0.51,8.07-0.98,11.88-2.51c0.26-0.08,0.53-0.13,0.77-0.24c1.42-0.65,3.33-1.13,3.42-2.89c0.1-1.86-1.87-2.43-3.49-3.38     C74.78,31.74,75.83,33,77.06,33.76z"
   class="st6" />
			<path
   id="path32"
   d="M72.12,38.7c-3.81,1.54-7.86,2-11.88,2.51c-5.43,0.69-10.89,0.58-16.34,0.38     c-3.14-0.11-6.32-0.23-9.39-1.09c0.62-0.04,1.25-0.04,1.86-0.14c1.41-0.22,1.02-0.86,0.18-1.62c2.61,0.14,5.19,1.46,7.46,0.66     c2.16-0.76,3.82-0.19,5.72,0.26c1.82,0.43,2.3-0.08,1.93-1.75c0.14,0,0.28,0,0.42,0c1.43,0.3,2.92,1.54,4.29,0.35     c0.8-0.7,1.21-0.47,1.94-0.17c1.91,0.79,3.83,1.84,5.95,1.44c1.46-0.27,2.83-0.64,4.35-0.43c1.28,0.17,1.57-0.6,0.93-1.69     C70.56,37.52,71.49,37.8,72.12,38.7z"
   class="st11" />
			<path
   id="path34"
   d="M52.09,37.92c-0.14,0-0.28,0-0.42,0c-1.15-1.36-2.54-1.74-3.99-0.63c-0.56,0.43-0.98,0.66-1.63,0.5     c-3.64-0.92-7.2,0.88-10.86,0.34c-0.77-0.11-1.75,0.18-2.64,0.25c-0.88,0.06-1.62,0.35-1.85,1.34c-1.11-0.13-2.22-0.26-3.2-0.86     c0.67-1.55,2.22-1.5,3.49-1.75c8.32-1.6,16.74-1.63,25.17-1.28c3.54,0.14,7.13,0.01,10.55,1.21c-1.95,0.01-3.91,0.03-5.86,0.04     c-0.07-0.03-0.13-0.05-0.2-0.08c0.06,0.04,0.11,0.07,0.17,0.11c-0.01,0.14-0.01,0.27,0.01,0.41l0.01-0.01     C56.28,36.83,56.28,36.83,52.09,37.92z"
   class="st12" />
			<path
   id="path36"
   d="M65.14,43.4c-10.69,3.23-21.38,3.1-32.09,0.02C43.75,44.87,54.45,44.77,65.14,43.4z"
   class="st13" />
			<path
   id="path38"
   d="M52.09,37.92c4.2-1.09,4.2-1.09,8.75-0.42c0.05,0.03,0.1,0.07,0.15,0.1c-0.05-0.03-0.11-0.06-0.16-0.09     c-0.02-0.14-0.02-0.27-0.01-0.41l0.03-0.03c1.95-0.01,3.91-0.03,5.86-0.04c0.94,0.15,1.97-0.3,2.84,0.38     c0.64,1.09,0.35,1.87-0.93,1.69c-1.53-0.21-2.9,0.16-4.35,0.43c-2.12,0.39-4.04-0.65-5.95-1.44c-0.72-0.3-1.14-0.52-1.94,0.17     C55.01,39.46,53.52,38.21,52.09,37.92z"
   class="st14" />
			<path
   id="path40"
   d="M23.98,84.84c-0.77-0.2-1.55-0.4-2.32-0.6c-0.2-0.03-0.44-0.01-0.6-0.11c-0.26-0.16-0.1-0.34,0.1-0.39     c0.9-0.2,1.79-0.05,2.68,0.12c9.92,1.9,19.95,2.24,30.02,2.05c8.06-0.15,16.06-0.79,23.96-2.47c0.35-0.07,0.49,0.13,0.74,0.71     C60.33,88.38,42.19,88.51,23.98,84.84z"
   class="st15" />
			<path
   id="path42"
   d="M71.06,65.03c-0.02-1.93,0.88-3.09,2.5-3.49c1.11-0.27,1.52-0.93,1.89-1.89c1.35-3.5,2.42-7.07,3.04-10.76     c0.2-1.2,0.66-1.58,1.88-1.51c2.14,0.11,4.3,0.07,6.45,0.02c1.78-0.04,2.65,0.8,2.94,2.52c0.94,5.61-1.7,9.85-7.12,11.29     c-1.14,0.3-2.29,0.6-3.46,0.71C76.19,62.19,73.23,62.46,71.06,65.03z M76.31,61.25c1.62-0.28,2.84-0.44,4.04-0.71     c6.23-1.4,7.41-2.68,8.23-8.88c0.31-2.31-0.28-3.02-2.64-3.08c-1.66-0.04-3.32,0.01-4.99-0.01c-0.7-0.01-1.19,0.14-1.31,0.96     C79.06,53.45,77.89,57.2,76.31,61.25z"
   class="st16" />
			<path
   id="path44"
   d="M30.7,39.7c0.23-0.99,0.97-1.28,1.85-1.34c0.89-0.06,1.87-0.36,2.64-0.25c3.66,0.55,7.22-1.26,10.86-0.34     c0.65,0.17,1.07-0.07,1.63-0.5c1.45-1.11,2.84-0.73,3.99,0.63c0.37,1.68-0.11,2.19-1.93,1.75c-1.9-0.45-3.56-1.02-5.72-0.26     c-2.27,0.8-4.85-0.52-7.46-0.66c0.84,0.76,1.23,1.4-0.18,1.62c-0.61,0.1-1.24,0.1-1.86,0.14C33.22,40.32,31.82,40.66,30.7,39.7z"
   class="st14" />
			<path
   id="path46"
   d="M60.82,37.1c-0.06-0.04-0.11-0.07-0.17-0.11c0.07,0.03,0.13,0.05,0.2,0.08     C60.85,37.07,60.82,37.1,60.82,37.1z"
   class="st14" />
			<path
   id="path48"
   d="M60.83,37.5c0.05,0.03,0.11,0.06,0.16,0.09c-0.05-0.03-0.1-0.07-0.15-0.1     C60.84,37.49,60.83,37.5,60.83,37.5z"
   class="st12" />
			<path
   id="path50"
   d="M76.31,61.25c1.58-4.06,2.75-7.81,3.33-11.71c0.12-0.82,0.61-0.97,1.31-0.96c1.66,0.02,3.32-0.03,4.99,0.01     c2.36,0.06,2.95,0.76,2.64,3.08c-0.83,6.2-2.01,7.48-8.23,8.88C79.15,60.81,77.93,60.97,76.31,61.25z"
   class="st17" />
		</g>
	</g>
</g>
<g
   transform="matrix(1.1466352,0,0,1.1466352,-7.5397802,-7.5184505)"
   id="Layer_2">
	<line
   id="line57"
   y2="48.259998"
   x2="63"
   y1="41.360001"
   x1="31.24"
   class="st18" />
	<g
   id="g63">
		<ellipse
   id="ellipse59"
   ry="8.6199999"
   rx="25.17"
   cy="66.75"
   cx="49.810001"
   class="st19" />
		<ellipse
   id="ellipse61"
   ry="5.3600001"
   rx="18.889999"
   cy="65.580002"
   cx="50.360001"
   class="st19" />
	</g>
	<g
   id="g75">
		<path
   id="path65"
   d="m 66,49.44 c 1.06,-0.36 1.92,-0.42 2.51,-0.41 0.67,0.02 0.83,0.12 1.82,0.2 1.84,0.15 2.06,-0.11 2.41,0.1 1.24,0.77 1.08,6.03 -1.92,8.95 -3.3,3.21 -8.24,1.81 -8.62,1.7"
   class="st20" />
		<g
   id="g73">
			<path
   id="path67"
   d="m 32.15,41.11 c -0.52,2.57 -1.14,7.33 0.27,12.93 0.79,3.12 1.98,7.83 6.05,11.35 4.4,3.81 10.67,4.84 15.38,3.41 8.47,-2.57 14.72,-13.97 12.79,-27.4 -2.82,-1.64 -9.1,-4.78 -17.6,-4.75 -8.06,0.03 -14.06,2.87 -16.89,4.46 z"
   class="st19" />
			<path
   id="path69"
   d="m 64.91,49.64 c 0.32,-0.41 0.9,-1.03 1.77,-1.47 0.26,-0.13 1.29,-0.62 3.24,-0.47 1.58,0.12 3.75,0.28 4.77,1.59 1.8,2.31 -0.26,7.89 -3.74,10.79 -3.42,2.86 -7.56,2.56 -8.79,2.42"
   class="st21" />
			<path
   id="path71"
   d="m 66.29,50.46 c 0.53,-0.1 1.32,-0.2 2.26,-0.15 1.32,0.07 2.36,0.13 3,0.82 1,1.08 0.61,3.27 -0.15,4.6 -1.26,2.21 -3.86,2.66 -4.18,2.71 -1.3,0.2 -1.82,-0.19 -3.1,0.2 -1.15,0.36 -1.97,1.07 -2.46,1.59 0.84,-0.36 2.08,-1.05 2.85,-2.4 0.42,-0.73 0.51,-1.33 0.84,-2.97 0.21,-1.01 0.52,-2.52 0.94,-4.4 z"
   class="st21" />
		</g>
	</g>
	<ellipse
   id="ellipse77"
   ry="3.22"
   rx="15.91"
   cy="43.759998"
   cx="48.959999"
   class="st22" />
	<path
   id="path79"
   d="m 35.47,40.54 c -1.33,0.86 -2.54,1.92 -2.41,2.97 0.34,2.76 9.8,3.87 16.37,3.73 6.77,-0.15 15.63,-1.73 15.76,-4.11 0.05,-0.86 -1.06,-1.65 -2.15,-2.23"
   class="st21" />
	<path
   id="path81"
   d="m 40.33,47.8 c 2.12,0.6 5.01,1.19 8.46,1.23 3.67,0.04 6.74,-0.56 8.95,-1.18"
   class="st23" />
	<path
   id="path83"
   d="m 33.79,71.78 c 4.03,1.05 9.25,2.01 15.39,2.15 6.23,0.14 11.57,-0.6 15.68,-1.48"
   class="st21" />
	<path
   id="path85"
   d="m 45.5,26.33 c -0.31,0.66 -0.64,1.64 -0.49,2.76 0.3,2.27 2.28,2.95 2.95,5.06 0.34,1.06 0.4,2.67 -0.84,5.06"
   class="st24" />
	<path
   id="path87"
   d="m 53.75,26.12 c -0.95,1.13 -1.13,1.97 -1,2.59 0.2,0.9 1,1.11 1.33,2.07 0.31,0.92 -0.02,1.95 -0.53,2.85"
   class="st24" />
	<path
   id="path89"
   d="m 50.51,24.64 c -0.6,0.71 -1.32,1.79 -1.35,3.13 -0.05,1.65 0.96,2.55 1.65,4.28 0.5,1.25 0.92,3.13 0.47,5.84"
   class="st24" />
</g>
</svg>
